<svg xmlns="http://www.w3.org/2000/svg" xmlns:xlink="http://www.w3.org/1999/xlink" width="13" height="13" viewBox="0 0 100 100"><g><g transform="translate(50 50) scale(1 1) rotate(0) translate(-50 -50)" style="fill:#252b32"><svg fill="#252b32" xmlns="http://www.w3.org/2000/svg" xmlns:xlink="http://www.w3.org/1999/xlink" version="1.1" preserveAspectRatio="none" x="0px" y="0px" viewBox="0 0 100 100"><defs><g id="a"><path fill="#252b32" stroke="none" d=" M 50 95.05 Q 54.5 95.05 57.7 91.85 60.85 88.65 60.85 84.2 60.85 79.7 57.7 76.5 54.5 73.3 50 73.3 45.5 73.3 42.3 76.5 39.1 79.7 39.1 84.2 39.1 88.65 42.3 91.85 45.5 95.05 50 95.05 M 50 39.15 Q 45.5 39.15 42.3 42.3 39.1 45.5 39.1 50 39.1 54.5 42.3 57.7 45.5 60.9 50 60.9 54.5 60.9 57.7 57.7 60.85 54.5 60.85 50 60.85 45.5 57.7 42.3 54.5 39.15 50 39.15 M 50 26.75 Q 54.5 26.75 57.7 23.6 60.85 20.4 60.85 15.9 60.85 11.4 57.7 8.2 54.5 5 50 5 45.5 5 42.3 8.2 39.1 11.4 39.1 15.9 39.1 20.4 42.3 23.6 45.5 26.75 50 26.75 Z"></path></g></defs><g transform="matrix( 1, 0, 0, 1, 0,0) "><use xlink:href="#a"></use></g></svg></g></g></svg>