<svg id="Capa_1" enable-background="new 0 0 497.274 497.274" height="512" viewBox="0 0 497.274 497.274" width="512" xmlns="http://www.w3.org/2000/svg"><g><g><path d="m481.999 135.16v-25c0-4.142-3.358-7.5-7.5-7.5s-7.5 3.358-7.5 7.5v25c0 4.142 15 4.142 15 0z" fill="#f8e7c7"/></g><path d="m474.499 125.16c0 8.284-10 290.285-10 290.285l25-10v-70.285l-3.469-9.308 3.469-5.692v-65.011l-4.135-7.329 4.135-7.671v-54.989l-3.469-7.839 3.469-7.161s0-28.714 0-30c0-8.284-6.715-15-15-15z" fill="#f8e7c7"/><path d="m114.307 219.875 55-10c0-16.569-7.388-29.876-30-40-3.869 1.732-7.283 3.56-10.3 5.48-12.174 13.494-14.7 44.52-14.7 44.52z" fill="#f8e7c7"/><path d="m387.692 194.875h-2.57c-3.778-9.811-12.104-18.138-27.431-25-3.869 1.732-7.283 3.56-10.3 5.48-12.174 13.495-14.7 44.52-14.7 44.52l55-10c4.142 0 7.5-3.358 7.5-7.5s-3.357-7.5-7.499-7.5z" fill="#f8e7c7"/><path d="m342.692 209.875c0-5.11 0-11.063 0-15 0-7.105 1.365-13.609 4.7-19.52-14.614 9.296-19.7 20.787-19.7 34.52h-203.385s0-5.199 0-15c0-7.105 1.365-13.609 4.7-19.52-8.932 5.682-14.291 12.188-17.119 19.52h-2.582c-4.142 0-7.5 3.358-7.5 7.5s3.358 7.5 7.5 7.5c0 16.569 10 50 10 50l268.385-5v-45z" fill="#f4daa7"/><path d="m124.307 209.875v37.775c0 4.142 3.358 7.5 7.5 7.5h182.777l13.109-45.275h14.999v37.775c0 4.142 3.358 7.5 7.5 7.5h37.5v23.708h-278.385v-68.982h15z" fill="#f0c87e"/><path d="m131.807 255.149v-15.274c0-4.142 3.358-7.5 7.5-7.5s7.5 3.358 7.5 7.5v15.274c0 4.142-15 4.142-15 0z" fill="#cf9875"/><path d="m131.807 255.149h15v17.832h-15z" fill="#bd7f54"/><path d="m365.192 255.149v-15.274c0-4.142-3.358-7.5-7.5-7.5s-7.5 3.358-7.5 7.5v15.274c0 4.142 15 4.142 15 0z" fill="#cf9875"/><path d="m489.774 320.16h-15.274v-65h15.274c4.142 0 7.5-3.358 7.5-7.5s-3.358-7.5-7.5-7.5h-15.212l-.063-.011v-54.989h15c4.142 0 7.5-3.358 7.5-7.5s-3.358-7.5-7.5-7.5h-15v-15h15c4.142 0 7.5-3.358 7.5-7.5s-3.358-7.5-7.5-7.5h-15v-15c-8.284 0-15 6.716-15 15v280.285l15 15 15-15v-15h-7.5c-4.142 0-7.5-3.358-7.5-7.5v-62.785h15.274c4.142 0 7.5-3.358 7.5-7.5s-3.357-7.5-7.499-7.5z" fill="#f4daa7"/><path d="m474.774 185.16h-15.274c-4.142 0-7.5-3.358-7.5-7.5s3.358-7.5 7.5-7.5h15.274z" fill="#f0c87e"/><path d="m474.774 155.16h-15.274c-4.142 0-7.5-3.358-7.5-7.5s3.358-7.5 7.5-7.5h15.274z" fill="#f0c87e"/><path d="m474.499 255.16h-15.274c-4.142 0-7.5-3.358-7.5-7.5s3.358-7.5 7.5-7.5h15.274z" fill="#f0c87e"/><path d="m474.499 335.16h-15.274c-4.142 0-7.5-3.358-7.5-7.5s3.358-7.5 7.5-7.5h15.274z" fill="#f0c87e"/><g><path d="m30.274 135.16v-25c0-4.142-3.358-7.5-7.5-7.5s-7.5 3.358-7.5 7.5v25c0 4.142 15 4.142 15 0z" fill="#f8e7c7"/></g><path d="m22.774 125.16c0 8.284-10 290.285-10 290.285l25-10v-70.285l-3.469-9.308 3.469-5.692v-65.011l-4.135-7.329 4.135-7.671v-54.989l-3.469-7.839 3.469-7.161s0-28.714 0-30c0-8.284-6.715-15-15-15z" fill="#f8e7c7"/><path d="m38.049 320.16h-15.275v-65h15.274c4.142 0 7.5-3.358 7.5-7.5s-3.358-7.5-7.5-7.5h-15.211l-.063-.011v-54.989h15c4.142 0 7.5-3.358 7.5-7.5s-3.358-7.5-7.5-7.5h-15v-15h15c4.142 0 7.5-3.358 7.5-7.5s-3.358-7.5-7.5-7.5h-15v-15c-8.284 0-15 6.716-15 15v280.285l15 15 15-15v-15h-7.5c-4.142 0-7.5-3.358-7.5-7.5v-62.785h15.274c4.142 0 7.5-3.358 7.5-7.5s-3.357-7.5-7.499-7.5z" fill="#f4daa7"/><path d="m23.049 185.16h-15.275c-4.142 0-7.5-3.358-7.5-7.5s3.358-7.5 7.5-7.5h15.274v15z" fill="#f0c87e"/><path d="m23.049 155.16h-15.275c-4.142 0-7.5-3.358-7.5-7.5s3.358-7.5 7.5-7.5h15.274v15z" fill="#f0c87e"/><path d="m22.774 255.16h-15.274c-4.142 0-7.5-3.358-7.5-7.5s3.358-7.5 7.5-7.5h15.274z" fill="#f0c87e"/><path d="m22.774 335.16h-15.274c-4.142 0-7.5-3.358-7.5-7.5s3.358-7.5 7.5-7.5h15.274z" fill="#f0c87e"/><path d="m350.192 255.149h15v17.832h-15z" fill="#bd7f54" transform="matrix(-1 0 0 -1 715.384 528.131)"/><path d="m179.307 229.974 148.386-5.099v-15.1l-148.386-5.099z" fill="#f8e7c7"/><path d="m184.307 224.875v-25l-15 10v30l79.193 10 79.192-10v-15z" fill="#f4daa7"/><g fill="#f8e7c7"><path d="m241 92.523v-38.194c0-4.142 3.358-7.5 7.5-7.5s7.5 3.358 7.5 7.5v38.195c0 4.141-15 4.141-15-.001z"/><path d="m131.807 193.07v-38.195c0-4.142 3.358-7.5 7.5-7.5s7.5 3.358 7.5 7.5v38.195c0 4.142-15 4.142-15 0z"/><path d="m365.192 193.07v-38.195c0-4.142-3.358-7.5-7.5-7.5s-7.5 3.358-7.5 7.5v38.195c0 4.142 15 4.142 15 0z"/><path d="m248.499 82.523c-14.326 7.15-27.208 14.531-38.396 22.238l-16.788 15.262c-13.068 14.611-21.595 29.268-21.595 46.903 0 22.745 7.587 32.949 7.587 32.949l154.161-5c1.044-4.769 1.811-10.724 1.811-17.949 0-21.236-10.453-39.914-28.991-56.907l-19.006-15.004c-11.28-7.799-24.298-15.263-38.783-22.492z"/></g><path d="m188.748 194.875c-2.935 0-5.622-1.7-6.82-4.379-2.225-4.976-5.208-14.307-5.208-28.57 0-14.72 6.761-29.065 16.595-41.903h112.969c-5.614-5.147-11.977-10.138-19.008-15h-77.546c-3.591 2.485-7.01 5.002-10.242 7.558-23.972 18.959-37.768 39.965-37.768 64.345 0 22.745 7.587 32.949 7.587 32.949h158.386s3.531-4.755 5.775-15z" fill="#f4daa7"/><path d="m79.307 269.875v-30c0-4.142 3.358-7.5 7.5-7.5s7.5 3.358 7.5 7.5v30c0 4.142-15 4.142-15 0z" fill="#f8e7c7"/><path d="m417.692 269.875v-30c0-4.142-3.358-7.5-7.5-7.5s-7.5 3.358-7.5 7.5v30c0 4.142 15 4.142 15 0z" fill="#f8e7c7"/><path d="m94.307 269.875h75l15-30h143.386v30l5.775 8.116 9.225-8.116h75v135.57l-330.123 7.373z" fill="#f8e7c7"/><path d="m342.693 397.945v-128.07h-15v135.57h-135.886c-4.142 0-7.5-3.358-7.5-7.5v-158.07h-15v165.57h-67.5c-4.142 0-7.5-3.358-7.5-7.5v-128.07h-15v160.57h338.386v-25h-67.5c-4.142 0-7.5-3.358-7.5-7.5z" fill="#f4daa7"/><path d="m349.717 427.469h-22.024v-22.024z" fill="#f0c87e"/><path d="m147.283 427.469h22.024v-22.024z" fill="#f0c87e"/><path d="m287.759 410.433-88.453-4.987s0-18.34 0-47.246c0-19.015 14.629-37.552 48.287-49.524 25.293 10.796 40.166 36.485 40.166 36.485z" fill="#f4daa7"/><path d="m248.5 299.875c-30.693 11.96-49.193 28.34-49.193 58.324 0-16.38 18.742-34.9 40.361-43.324 26.845 10.46 43.025 24.786 43.025 51.011v39.56h-83.386v24.882l98.386.118s0-42.262 0-72.247-18.5-46.364-49.193-58.324z" fill="#f0c87e"/><path d="m241 405.445v-10c0-4.142 3.358-7.5 7.5-7.5s7.5 3.358 7.5 7.5v10c0 4.142-15 4.142-15 0z" fill="#cf9875"/><path d="m206.807 277.375h83.387v138.07l15-10v-135.57c0-4.142-3.358-7.5-7.5-7.5h-98.387c-4.142 0-7.5 3.358-7.5 7.5v135.57l15 10z" fill="#f0c87e"/><path d="m290.193 405.445v17.5h-83.387v-17.5h-15v25c0 4.142 3.358 7.5 7.5 7.5h98.387c4.142 0 7.5-3.358 7.5-7.5v-25z" fill="#cf9875"/><path d="m241 405.445h15v17.832h-15z" fill="#bd7f54"/><path d="m361.723 306.666c-2.604 2.854-4.03 6.4-4.03 10.993v27.501h15c0-6.104 10-16.371 10-22.501 0-7.739-14.053-12.5-20.97-15.993z" fill="#f4daa7"/><path d="m387.693 317.659c0-9.143-5.641-14.137-15-17.784-4.657 1.815-8.391 3.964-10.97 6.791 6.917 3.493 10.97 8.255 10.97 15.993v22.501h15s0-18.358 0-27.501z" fill="#f0c87e"/><path d="m113.337 306.666c-2.604 2.854-4.03 6.4-4.03 10.993v27.501h15c0-6.104 10-16.371 10-22.501 0-7.739-14.053-12.5-20.97-15.993z" fill="#f4daa7"/><path d="m139.307 317.659c0-9.143-5.641-14.137-15-17.784-4.657 1.815-8.391 3.964-10.97 6.791 6.917 3.493 10.97 8.255 10.97 15.993v22.501h15s0-18.358 0-27.501z" fill="#f0c87e"/><path d="m113.337 381.951c-2.604 2.854-4.03 6.4-4.03 10.993v12.501l22.089 7.911s2.911-9.282 2.911-15.412c0-7.739-14.053-12.5-20.97-15.993z" fill="#f4daa7"/><path d="m139.307 392.944c0-9.143-5.641-14.137-15-17.784-4.657 1.815-8.391 3.964-10.97 6.791 6.917 3.493 10.97 8.255 10.97 15.993v7.501h-15v25h30s0-28.358 0-37.501z" fill="#f0c87e"/><path d="m361.723 381.951c-2.604 2.854-4.03 6.4-4.03 10.993v12.501l22.089 7.911s2.911-9.282 2.911-15.412c0-7.739-14.053-12.5-20.97-15.993z" fill="#f4daa7"/><path d="m387.693 392.944c0-9.143-5.641-14.137-15-17.784-4.657 1.815-8.391 3.964-10.97 6.791 6.917 3.493 10.97 8.255 10.97 15.993v7.501h-15v25h30s0-28.358 0-37.501z" fill="#f0c87e"/><path d="m10 440.544 487-5.099v-7.598c0-4.143-3.359-7.501-7.502-7.5l-474.498.098z" fill="#f8e7c7"/><path d="m15 427.945v-7.5h-7.5c-4.142 0-7.5 3.358-7.5 7.5v15c0 4.142 3.358 7.5 7.5 7.5h481.999c4.142 0 7.5-3.358 7.5-7.5v-7.5h-474.499c-4.142 0-7.5-3.358-7.5-7.5z" fill="#f4daa7"/><path d="m248.5 362.66c-4.142 0-7.5-3.358-7.5-7.5v-15c0-4.142 3.358-7.5 7.5-7.5s7.5 3.358 7.5 7.5v15c0 4.142-3.358 7.5-7.5 7.5z" fill="#cf9875"/><path d="m169.307 224.875h15v15h-15z" fill="#f0c87e"/></g></svg>