<svg xmlns="http://www.w3.org/2000/svg" xmlns:xlink="http://www.w3.org/1999/xlink" width="35px" height="35px" viewBox="0 0 100 100"><g><g transform="translate(50 50) scale(0.69 0.69) rotate(0) translate(-50 -50)" style="fill:#14bf98"><svg fill="#14bf98" xmlns="http://www.w3.org/2000/svg" xmlns:xlink="http://www.w3.org/1999/xlink" xml:space="preserve" version="1.1" style="shape-rendering:geometricPrecision;text-rendering:geometricPrecision;image-rendering:optimizeQuality;" viewBox="0 0 0.746 0.645" x="0px" y="0px" fill-rule="evenodd" clip-rule="evenodd"><defs><style type="text/css">
   
    .fil0 {fill:#fec934;fill-rule:nonzero}
   
  </style></defs><g><path class="fil0" d="M0.408 0.301l0.069 -0.069c0.01,-0.011 0.027,-0.011 0.038,0 0.01,0.01 0.01,0.027 0,0.038l-0.07 0.069c0.005,0.01 0.008,0.022 0.008,0.034 0,0.022 -0.009,0.042 -0.023,0.057 -0.015,0.014 -0.035,0.023 -0.057,0.023 -0.022,0 -0.042,-0.009 -0.056,-0.023 -0.015,-0.015 -0.024,-0.035 -0.024,-0.057 0,-0.022 0.009,-0.042 0.024,-0.056 0.014,-0.015 0.034,-0.024 0.056,-0.024 0.012,0 0.024,0.003 0.035,0.008zm-0.3 0.335c-0.034,-0.035 -0.061,-0.075 -0.08,-0.12 -0.018,-0.044 -0.028,-0.092 -0.028,-0.142l0 -0.001 0 0 0 -0.001c0,-0.102 0.042,-0.195 0.109,-0.263l0 0c0.068,-0.067 0.161,-0.109 0.264,-0.109 0.103,0 0.196,0.042 0.264,0.109 0.068,0.068 0.109,0.161 0.109,0.264 0,0.051 -0.01,0.099 -0.028,0.143 -0.019,0.045 -0.046,0.086 -0.08,0.12 0,0 -0.001,0.001 -0.001,0.001 -0.01,0.01 -0.027,0.01 -0.038,0l-0.037 -0.038c-0.011,-0.01 -0.011,-0.027 0,-0.037 0.01,-0.011 0.027,-0.011 0.037,0l0.018 0.018c0.022,-0.025 0.039,-0.054 0.052,-0.084 0.012,-0.03 0.02,-0.062 0.023,-0.096l-0.026 0c-0.014,0 -0.026,-0.012 -0.026,-0.027 0,-0.015 0.012,-0.026 0.026,-0.026l0.026 0c-0.006,-0.069 -0.033,-0.131 -0.075,-0.18l-0.018 0.018c-0.01,0.01 -0.027,0.01 -0.037,0 -0.011,-0.011 -0.011,-0.028 0,-0.038l0.018 -0.018c-0.05,-0.042 -0.112,-0.069 -0.18,-0.075l0 0.026c0,0.015 -0.012,0.027 -0.027,0.027 -0.015,0 -0.026,-0.012 -0.026,-0.027l0 -0.026c-0.069,0.006 -0.131,0.033 -0.18,0.075l0.018 0.018c0.01,0.01 0.01,0.027 0,0.038 -0.011,0.01 -0.028,0.01 -0.038,0l-0.018 -0.018c-0.042,0.049 -0.069,0.111 -0.075,0.18l0.026 0c0.015,0 0.027,0.011 0.027,0.026 0,0.015 -0.012,0.027 -0.027,0.027l-0.026 0c0.003,0.034 0.011,0.066 0.023,0.096 0.013,0.03 0.031,0.059 0.052,0.084l0.018 -0.018c0.01,-0.011 0.027,-0.011 0.038,0 0.01,0.01 0.01,0.027 0,0.037l-0.038 0.038c-0.01,0.01 -0.027,0.01 -0.038,0 0,0 -0.001,-0.001 -0.001,-0.001zm0.284 -0.282c-0.005,-0.004 -0.011,-0.007 -0.019,-0.007 -0.007,0 -0.014,0.003 -0.019,0.007 -0.005,0.005 -0.007,0.012 -0.007,0.019 0,0.008 0.002,0.014 0.007,0.019 0.005,0.005 0.012,0.008 0.019,0.008 0.008,0 0.014,-0.003 0.019,-0.008 0.005,-0.005 0.008,-0.011 0.008,-0.019 0,-0.007 -0.003,-0.014 -0.008,-0.019z"></path></g></svg></g></g></svg>