<svg xmlns="http://www.w3.org/2000/svg" xmlns:xlink="http://www.w3.org/1999/xlink" width="215" height="55" viewBox="-1.5 0 215 55">
  <metadata><?xpacket begin="﻿" id="W5M0MpCehiHzreSzNTczkc9d"?>
<x:xmpmeta xmlns:x="adobe:ns:meta/" x:xmptk="Adobe XMP Core 5.6-c138 79.159824, 2016/09/14-01:09:01        ">
   <rdf:RDF xmlns:rdf="http://www.w3.org/1999/02/22-rdf-syntax-ns#">
      <rdf:Description rdf:about=""/>
   </rdf:RDF>
</x:xmpmeta>
                                                                                                    
                                                                                                    
                                                                                                    
                                                                                                    
                                                                                                    
                                                                                                    
                                                                                                    
                                                                                                    
                                                                                                    
                                                                                                    
                                                                                                    
                                                                                                    
                                                                                                    
                                                                                                    
                                                                                                    
                                                                                                    
                                                                                                    
                                                                                                    
                                                                                                    
                                                                                                    
                           
<?xpacket end="w"?></metadata>
<defs>
    <style>
      .cls-1 {
        fill: #fff;
      }

      .cls-1, .cls-2, .cls-3, .cls-4 {
        fill-rule: evenodd;
      }

      .cls-2 {
        fill: #fec934;
      }

      .cls-3 {
        fill: #fff;
      }

      .cls-4 {
        fill: #fff;
      }
    </style>
    <clipPath id="clip-path">
      <rect width="212" height="55"/>
    </clipPath>
  </defs>
  <g clip-path="url(#clip-path)">
    <path id="Restaurant" class="cls-1" d="M141.42,25.257h1.845a3.16,3.16,0,0,1,1.956.45,1.875,1.875,0,0,1,.546,1.524,2.684,2.684,0,0,1-.8,2.223,5.389,5.389,0,0,1-3.13.633h-1.4Zm-2.511,12.2,1.256-6.1h1.827a3.642,3.642,0,0,1,1.922.354,1.4,1.4,0,0,1,.511,1.236,3.813,3.813,0,0,1-.031.459q-0.03.258-.082,0.528l-0.355,1.817q-0.051.314-.078,0.515a2.748,2.748,0,0,0-.026.332,2.719,2.719,0,0,0,.035.45,2.549,2.549,0,0,0,.1.406h1.723v-0.14a1.326,1.326,0,0,1-.247-0.367,0.981,0.981,0,0,1-.073-0.384,1.8,1.8,0,0,1,.034-0.3,0.715,0.715,0,0,0,.018-0.122l0.337-1.835q0.1-.533.13-0.839a4.9,4.9,0,0,0,.035-0.542,2.288,2.288,0,0,0-.425-1.4,1.8,1.8,0,0,0-1.143-.712,3.026,3.026,0,0,0,2.113-1.083,3.8,3.8,0,0,0,.745-2.455,3.1,3.1,0,0,0-.922-2.5,4.625,4.625,0,0,0-2.992-.777h-3.16l-2.78,13.454h1.524Zm12.148-8.413a1.624,1.624,0,0,1,1.36-.734,1.343,1.343,0,0,1,1.1.45,2.035,2.035,0,0,1,.373,1.324q0,0.253-.026.577t-0.078.716H150.2A6.093,6.093,0,0,1,151.057,29.048Zm2.243,5.119a3.7,3.7,0,0,1-.727,1.73,1.616,1.616,0,0,1-1.273.577,1.342,1.342,0,0,1-1.156-.524,2.665,2.665,0,0,1-.385-1.581,6.719,6.719,0,0,1,.047-0.76q0.048-.419.16-1.031h4.97q0.139-.655.208-1.236a9,9,0,0,0,.069-1.053,3.538,3.538,0,0,0-.679-2.372,2.591,2.591,0,0,0-2.065-.782,3.041,3.041,0,0,0-1.832.568,4.1,4.1,0,0,0-1.285,1.669,10.791,10.791,0,0,0-.736,2.35,12.683,12.683,0,0,0-.3,2.595,3.948,3.948,0,0,0,.749,2.581,2.625,2.625,0,0,0,2.143.9,2.925,2.925,0,0,0,2.221-.965,4.87,4.87,0,0,0,1.165-2.669h-1.3Zm2.264,0.708c-0.009.146-.013,0.233-0.013,0.262a2.513,2.513,0,0,0,.8,1.961,3.131,3.131,0,0,0,2.182.721,3.286,3.286,0,0,0,2.437-.917,3.361,3.361,0,0,0,.914-2.481,2.721,2.721,0,0,0-.39-1.52,3.059,3.059,0,0,0-1.3-1.022l-0.58-.271q-1.542-.7-1.541-1.625a1.707,1.707,0,0,1,.424-1.214,1.5,1.5,0,0,1,1.152-.454,1.539,1.539,0,0,1,1.177.424,1.752,1.752,0,0,1,.4,1.245v0.052h1.264V29.983c0.023-.227.034-0.387,0.034-0.48a2.147,2.147,0,0,0-.779-1.73,3.122,3.122,0,0,0-2.078-.655,2.937,2.937,0,0,0-2.191.817,3.032,3.032,0,0,0-.805,2.223,2.434,2.434,0,0,0,.446,1.529,5.446,5.446,0,0,0,2,1.267,2.476,2.476,0,0,1,1.052.7,1.725,1.725,0,0,1,.264,1.022,1.861,1.861,0,0,1-.494,1.35,1.744,1.744,0,0,1-1.316.511,1.717,1.717,0,0,1-1.277-.428,1.778,1.778,0,0,1-.42-1.293c0-.035,0-0.089.009-0.162s0.009-.127.009-0.162h-1.351C155.58,34.6,155.573,34.73,155.564,34.875Zm10.871-6.36h1.507l0.225-1.075H166.66l0.572-2.665h-1.4l-0.563,2.665h-1.177l-0.226,1.075h1.169L163.647,35c-0.012.058-.032,0.151-0.061,0.28a5.326,5.326,0,0,0-.13.935,1.393,1.393,0,0,0,.464,1.131,2.072,2.072,0,0,0,1.363.389,3.853,3.853,0,0,0,.472-0.026,2.412,2.412,0,0,0,.412-0.087l0.259-1.249c-0.052.006-.138,0.017-0.259,0.035a4.8,4.8,0,0,1-.572.052,0.674,0.674,0,0,1-.506-0.166,0.718,0.718,0,0,1-.161-0.516,2.029,2.029,0,0,1,.018-0.21c0.011-.1.029-0.207,0.052-0.323Zm6.676,4.761a6.883,6.883,0,0,1-.918,2.6,1.731,1.731,0,0,1-1.455.69,1.182,1.182,0,0,1-.926-0.376,1.473,1.473,0,0,1-.338-1.022,2.311,2.311,0,0,1,.442-1.5,2.413,2.413,0,0,1,1.42-.751l0.8-.183a4.933,4.933,0,0,0,.641-0.175,5.156,5.156,0,0,0,.52-0.218Zm-0.312,3.04a2.237,2.237,0,0,0-.026.253,0.989,0.989,0,0,0,.3.791,1.357,1.357,0,0,0,.905.258,1.973,1.973,0,0,0,.394-0.035,1.26,1.26,0,0,0,.333-0.122l0.165-.952a1.446,1.446,0,0,1-.689-0.114,0.432,0.432,0,0,1-.186-0.4,1.957,1.957,0,0,1,.022-0.258c0.014-.108.039-0.249,0.073-0.424l0.9-4.56q0.112-.507.156-0.8a3.906,3.906,0,0,0,.043-0.542,2.041,2.041,0,0,0-.688-1.669,3.129,3.129,0,0,0-2.031-.568,2.985,2.985,0,0,0-2.147.743,3.043,3.043,0,0,0-.857,2.123h1.3a2.031,2.031,0,0,1,.446-1.306,1.571,1.571,0,0,1,1.191-.415,1.649,1.649,0,0,1,1.026.288,0.9,0.9,0,0,1,.377.751,2.978,2.978,0,0,1-.278,1.446,1.422,1.422,0,0,1-.961.651l-1.653.393a3.955,3.955,0,0,0-2.165,1.114,3.156,3.156,0,0,0-.658,2.127,2.825,2.825,0,0,0,.623,1.953,2.22,2.22,0,0,0,1.741.695,2.379,2.379,0,0,0,1.294-.341,3.646,3.646,0,0,0,1.061-1.162,0.688,0.688,0,0,1-.009.087h0Zm6.226-8.876h-1.394l-1.542,7.33a4.53,4.53,0,0,0-.1.563,5.114,5.114,0,0,0-.03.555,1.684,1.684,0,0,0,.536,1.337,2.236,2.236,0,0,0,1.524.472,3.1,3.1,0,0,0,1.412-.341,4.575,4.575,0,0,0,1.3-1.022l-0.251,1.127h1.334l2.112-10.02h-1.4l-1.576,7.5a3.706,3.706,0,0,1-1.117,1.219,2.379,2.379,0,0,1-1.333.432,1.164,1.164,0,0,1-.814-0.275,0.934,0.934,0,0,1-.3-0.73,2.859,2.859,0,0,1,.03-0.341q0.03-.227.091-0.533Zm6.849,10.02,1.2-5.74a4.752,4.752,0,0,1,1.052-2.28,2.35,2.35,0,0,1,1.788-.786,1.338,1.338,0,0,1,.234.022c0.081,0.015.173,0.037,0.277,0.066L190.7,27.3a2.074,2.074,0,0,0-.529-0.07,2.607,2.607,0,0,0-1.489.476,3.791,3.791,0,0,0-1.178,1.341l0.355-1.607h-1.29l-2.112,10.02h1.42Zm8.771-4.185a6.883,6.883,0,0,1-.918,2.6,1.731,1.731,0,0,1-1.455.69,1.182,1.182,0,0,1-.926-0.376,1.473,1.473,0,0,1-.338-1.022,2.311,2.311,0,0,1,.442-1.5,2.413,2.413,0,0,1,1.42-.751l0.8-.183a4.933,4.933,0,0,0,.641-0.175,5.156,5.156,0,0,0,.52-0.218Zm-0.312,3.04a2.237,2.237,0,0,0-.026.253,0.989,0.989,0,0,0,.3.791,1.357,1.357,0,0,0,.905.258,1.973,1.973,0,0,0,.394-0.035,1.26,1.26,0,0,0,.333-0.122l0.165-.952a1.446,1.446,0,0,1-.689-0.114,0.432,0.432,0,0,1-.186-0.4,1.957,1.957,0,0,1,.022-0.258c0.014-.108.039-0.249,0.073-0.424l0.9-4.56q0.112-.507.156-0.8a3.906,3.906,0,0,0,.043-0.542,2.041,2.041,0,0,0-.688-1.669A3.129,3.129,0,0,0,194,27.17a2.985,2.985,0,0,0-2.147.743A3.043,3.043,0,0,0,191,30.035h1.3a2.031,2.031,0,0,1,.446-1.306,1.571,1.571,0,0,1,1.191-.415,1.649,1.649,0,0,1,1.026.288,0.9,0.9,0,0,1,.377.751,2.978,2.978,0,0,1-.278,1.446,1.422,1.422,0,0,1-.961.651l-1.653.393a3.959,3.959,0,0,0-2.165,1.114,3.156,3.156,0,0,0-.658,2.127,2.825,2.825,0,0,0,.623,1.953,2.22,2.22,0,0,0,1.741.695,2.379,2.379,0,0,0,1.294-.341,3.646,3.646,0,0,0,1.061-1.162,0.688,0.688,0,0,1-.009.087h0Zm5.732-6.334a3.805,3.805,0,0,1,1.078-1.192,2.323,2.323,0,0,1,1.373-.476,1.163,1.163,0,0,1,.813.275,0.939,0.939,0,0,1,.3.729,2.8,2.8,0,0,1-.035.363q-0.035.24-.1,0.537l-1.524,7.242h1.4l1.542-7.321a5.581,5.581,0,0,0,.112-0.59,4.048,4.048,0,0,0,.035-0.52,1.671,1.671,0,0,0-.537-1.332,2.251,2.251,0,0,0-1.524-.467,3.172,3.172,0,0,0-1.424.341,4.452,4.452,0,0,0-1.3,1.013l0.242-1.144H199.2l-2.112,10.02h1.4Zm9.438-1.468h1.507l0.225-1.075h-1.507l0.572-2.665h-1.4l-0.563,2.665h-1.177l-0.226,1.075H208.1L206.715,35c-0.012.058-.032,0.151-0.061,0.28a5.3,5.3,0,0,0-.129.935,1.393,1.393,0,0,0,.463,1.131,2.072,2.072,0,0,0,1.363.389,3.853,3.853,0,0,0,.472-0.026,2.412,2.412,0,0,0,.412-0.087l0.259-1.249c-0.052.006-.138,0.017-0.259,0.035a4.8,4.8,0,0,1-.572.052,0.674,0.674,0,0,1-.506-0.166A0.718,0.718,0,0,1,208,35.775a2.029,2.029,0,0,1,.018-0.21c0.011-.1.029-0.207,0.052-0.323Z"/>
    <path class="cls-2" d="M30.291,1.921c0.05,0.051.018,0,.044,0.089H30.291V1.921ZM30.158,2.1H30.2V2.143l-0.044.089H30.114Zm-0.133.178c0.05,0.051.018,0,.044,0.089a1.567,1.567,0,0,0-.309.444l-0.088.044V2.942l-0.133.089V3.12l-0.088.044L29.407,3.3H29.362V3.386l-0.088.044V3.519l-0.088.044V3.652L29.1,3.7V3.785l-0.088.044V3.918l-0.088.044V4.052L28.832,4.1V4.185l-0.088.044V4.318l-0.088.044V4.451L28.567,4.5V4.584l-0.088.044V4.717l-0.088.044-0.044.178-0.088.044V5.072l-0.088.044V5.205L28.08,5.25l-0.044.178H27.992l-0.044.133L27.859,5.6l-0.044.178H27.771l-0.044.133-0.088.044V6.049H27.594V6.137l-0.088.044-0.044.178L27.373,6.4l-0.044.178-0.088.044L27.2,6.8l-0.088.044-0.044.178-0.088.044-0.088.266L26.8,7.38V7.469c-0.048.085-.128,0.178-0.177,0.266a3.777,3.777,0,0,1-.707-0.222,0.078,0.078,0,0,1-.044-0.044l0.177-.133V7.247l0.177-.133V7.025l0.088-.044V6.936L26.4,6.892V6.8l0.221-.178V6.537L26.8,6.4V6.315l0.177-.133V6.093l0.177-.133V5.871l0.177-.133V5.649l0.177-.133V5.427l0.177-.133V5.205l0.088-.044V5.117l0.088-.044V4.983l0.177-.133V4.762l0.088-.044V4.673l0.088-.044V4.54l0.177-.133V4.318l0.177-.133V4.1l0.177-.133V3.874l0.177-.133V3.652L29.1,3.519V3.43L29.274,3.3V3.208l0.177-.133V2.986l0.177-.133V2.765L29.8,2.631V2.543l0.133-.089V2.365A0.472,0.472,0,0,0,30.025,2.276ZM25.781,7.513a0.6,0.6,0,0,1-.177.311l-0.088.044V7.957l-0.177.133V8.179l-0.177.133V8.4l-0.177.133V8.622l-0.177.133c-0.662.922-1.417,1.739-2.078,2.663l-0.177.133V11.64l-0.177.133v0.089l-0.221.178v0.089l-0.177.133V12.35l-0.177.133v0.089l-0.221.177v0.089l-0.088.044v0.044l-0.088.044V13.06l-0.221.178v0.089l-0.088.044v0.044l-0.088.044v0.089l-0.221.177v0.089l-0.177.133v0.089l-0.177.133v0.089l-0.221.178v0.089l-0.088.044v0.044l-0.088.044v0.089l-0.221.177v0.089l-0.177.133v0.089l-0.221.178V15.5l-0.177.133v0.089l-0.088.044-0.088.133H19.017v0.089l-0.221.177v0.089l-0.177.133v0.089l-0.221.178v0.089l-0.221.177V17.01L18,17.143v0.089l-0.088.044-0.088.133H17.779V17.5l-0.221.177v0.089l-0.177.133v0.089l-0.221.177v0.089l-0.221.177v0.089l-0.177.133v0.089l-0.088.044-0.088.133H16.541v0.089l-0.221.177v0.089l-0.221.178v0.089l-0.221.177v0.089l-0.177.133v0.089l-0.221.178v0.089l-0.221.177V20.56l-0.221.178v0.089L14.817,21v0.089L14.6,21.27v0.089l-0.088.044v0.044l-0.088.044v0.089l-0.221.177v0.089l-0.221.177v0.089l-0.221.178V22.38l-0.221.177v0.089l-0.221.177v0.089l-0.221.178v0.089l-0.221.177v0.089l-0.221.177v0.089l-0.221.178v0.089l-0.221.177c-0.625.869-1.365,1.616-1.99,2.485L10,26.817v0.089l-0.265.222v0.089l-0.221.178v0.089l-0.088.044a0.612,0.612,0,0,0-.177.311,0.846,0.846,0,0,0,.4-0.178H9.733V27.616H9.865V27.572l0.177-.044V27.483l0.4-.133V27.306l0.265-.089V27.172h0.088V27.128l0.221-.044V27.039l0.265-.089V26.906h0.089V26.862h0.088V26.817H11.59V26.773l0.265-.089V26.64h0.088V26.6h0.088V26.551h0.133V26.507l0.265-.089V26.374h0.088V26.329h0.088V26.285h0.133V26.241L13,26.152V26.107h0.088V26.063h0.088V26.019h0.133V25.974H13.4V25.93l0.177-.044V25.841l0.177-.044V25.752h0.133V25.708h0.088A2.446,2.446,0,0,1,14.64,25.4a4.586,4.586,0,0,0,.044,1.065v0.8h0.044v0.488q0.022,0.488.044,0.976h0.044v0.444l0.044,0.843h0.044V30.59H14.95v0.532h0.044V31.61h0.044V32.1h0.044l0.044,0.932h0.044v0.4h0.044v0.444c0.158,0.55.109,1.273,0.265,1.819l0.133,1.331,0.707,4.083c0.233,0.726.345,1.589,0.575,2.308l0.133,0.754h0.044V44.3h0.044l0.044,0.4H17.2v0.177h0.044v0.133h0.044V45.19h0.044v0.178h0.044v0.178h0.044l0.044,0.311h0.044l0.044,0.355a2.808,2.808,0,0,1,.221.8H17.735l-1.9-.444-1.813-.621V45.9H13.933V45.856H13.8V45.811H13.712V45.767H13.579V45.722L13.4,45.678V45.634H13.314V45.589H13.181V45.545H13.093V45.5H13V45.456l-0.265-.089V45.323l-0.4-.133L12.3,45.1H12.209V45.057H12.12V45.012H12.032V44.968H11.943V44.924H11.855V44.879l-0.177-.044-0.044-.089-0.265-.089-0.044-.089-0.177-.044L11.1,44.435l-0.177-.044L10.882,44.3H10.794l-0.044-.089H10.661l-0.044-.089L10.44,44.08l-0.088-.133H10.263l-0.044-.089H10.131V43.814L10,43.77l-0.044-.089H9.865l-0.088-.133H9.689l-0.044-.089H9.556L9.512,43.37l-0.133-.044-0.133-.177H9.158L9.07,43.015H8.981l-0.133-.178H8.76L8.672,42.7l-0.133-.089V42.572H8.451L8.23,42.305H8.141L7.522,41.64H7.434L7.3,41.462l-0.088-.044V41.329L6.638,40.8V40.752L6.55,40.708V40.619L6.24,40.353V40.264l-0.221-.178V40l-0.177-.133V39.776l-0.088-.044V39.687l-0.088-.044V39.554l-0.133-.089V39.376L5.4,39.288V39.2L5.268,39.11V39.021l-0.088-.044V38.888L5.046,38.8V38.711l-0.088-.044-0.044-.133H4.87V38.444L4.781,38.4V38.311l-0.088-.044V38.178L4.6,38.134,4.56,37.956H4.516l-0.044-.133-0.088-.044L4.339,37.6l-0.088-.044-0.044-.178-0.088-.044V37.246H4.074V37.157H4.03V37.069H3.985V36.98L3.9,36.936V36.847H3.853V36.758H3.809V36.669H3.764V36.581H3.72V36.492H3.676V36.4H3.632l-0.044-.178H3.543V36.137H3.5V36.048H3.455V35.959H3.411V35.871H3.366l-0.044-.178H3.278V35.6H3.234V35.471H3.19V35.382H3.145L3.1,35.2H3.057V35.072H3.013V34.983H2.969V34.85H2.924V34.761H2.88l-0.044-.222H2.792V34.406H2.748V34.317H2.7V34.184H2.659V34.051H2.615V33.918H2.571V33.785H2.526V33.7H2.482V33.518H2.438V33.43H2.394V33.252H2.35V33.119H2.305V32.986H2.261l-0.044-.311H2.173V32.5H2.129l-0.044-.355H2.04V32.01H2V31.788c-0.1-.314-0.168-0.742-0.265-1.065V30.456H1.686V30.146H1.642V29.88H1.6v-0.4H1.554V29.036H1.51V28.415a7.575,7.575,0,0,1-.044-1.686,3.99,3.99,0,0,1,.044-0.887V25.22l0.309-2.13H1.863l0.044-.4H1.952L2,22.291H2.04V22.158H2.084V21.98H2.129l0.044-.355L2.88,19.539H2.924V19.451H2.969V19.318H3.013V19.229H3.057V19.1H3.1l0.044-.178H3.19V18.829H3.234V18.7H3.278V18.608H3.322l0.044-.178H3.411l0.044-.177H3.5l0.044-.178H3.588V17.986H3.632V17.9H3.676V17.809H3.72V17.72H3.764V17.631H3.809V17.542H3.853V17.454H3.9V17.365H3.941V17.276l0.088-.044,0.088-.266,0.088-.044,0.044-.177L4.339,16.7l0.044-.178,0.088-.044L4.516,16.3,4.6,16.255V16.167l0.088-.044V16.034l0.088-.044V15.9H4.825l0.044-.133,0.088-.044V15.634l0.088-.044V15.5l0.133-.089V15.324l0.088-.044V15.19L5.4,15.1V15.013l0.133-.089V14.835l0.133-.089V14.658l0.177-.133V14.436L6.019,14.3V14.214l0.221-.178V13.948l0.309-.266,0.044-.133,0.575-.533V12.927l0.088-.044,0.265-.311H7.611L8.141,12H8.23l0.265-.311H8.583L8.628,11.6H8.672l0.088-.133H8.849l0.133-.178H9.07L9.2,11.108H9.291l0.088-.133H9.468l0.088-.133H9.644l0.088-.133H9.821V10.664l0.133-.044L10,10.531h0.088l0.088-.133h0.088l0.044-.089H10.4l0.044-.089,0.133-.044V10.131l0.177-.044V10.043L10.882,10l0.044-.089L11.1,9.865l0.044-.089,0.177-.044,0.044-.089,0.265-.089,0.044-.089h0.088V9.421h0.088V9.377h0.088V9.333h0.088l0.044-.089h0.088V9.2h0.088V9.155h0.088V9.111H12.43V9.066h0.088V9.022h0.088V8.977l0.265-.089V8.844H13V8.8h0.088V8.756l0.265-.089V8.622h0.133V8.578h0.088V8.534l0.177-.044V8.445L14.021,8.4V8.356L14.2,8.312V8.267l0.4-.089V8.134h0.088V8.09l0.221-.044V8l0.442-.089a16.4,16.4,0,0,1,5.217-.932H20.7V6.936a4.616,4.616,0,0,1,1.149.044H22.6V7.025h0.486V7.069h0.442V7.114H23.88V7.158H24.19c0.2,0.06.509,0.117,0.707,0.178h0.265A5.951,5.951,0,0,0,25.781,7.513Zm0.84,0.222a2.3,2.3,0,0,1,.486.178L27.55,8V8.046h0.088V8.09h0.133V8.134h0.088V8.179l0.265,0.044V8.267h0.133V8.312l0.177,0.044V8.4h0.133V8.445h0.088V8.489h0.133V8.534h0.088V8.578L29.1,8.622V8.667l0.265,0.089V8.8h0.088V8.844h0.133V8.889h0.088l0.044,0.089H29.8V9.022h0.133V9.066h0.088V9.111h0.088L30.158,9.2h0.088V9.244h0.088V9.288h0.088V9.333h0.088V9.377l0.177,0.044L30.733,9.51,31,9.6l0.044,0.089,0.177,0.044,0.044,0.089L31.44,9.865l0.044,0.089L31.661,10l0.044,0.089h0.088v0.044l0.133,0.044,0.044,0.089h0.088L32.1,10.353h0.088V10.4l0.133,0.044,0.044,0.089h0.088l0.088,0.133h0.088l0.044,0.089h0.089l0.088,0.133h0.088l0.088,0.133H33.12l0.088,0.133H33.3L33.43,11.33h0.088l0.088,0.133,0.133,0.044,0.221,0.266h0.088l0.265,0.311H34.4l0.663,0.71,0.752,0.71v0.089L36.171,13.9v0.089l0.221,0.178v0.089l0.177,0.133V14.48l0.177,0.133V14.7l0.133,0.089V14.88l0.133,0.089v0.089l0.133,0.089v0.089l0.133,0.089v0.089l0.089,0.044,0.044,0.133h0.044v0.089l0.088,0.044v0.089L37.674,15.9l0.044,0.178,0.088,0.044v0.089l0.088,0.044v0.089l0.088,0.044,0.044,0.177,0.088,0.044,0.044,0.178,0.088,0.044L38.337,17.1l0.088,0.044v0.089H38.47v0.089h0.044v0.089h0.044V17.5l0.088,0.044v0.089h0.044V17.72h0.044v0.089h0.044V17.9h0.044v0.089h0.044v0.089h0.044v0.089h0.044v0.089H39v0.089h0.044l0.088,0.266h0.044l0.044,0.222h0.044l0.044,0.178h0.044V19.14H39.4v0.089h0.044v0.133h0.044l0.044,0.178h0.044l0.044,0.266h0.044v0.089h0.044l0.044,0.222H39.8l0.088,0.4h0.044v0.133h0.044v0.133h0.044v0.133h0.044v0.133h0.044v0.133H40.15l0.044,0.311h0.044l0.089,0.488h0.044v0.177h0.044v0.178h0.044v0.177H40.5v0.222h0.044v0.222h0.044v0.178h0.044v0.222H40.68v0.266h0.044v0.311h0.044V24.2h0.044V24.51h0.044v0.4H40.9q0.044,0.865.088,1.731a7.22,7.22,0,0,1-.044,1.642v0.71H40.9v0.4H40.857v0.4H40.813V30.1c-0.073.248-.1,0.6-0.177,0.843v0.222H40.592l-0.044.4H40.5v0.178H40.459l-0.044.4H40.371V32.32H40.327v0.133H40.282v0.177H40.238v0.178H40.194l-0.044.311H40.105v0.133H40.061v0.133H40.017v0.133H39.973v0.133H39.929l-0.088.4H39.8V34.14H39.752l-0.044.266H39.663v0.089H39.619v0.133H39.575v0.133H39.531l-0.044.177H39.442v0.133H39.4V35.16H39.354v0.133H39.31l-0.044.178H39.221V35.56H39.177v0.089H39.133v0.133H39.089L39,36.048H38.956v0.089H38.912v0.089H38.868v0.089H38.823V36.4H38.779v0.089H38.735v0.089H38.691v0.089H38.647v0.089l-0.088.044v0.089H38.514V36.98H38.47v0.089H38.425v0.089l-0.088.044-0.088.266-0.088.044-0.044.178-0.088.044v0.089H37.983v0.089l-0.088.044v0.089H37.851l-0.044.133-0.088.044v0.089l-0.088.044v0.089l-0.088.044v0.089l-0.088.044v0.089H37.409l-0.044.133-0.089.044v0.089l-0.133.089v0.089l-0.133.089v0.089l-0.133.089v0.089l-0.133.089v0.089l-0.088.044v0.044l-0.088.044v0.089l-0.177.133v0.089l-0.265.222a10.467,10.467,0,0,1-1.194,1.287l-0.531.577H34.314l-0.265.311H33.96l-0.221.266H33.651l-0.133.178H33.43l-0.133.178H33.209l-0.088.133H33.032l-0.088.133H32.855l-0.088.133H32.678l-0.044.089H32.545l-0.088.133H32.369l-0.044.089-0.133.044v0.044H32.1l-0.044.089H31.971l-0.044.089H31.838l-0.044.089H31.705l-0.044.089H31.573v0.044H31.484l-0.044.089-0.177.044-0.044.089H31.131v0.044H31.042L31,44.7l-0.265.089-0.044.089H30.6v0.044H30.512v0.044H30.423v0.044H30.335v0.044H30.247V45.1H30.158v0.044H30.07V45.19l-0.177.044v0.044H29.8v0.044H29.716v0.044H29.628v0.044H29.539v0.044l-0.177.044v0.044H29.274v0.044H29.141v0.044H29.053v0.044l-0.177.044v0.044H28.743v0.044H28.655v0.044H28.522V45.9H28.434v0.044H28.3v0.044H28.213v0.044l-0.265.044v0.044H27.859v0.044l-0.4.089V46.3H27.329v0.044H27.2v0.044H27.063v0.044l-0.442.089v0.044l-0.486.089V46.7H25.958v0.044H25.781v0.044H25.56v0.044H25.383v0.044H25.162v0.044H24.941v0.044l-1.813.266H22.554v0.044h-2.3a1.332,1.332,0,0,1,0-.533H20.3V46.432h0.044V46.166h0.044V45.9h0.044V45.589c0.088-.292.133-0.688,0.221-0.976V44.347H20.7V44.125h0.044V43.947h0.044V43.681H20.83l0.044-.4h0.044V43.06h0.044V42.882h0.044V42.7h0.044V42.483h0.044l0.088-.577h0.044V41.773h0.044V41.551h0.044V41.418H21.36V41.24H21.4V41.063h0.044V40.885h0.044V40.708h0.044l0.044-.355h0.044V40.22H21.67V40.086h0.044l0.044-.355H21.8V39.6h0.044V39.465h0.044l0.044-.311h0.044V38.977h0.044l0.133-.577H22.2V38.267h0.044V38.134h0.044V38h0.044V37.868h0.044l0.088-.444H22.51V37.291h0.044V37.157H22.6V37.024h0.044V36.891h0.044V36.758h0.044V36.669h0.044V36.492h0.044V36.4h0.044V36.27h0.044V36.137h0.044V36H23l0.044-.266h0.044V35.649h0.044l0.088-.4h0.044V35.16h0.044V35.027H23.35V34.939h0.044l0.088-.4h0.044V34.45h0.044V34.317h0.044V34.229h0.044l0.044-.266h0.044V33.874h0.044V33.74h0.044V33.652H23.88l0.044-.222h0.044V33.3h0.044l0.044-.222H24.1V32.986h0.044V32.853H24.19l0.044-.178h0.044V32.542h0.044V32.453h0.044V32.32h0.044l0.044-.178H24.5V32.01h0.044V31.921h0.044l0.044-.177h0.044l0.044-.222h0.044V31.388h0.044l0.044-.178H24.9V31.122h0.044V30.989h0.044V30.9H25.03l0.088-.266h0.044V30.5h0.044V30.412h0.044V30.323h0.044V30.235h0.044l0.088-.266h0.044V29.835h0.044l0.044-.178H25.6l0.088-.266h0.044l0.044-.178h0.044l0.044-.177h0.044V28.948h0.044V28.859H26V28.77h0.044V28.681h0.044l0.088-.266h0.044l0.088-.266h0.044l0.044-.178h0.044l0.044-.177h0.044V27.7h0.044V27.616h0.044V27.527h0.044V27.439H26.71V27.35h0.044V27.261H26.8V27.172h0.044V27.084l0.088-.044,0.088-.266h0.044V26.684h0.044V26.6l0.088-.044V26.462H27.24V26.374h0.044V26.285h0.044V26.2h0.044V26.107l0.088-.044L27.55,25.8l0.088-.044V25.664h0.044V25.575h0.044V25.486h0.044V25.4l0.088-.044,0.088-.266,0.088-.044,0.044-.178,0.088-.044,0.044-.177L28.3,24.6l0.044-.178,0.088-.044,0.088-.266h0.044l0.044-.133,0.088-.044,0.044-.178,0.088-.044,0.044-.177H28.92l0.044-.133,0.088-.044,0.044-.177,0.088-.044V23.045L29.274,23V22.912l0.088-.044,0.044-.177,0.088-.044V22.557l0.088-.044V22.424h0.044l0.044-.133,0.088-.044V22.158l0.088-.044V22.025l0.088-.044V21.891l0.088-.044V21.758l0.088-.044V21.625h0.044l0.044-.133,0.088-.044V21.359l0.133-.089V21.181h0.044l0.044-.133L30.6,21V20.915l0.133-.089V20.738l0.088-.044V20.6l0.133-.089V20.427l0.088-.044V20.294l0.133-.089V20.116l0.133-.089V19.939l0.133-.089V19.761l0.133-.089V19.584l0.177-.133V19.362l0.088-.044V19.273l0.088-.044V19.14h0.044a0.358,0.358,0,0,0,.088-0.178H31.927a0.968,0.968,0,0,1-.354.266l-0.088.133H31.4l-0.044.089-0.133.044-0.133.177H31l-0.088.133H30.821l-0.088.133H30.644l-0.088.133H30.468l-0.088.133H30.291l-0.088.133H30.114l-0.088.133H29.937l-0.088.133H29.76l-0.133.177H29.539l-0.088.133-0.133.044-0.044.089H29.185l-0.088.133H29.009l-0.088.133H28.832l-0.088.133H28.655l-0.088.133H28.478l-0.044.089-0.133.044-0.133.178H28.08l-0.088.133-0.133.044-0.044.089H27.727l-0.088.133H27.55l-0.088.133H27.373l-0.088.133H27.2l-0.088.133H27.019l-0.088.133H26.842L26.71,23H26.621l-0.088.133-0.133.044-0.044.089H26.268l-0.088.133H26.091L26,23.533H25.914l-0.088.133H25.737l-0.088.133H25.56l-0.088.133H25.383l-0.133.177H25.162l-0.088.133H24.985l-0.088.133H24.809l-0.088.133H24.632l-0.088.133H24.455l-0.088.133H24.278l-0.088.133H24.1l-0.088.133H23.924l-0.133.177H23.7l-0.088.133-0.133.044-0.044.089H23.35l-0.088.133H23.173l-0.088.133H23l-0.088.133H22.819l-0.088.133H22.642l-0.088.133H22.465l-0.044.089-0.133.044-0.133.178H22.068l-0.088.133-0.133.044-0.044.089H21.714l-0.088.133H21.537l-0.088.133H21.36l-0.088.133H21.183l-0.088.133H21.007l-0.088.133H20.83l-0.133.177H20.609L20.52,27.7H20.432l-0.088.133H20.255l-0.044.089-0.177.089V27.794a1.53,1.53,0,0,0,.044-0.444c0.083-.283.094-0.689,0.177-0.976V26.063c0.094-.317.126-0.748,0.221-1.065V24.732c0.227-.741.3-1.631,0.531-2.352V22.158h0.044V21.98h0.044V21.8h0.044V21.625h0.044V21.4c0.245-.717.411-1.558,0.663-2.263V18.963h0.044V18.829h0.044V18.652h0.044V18.519h0.044V18.386h0.044V18.253h0.044V18.119h0.044V17.942H22.2l0.044-.266h0.044V17.542h0.044V17.409h0.044V17.276h0.044V17.143h0.044V17.01H22.51V16.877h0.044V16.744H22.6V16.611h0.044V16.477h0.044V16.344h0.044V16.255h0.044V16.122h0.044V15.989h0.044V15.856h0.044V15.723h0.044V15.634H23l0.044-.266h0.044V15.279h0.044l0.044-.266h0.044l0.044-.222h0.044V14.7H23.35V14.569h0.044V14.48h0.044l0.044-.266h0.044l0.044-.178h0.044V13.9h0.044V13.815H23.7V13.682h0.044l0.044-.178h0.044V13.371H23.88l0.044-.178h0.044V13.06h0.044l0.044-.178H24.1V12.75h0.044V12.661H24.19l0.044-.178h0.044V12.35h0.044V12.261h0.044L24.455,12H24.5V11.862h0.044l0.044-.178h0.044V11.6h0.044V11.507H24.72V11.418h0.044l0.088-.266H24.9V11.019h0.044V10.93h0.044l0.044-.178h0.044V10.664h0.044V10.575h0.044V10.486h0.044V10.4h0.044V10.309h0.044V10.22h0.044V10.131h0.044V10.043h0.044V9.954h0.044V9.865h0.044V9.776L25.6,9.732V9.643h0.044V9.554h0.044V9.466h0.044V9.377h0.044V9.288h0.044V9.2H25.87V9.111h0.044V9.022L26,8.977V8.889h0.044V8.8h0.044V8.711h0.044V8.622h0.044V8.534l0.088-.044V8.4h0.044V8.312h0.044V8.223H26.4V8.134l0.089-.044V8h0.044ZM17.868,47.054a3.465,3.465,0,0,1,.619.133l1.68,0.133-0.088.976H20.034q-0.022.51-.044,1.021H19.945q-0.022.8-.044,1.6a4.925,4.925,0,0,0,0,1.242v1.109h0.044v0.044a0.66,0.66,0,0,1-.044.4,1.638,1.638,0,0,0-.177-0.533l-0.088-.4H19.592V52.645H19.548V52.512H19.5V52.379H19.459V52.246H19.415V52.157H19.371l-0.088-.444H19.238V51.58H19.194V51.447H19.15V51.314H19.105V51.181H19.061V51.048H19.017V50.915H18.973V50.737H18.929V50.6H18.884V50.471H18.84V50.338H18.8V50.2H18.752l-0.177-.754H18.531V49.317H18.487V49.184H18.442l-0.088-.444H18.31L18.221,48.3H18.177V48.119H18.133V47.986H18.089V47.808A3.226,3.226,0,0,1,17.868,47.054Zm2.078,6.657c0.05,0.05.018,0,.044,0.089H19.945V53.71Z"/>
    <path class="cls-3" d="M54.607,14.658a3.734,3.734,0,0,1-.133,1.021v0.311c-0.089.306-.114,0.738-0.177,1.065a2.318,2.318,0,0,1-.575-0.133H53.457a2.762,2.762,0,0,0-1.282.044H52A2.338,2.338,0,0,0,50.672,18.3l-0.177.755v0.355a5.786,5.786,0,0,0-.044,1.287v2.485h3.227v2.308H50.451v11.76H47.665V25.486H44.88V23.178h2.785V20.56a6.389,6.389,0,0,1,.088-1.553V18.7H47.8V18.474h0.044V18.253h0.044V18.075h0.044l0.044-.355a4.64,4.64,0,0,1,3.316-3.106h0.221a7.144,7.144,0,0,1,1.945-.133C53.873,14.485,54.24,14.622,54.607,14.658ZM57.524,16.3l0.8,0.044v0.044h0.133v0.044h0.088v0.044h0.133l0.044,0.089,0.177,0.044,0.133,0.178h0.088l0.044,0.089H59.2v0.089L59.381,17.1v0.089h0.044l0.088,0.266h0.044v0.133a1.591,1.591,0,0,1,.088.843H59.6l-0.044.355H59.514l-0.088.266-0.088.044v0.089l-0.221.177-0.088.133H58.939l-0.088.133-0.265.089v0.044H58.453v0.044H58.32V19.85H58.1v0.044a1.5,1.5,0,0,1-.8-0.089H57.127V19.761l-0.177-.044V19.673H56.861l-0.044-.089H56.729l-0.088-.133H56.552l-0.133-.178H56.375V19.184L56.242,19.1V19.007H56.2l-0.088-.266H56.065a2.8,2.8,0,0,1-.088-0.843h0.044V17.631h0.044V17.5H56.11V17.365h0.044V17.276H56.2V17.187l0.088-.044V17.054l0.133-.089V16.877h0.044l0.088-.133H56.64l0.088-.133h0.088l0.044-.089,0.177-.044V16.433h0.133V16.389H57.3V16.344h0.221V16.3Zm5.438,2.84H65.7v4.038h5.659V19.14H74.1v4.038h3.714v2.308H74.1v6.08c0,1.148-.076,2.3.4,2.973a2.235,2.235,0,0,0,2.122.533h0.265a6.884,6.884,0,0,0,.8-0.266c0.064,0.734.086,1.515,0.088,2.308l-0.752.222H76.8v0.044H76.535v0.044h-0.4v0.044H75.474A4.345,4.345,0,0,1,73.75,37.2H73.617V37.157H73.484V37.113l-0.265-.089V36.98l-0.177-.044L73,36.847H72.91l-0.044-.089H72.777l-0.133-.178H72.556l-0.177-.222-0.088-.044V36.226l-0.177-.133V36l-0.088-.044V35.871l-0.088-.044V35.737H71.893V35.649H71.849V35.56H71.8V35.471H71.76V35.382H71.716l-0.044-.266H71.628V34.983H71.583V34.85H71.539l-0.044-.355H71.451V34.229a10.8,10.8,0,0,1-.088-2.53V25.486H65.7v6.035a5.631,5.631,0,0,0,.442,3.062l0.177,0.133v0.044h0.088l0.044,0.089,0.133,0.044v0.044H66.72v0.044h0.088v0.044h0.133v0.044a5.433,5.433,0,0,0,1.282.044V35.072h0.309l0.8-.266v1.021h0.044v0.355c0,0.312.024,0.637,0.044,0.888l-0.133.044v0.044l-0.309.044v0.044H68.8v0.044H68.621v0.044H68.4A5.656,5.656,0,0,1,65.35,37.2l-0.265-.044V37.113l-0.177-.044V37.024l-0.177-.044-0.044-.089-0.177-.044-0.088-.133H64.333l-0.177-.222-0.4-.355V36.048L63.67,36l-0.044-.133H63.581l-0.044-.178H63.493V35.6H63.449l-0.088-.266H63.316V35.2H63.272V35.116H63.228l-0.044-.311a10.656,10.656,0,0,1-.221-3.018v-6.3h-2.7V23.178h2.7V19.14ZM92.849,31.033H81.708L81.84,32.01h0.044l0.044,0.311h0.044v0.089h0.044v0.133h0.044l0.088,0.266h0.044V32.9h0.044l0.044,0.178,0.088,0.044L82.415,33.3l0.133,0.089v0.089l0.133,0.089v0.089l0.265,0.222,0.309,0.355a6.517,6.517,0,0,0,1.68.888h0.177a4.575,4.575,0,0,0,2.741-.089l0.265-.044V34.939l0.177-.044V34.85l0.221-.044,0.044-.089,0.265-.089,0.044-.089h0.088L89,34.45h0.088l0.088-.133h0.088L89.4,34.14h0.088l0.177-.222a3.4,3.4,0,0,0,.663-0.754L90.55,33.3l0.044,0.089h0.088l0.133,0.178H90.9l0.133,0.177h0.088l0.133,0.178h0.088L91.478,34.1h0.088L91.7,34.273h0.088l0.044,0.089h0.044L91.92,34.45h0.088a0.565,0.565,0,0,0,.265.222,1.364,1.364,0,0,1-.442.577v0.044l-0.088.044v0.089l-0.088.044-0.221.266H91.345l-0.265.311H90.992l-0.133.177H90.771l-0.044.089H90.638l-0.088.133H90.461l-0.044.089-0.177.044-0.044.089-0.265.089V36.8H89.842v0.044H89.754v0.044l-0.265.089v0.044H89.356v0.044H89.268v0.044l-1.415.4-0.619.044V37.6l-1.326.044V37.6H85.289V37.557H84.979V37.512l-0.707-.089-1.194-.4V36.98L82.9,36.936V36.891H82.769V36.847H82.68V36.8H82.592l-0.044-.089H82.459V36.669H82.371V36.625H82.282V36.581H82.194l-0.044-.089H82.061L82.017,36.4H81.929l-0.044-.089H81.8l-0.044-.089H81.663l-0.133-.177H81.442l-0.177-.222H81.177l-0.309-.355-0.177-.133V35.249l-0.265-.222V34.939l-0.133-.089V34.761L80.2,34.717l-0.044-.133H80.116V34.495l-0.088-.044-0.044-.133H79.939l-0.044-.178L79.807,34.1l-0.088-.266H79.674V33.74H79.63l-0.088-.266H79.5V33.341H79.453V33.252H79.409V33.119H79.364V33.03H79.32l-0.088-.4H79.188V32.453H79.143V32.276H79.1V32.1H79.055V31.921H79.011V31.655H78.967V31.344H78.922V30.856H78.878a4.9,4.9,0,0,1,.044-1.243V29.169l0.265-1.331a6.832,6.832,0,0,1,2.255-3.373l0.133-.178,0.133-.044,0.044-.089H81.84l0.044-.089,0.133-.044V23.977h0.088l0.044-.089,0.177-.044,0.044-.089,0.265-.089V23.622h0.088V23.578h0.088V23.533l0.265-.089V23.4h0.133V23.356l0.177-.044V23.267l0.265-.044V23.178h0.133V23.134h0.133V23.09l0.309-.044V23h0.221V22.957H84.67V22.912h0.265V22.868h0.309V22.823h0.619a1.037,1.037,0,0,1,.442-0.044v0.044h0.752v0.044h0.354v0.044h0.221v0.044h0.221V23l0.4,0.044V23.09h0.133v0.044h0.133v0.044h0.133v0.044h0.133v0.044h0.133v0.044H89v0.044L89.223,23.4v0.044L89.4,23.489v0.044l0.265,0.089,0.044,0.089,0.177,0.044V23.8l0.133,0.044,0.044,0.089h0.088L90.2,24.022h0.088l0.088,0.133h0.088l0.221,0.266h0.088l0.221,0.266,0.088,0.044V24.82l0.265,0.222,0.044,0.133,0.088,0.044v0.089L91.611,25.4v0.089L91.7,25.53v0.089l0.088,0.044,0.088,0.266,0.088,0.044,0.044,0.178h0.044l0.088,0.266h0.044v0.133H92.23l0.044,0.177h0.044l0.044,0.266h0.044v0.089h0.044l0.044,0.311A9.883,9.883,0,0,1,92.849,31.033Zm11.1-8.121-0.132,2.574a3.858,3.858,0,0,1-.752-0.133,3.138,3.138,0,0,0-1.017.044l-0.53.044v0.044l-0.442.089v0.044l-0.266.089v0.044h-0.088V25.8H100.63v0.044l-0.177.044c-0.015.03-.03,0.059-0.044,0.089H100.32l-0.088.133a4.108,4.108,0,0,0-1.5,2.441l-0.088.8v0.4a7.918,7.918,0,0,0-.044,1.775v5.725H95.855V26.107a6.641,6.641,0,0,1-.044-1.464l-0.088-1.465h2.608a1.735,1.735,0,0,1,.044.532,1.4,1.4,0,0,1,.044.621V24.51h0.044v1.065h0.088a4.081,4.081,0,0,1,1.326-1.686l0.133-.178H100.1c0.015-.03.03-0.059,0.044-0.089l0.133-.044V23.533h0.088l0.045-.089,0.176-.044,0.045-.089h0.088V23.267h0.088V23.223h0.133V23.178l0.177-.044V23.09l0.265-.044V23h0.133V22.957h0.177V22.912h0.221V22.868h0.221V22.823h0.53V22.779h0.31v0.044h0.619A1.915,1.915,0,0,0,103.945,22.912Zm-47.526.266H59.2V37.246H56.419V23.178Zm25.288,5.769h8.356V28.9a1.629,1.629,0,0,1-.044-0.488H89.975V28.149H89.931V27.927H89.887V27.749H89.842V27.572H89.8l-0.044-.266H89.71l-0.044-.177H89.621V26.995H89.577V26.906H89.533V26.817l-0.088-.044L89.4,26.6l-0.088-.044V26.462l-0.133-.089V26.285l-0.309-.266-0.133-.177H88.649l-0.133-.178H88.428l-0.044-.089-0.177-.044V25.486H88.118V25.442H88.03V25.4l-0.265-.089V25.264l-0.4-.089V25.131H87.19a4.148,4.148,0,0,0-2.255.044H84.758V25.22l-0.265.044v0.044H84.4v0.044H84.272V25.4l-0.265.089V25.53l-0.177.044-0.044.089H83.7l-0.044.089H83.564l-0.044.089H83.432l-0.088.133H83.255l-0.354.4-0.221.178V26.64l-0.177.133v0.089l-0.088.044-0.044.133H82.327l-0.044.177-0.088.044V27.35H82.15l-0.044.177H82.061v0.133H82.017v0.089H81.973v0.133H81.929A5.773,5.773,0,0,0,81.708,28.948Z"/>
    <path class="cls-2" d="M113.716,14.347l-0.309,2.4a2.183,2.183,0,0,1-.575-0.133h-0.31V16.566a4.662,4.662,0,0,0-1.414.089V16.7h-0.133v0.044h-0.088v0.044l-0.266.089c-0.014.03-.029,0.059-0.044,0.089h-0.088l-0.266.311-0.132.089v0.089L110,17.5v0.089h-0.044v0.089h-0.044v0.089H109.87v0.089h-0.045v0.089h-0.044v0.133h-0.044v0.133h-0.044v0.177h-0.044v0.266H109.6v0.311H109.56v0.621a5.248,5.248,0,0,0-.044,1.154v2.13h3.272v2.308h-3.272v11.76h-2.785V25.175H103.99V22.868h2.741V20.826a5.025,5.025,0,0,1,.044-1.11V18.963h0.044V18.608h0.044V18.3h0.045V18.075h0.044V17.853H107V17.676h0.044V17.542h0.044V17.365a4.534,4.534,0,0,1,1.548-2.174l0.088-.133h0.089c0.014-.03.029-0.059,0.044-0.089l0.132-.044V14.88l0.266-.089c0.014-.03.029-0.059,0.044-0.089h0.133V14.658h0.088V14.614l0.177-.044V14.525h0.132V14.48h0.089V14.436l0.309-.044V14.347H110.4V14.3h0.177V14.258h0.265a6.863,6.863,0,0,1,1.725-.089C112.987,14.175,113.337,14.31,113.716,14.347Zm1.813,0.177h2.785V36.936h-2.785V14.525Zm15.96,8.343h2.962c-0.044.148-.089,0.3-0.133,0.444h-0.044V23.4H134.23v0.133h-0.045v0.089h-0.044c-0.014.089-.029,0.178-0.044,0.266h-0.044v0.089h-0.044V24.11h-0.045V24.2H133.92c-0.015.074-.029,0.148-0.044,0.222h-0.044v0.133h-0.044v0.089h-0.045v0.133H133.7v0.089h-0.044c-0.015.089-.03,0.178-0.044,0.266h-0.044V25.22h-0.045v0.133h-0.044v0.089h-0.044c-0.015.074-.03,0.148-0.044,0.222h-0.045V25.8H133.3v0.089h-0.044c-0.015.089-.029,0.178-0.044,0.266h-0.044v0.089h-0.045v0.133H133.08v0.089h-0.044V26.6h-0.044v0.089h-0.044l-0.045.222h-0.044v0.133h-0.044v0.089h-0.044c-0.015.089-.03,0.177-0.044,0.266h-0.045v0.089h-0.044v0.133h-0.044V27.7H132.55v0.133h-0.045v0.089h-0.044V28.06h-0.044v0.089h-0.044c-0.015.074-.03,0.148-0.044,0.222h-0.045c-0.014.089-.029,0.178-0.044,0.266H132.2v0.089h-0.044v0.133h-0.044v0.089h-0.045c-0.014.074-.029,0.148-0.044,0.222h-0.044V29.3h-0.044v0.089h-0.044l-0.045.266c-0.813,1.859-1.488,3.865-2.3,5.725-0.014.089-.029,0.178-0.044,0.266h-0.044v0.089h-0.044v0.133h-0.044v0.089h-0.045v0.133h-0.044v0.089h-0.044c-0.015.074-.03,0.148-0.044,0.222h-0.045v0.133H129.1v0.089h-0.044c-0.015.089-.029,0.178-0.044,0.266h-0.044V36.98h-0.045v0.133H128.88V37.2h-0.044v0.133h-0.044v0.089h-0.044v0.133H128.7v0.089h-0.044c-0.015.089-.029,0.177-0.044,0.266h-0.044V38h-0.044v0.133h-0.045v0.089h-0.044v0.133h-0.044v0.089H128.35l-0.045.222h-0.044V38.8h-0.044v0.089h-0.044c-0.015.089-.03,0.178-0.044,0.266h-0.045v0.089H128.04v0.133H128v0.089h-0.044V39.6h-0.044v0.089h-0.045V39.82h-0.044v0.089h-0.044v0.133h-0.044v0.089h-0.044v0.133h-0.045c-0.014.074-.029,0.148-0.044,0.222h-0.044v0.089H127.51v0.133h-0.045c-0.029.089-.058,0.177-0.088,0.266h-0.044v0.089h-0.044v0.089h-0.045V41.24H127.2v0.089h-0.044v0.089h-0.044v0.089h-0.044V41.6h-0.045v0.089l-0.088.044c-0.015.059-.03,0.118-0.044,0.178h-0.044l-0.045.133-0.088.044v0.089l-0.089.044v0.089l-0.176.133v0.089l-0.4.355-0.177.222h-0.089l-0.088.133h-0.088l-0.089.133-0.177.044a4.193,4.193,0,0,1-2.387.621h-0.928l-1.017-.178a3.144,3.144,0,0,1,.088-0.843v-0.4h0.044v-0.4h0.045v-0.4h0.044c0.043-.151,0-0.336.044-0.444,0.232,0.092.542,0.149,0.8,0.222a4.145,4.145,0,0,0,1.105-.044H123.4V41.507l0.265-.044V41.418l0.177-.044V41.329h0.089c0.014-.029.029-0.059,0.044-0.089h0.088c0.015-.03.03-0.059,0.044-0.089l0.266-.222V40.841l0.132-.089V40.663l0.089-.044c0.015-.044.029-0.089,0.044-0.133h0.044c0.015-.059.03-0.118,0.044-0.178l0.089-.044c0.015-.059.029-0.118,0.044-0.178H124.9V40h0.044c0.03-.089.059-0.178,0.089-0.266h0.044V39.6h0.044l0.045-.178h0.044V39.288h0.044V39.2H125.3c0.015-.089.03-0.178,0.044-0.266h0.045V38.844h0.044c0.015-.089.029-0.178,0.044-0.266h0.044V38.489h0.044l0.045-.222h0.044c0.015-.089.029-0.178,0.044-0.266h0.044V37.912h0.044l0.045-.266h0.044V37.557h0.044V37.424h0.044V37.335h0.045V37.2h0.044V37.069H126.1c0.015-.059.029-0.118,0.044-0.178H126.1l-0.177-.488h-0.044V36.27H125.83l-0.045-.178h-0.044V35.959H125.7c-0.015-.059-0.029-0.118-0.044-0.178h-0.044V35.649h-0.045c-0.014-.059-0.029-0.118-0.044-0.178h-0.044V35.338h-0.044c-0.015-.059-0.03-0.118-0.044-0.177h-0.045V35.027H125.3c-0.015-.059-0.029-0.118-0.044-0.177h-0.044V34.717h-0.044l-0.045-.178h-0.044V34.406h-0.044c-0.015-.059-0.03-0.118-0.044-0.178h-0.045V34.1H124.9c-0.014-.059-0.029-0.118-0.044-0.178h-0.044V33.785h-0.044l-0.045-.178H124.68V33.474h-0.044c-0.015-.059-0.029-0.118-0.044-0.178h-0.044V33.163H124.5c-0.014-.059-0.029-0.118-0.044-0.178h-0.044V32.853h-0.044c-0.015-.059-0.03-0.118-0.044-0.178h-0.045V32.542h-0.044c-0.015-.059-0.029-0.118-0.044-0.177H124.15V32.231h-0.045c-0.014-.059-0.029-0.118-0.044-0.177h-0.044V31.921h-0.044c-0.015-.059-0.03-0.118-0.044-0.177h-0.045V31.61H123.84c-0.015-.059-0.029-0.118-0.044-0.177h-0.044V31.3h-0.044l-0.045-.177h-0.044V30.989h-0.044c-0.015-.059-0.03-0.118-0.044-0.178h-0.044V30.678h-0.045c-0.014-.059-0.029-0.118-0.044-0.178h-0.044V30.368H123.31l-0.045-.177h-0.044V30.057h-0.044V29.968h-0.044V29.835h-0.044l-0.045-.178H123V29.524h-0.044c-0.015-.059-0.029-0.118-0.044-0.177h-0.044V29.214h-0.045c-0.014-.059-0.029-0.118-0.044-0.177h-0.044V28.9h-0.044c-0.015-.059-0.03-0.118-0.044-0.177H122.6V28.593h-0.044c-0.015-.059-0.029-0.118-0.044-0.178H122.47V28.282h-0.045c-0.014-.059-0.029-0.118-0.044-0.178h-0.044V27.971h-0.044c-0.015-.059-0.03-0.118-0.044-0.177H122.2V27.661H122.16c-0.015-.059-0.029-0.118-0.044-0.178h-0.044V27.35h-0.044l-0.045-.178h-0.044V27.039H121.9c-0.015-.059-0.03-0.118-0.044-0.178h-0.044V26.729h-0.045c-0.014-.059-0.029-0.118-0.044-0.177h-0.044V26.418H121.63l-0.045-.177h-0.044V26.107H121.5c-0.015-.059-0.029-0.118-0.044-0.177h-0.044V25.8h-0.045c-0.014-.059-0.029-0.118-0.044-0.178h-0.044V25.486h-0.044c-0.015-.059-0.03-0.118-0.044-0.178h-0.045V25.175H121.1c-0.015-.059-0.029-0.118-0.044-0.177h-0.044V24.865h-0.044l-0.045-.178h-0.044V24.554h-0.044c-0.015-.059-0.03-0.118-0.044-0.177h-0.045V24.244H120.7c-0.014-.059-0.029-0.118-0.044-0.178h-0.044V23.933h-0.044l-0.045-.178H120.48V23.622h-0.044c-0.015-.059-0.029-0.118-0.044-0.177h-0.044V23.312H120.3V23.223h-0.044c-0.015-.074-0.029-0.148-0.044-0.222h-0.044c-0.015-.044-0.03-0.089-0.044-0.133h3.094l4.377,11.05c0.05-.05.018,0,0.044-0.089h0.045c0.014-.089.029-0.177,0.044-0.266h0.044V33.43h0.044V33.341h0.044l0.045-.266h0.044V32.942H128c0.015-.089.029-0.177,0.044-0.266h0.044V32.542h0.045V32.453h0.044c0.015-.089.029-0.178,0.044-0.266h0.044c0.03-.133.059-0.266,0.089-0.4h0.044V31.7h0.044V31.566h0.044V31.433h0.045V31.3h0.044V31.166h0.044V31.033c0.449-1.028.745-2.211,1.194-3.24V27.661h0.044V27.527H129.9V27.394h0.044V27.261h0.044V27.128h0.045V27.039h0.044c0.015-.089.029-0.178,0.044-0.266h0.044V26.64h0.045V26.507h0.044V26.374h0.044V26.285h0.044c0.03-.133.059-0.266,0.089-0.4h0.044c0.029-.133.059-0.266,0.088-0.4H130.6V25.4h0.045c0.014-.089.029-0.178,0.044-0.266h0.044c0.03-.133.059-0.266,0.088-0.4h0.045V24.643h0.044V24.51h0.044V24.377H131V24.244h0.045V24.11h0.044V23.977h0.044V23.888h0.044V23.755h0.044V23.622h0.045V23.489h0.044c0.015-.089.029-0.178,0.044-0.266H131.4A1.04,1.04,0,0,0,131.489,22.868Z"/>
    <path class="cls-4" d="M26.621,7.735a0.838,0.838,0,0,1-.177.311L26.4,8.223l-0.088.044V8.356H26.268V8.445H26.223V8.534H26.179V8.622H26.135V8.711l-0.088.044V8.844H26V8.933H25.958V9.022H25.914V9.111H25.87l-0.044.178-0.088.044-0.044.178H25.649V9.6H25.6V9.688H25.56V9.776H25.516V9.865H25.472l-0.044.177H25.383l-0.044.178H25.295l-0.044.178H25.207l-0.044.178H25.118l-0.044.177H25.03v0.089H24.985V10.93H24.941v0.089H24.9v0.089H24.853V11.2H24.809l-0.088.266H24.676l-0.044.178H24.588v0.133H24.543v0.089H24.5v0.089H24.455l-0.088.266H24.322V12.35H24.278v0.089H24.234l-0.044.178H24.145V12.75H24.1v0.089H24.057l-0.044.178H23.969v0.133H23.924l-0.044.178H23.836V13.46H23.792v0.089H23.748v0.133H23.7l-0.044.178H23.615v0.133H23.571v0.089H23.527l-0.044.222H23.438v0.133H23.394v0.089H23.35v0.133H23.305v0.089H23.261l-0.044.266H23.173V15.1H23.129l-0.044.222H23.04l-0.088.4H22.908v0.089H22.863v0.133H22.819v0.133H22.775v0.133H22.731v0.133H22.687v0.089H22.642v0.133H22.6V16.7H22.554v0.133H22.51v0.133H22.465V17.1c-0.281.707-.49,1.534-0.752,2.263l-0.044.355c-0.2.563-.343,1.237-0.53,1.82v0.222H21.095v0.178H21.051v0.177H21.007v0.178H20.962v0.222c-0.143.444-.212,1.009-0.354,1.465l-0.044.488c-0.137.452-.173,1.046-0.309,1.509v0.311H20.211V26.6H20.167v0.355a4.24,4.24,0,0,0-.133,1.109h0.044l0.133-.178H20.3l0.088-.133h0.088l0.088-.133h0.088l0.088-.133H20.83l0.088-.133h0.088l0.088-.133h0.088l0.088-.133H21.36l0.133-.178h0.088l0.088-.133,0.133-.044,0.044-.089h0.088l0.088-.133h0.088l0.088-.133h0.088l0.088-.133h0.088l0.088-.133h0.088l0.133-.177h0.088l0.088-.133,0.133-.044,0.044-.089h0.088l0.088-.133h0.088l0.088-.133h0.088l0.088-.133h0.088l0.088-.133h0.088L24.013,25H24.1l0.044-.089,0.133-.044,0.133-.178H24.5l0.088-.133,0.133-.044,0.044-.089h0.088l0.088-.133H25.03l0.088-.133h0.088l0.088-.133h0.088l0.088-.133H25.56l0.133-.178h0.088l0.088-.133h0.088l0.089-.133h0.088l0.088-.133h0.088l0.088-.133h0.089l0.088-.133h0.088l0.088-.133h0.089l0.088-.133h0.088l0.133-.177H27.24l0.088-.133,0.133-.044,0.044-.089h0.088l0.044-.089,0.133-.044,0.088-.133h0.088l0.088-.133h0.088l0.088-.133H28.3l0.088-.133h0.088l0.044-.089,0.133-.044,0.133-.178h0.088l0.088-.133h0.088l0.088-.133H29.23l0.088-.133h0.088l0.088-.133h0.088l0.088-.133H29.76l0.088-.133h0.088l0.088-.133h0.088l0.133-.177h0.088l0.088-.133h0.088l0.088-.133h0.088l0.088-.133h0.088l0.088-.133h0.088l0.088-.133h0.088l0.088-.133H31.4l0.088-.133h0.088l0.088-.133a1.2,1.2,0,0,1,.4-0.222v0.044a1.836,1.836,0,0,0-.133.177l-0.088.044v0.089l-0.177.133v0.089l-0.133.089v0.089l-0.133.089v0.089l-0.133.089v0.089l-0.133.089-0.044.133L31,20.338v0.089l-0.088.044V20.56l-0.133.089v0.089l-0.088.044v0.089l-0.133.089v0.089l-0.088.044v0.089l-0.133.089v0.089l-0.088.044-0.044.133H30.158v0.089l-0.088.044v0.089l-0.088.044v0.089l-0.088.044v0.089l-0.088.044v0.089l-0.088.044v0.089l-0.088.044v0.089l-0.088.044v0.089l-0.088.044V22.69l-0.088.044v0.089H29.318v0.089l-0.088.044v0.089l-0.088.044-0.044.177H29.053l-0.044.133-0.088.044-0.044.177H28.832l-0.044.133L28.7,23.8v0.089H28.655v0.089l-0.088.044-0.044.178-0.088.044-0.044.177-0.088.044-0.044.178-0.088.044-0.088.266L27.992,25v0.089H27.948v0.089l-0.088.044-0.088.266-0.088.044v0.089H27.638v0.089H27.594V25.8l-0.088.044V25.93H27.461v0.089H27.417v0.089H27.373V26.2l-0.088.044-0.088.266H27.152V26.6H27.108v0.089l-0.088.044-0.088.266H26.887v0.089H26.842v0.089H26.8v0.089H26.754V27.35H26.71v0.089l-0.088.044-0.044.178H26.533v0.089H26.489v0.089H26.444v0.089H26.4v0.089H26.356V28.1H26.312l-0.044.178H26.223l-0.044.177H26.135l-0.044.178H26.047v0.089H26v0.089H25.958V28.9H25.914v0.089H25.87l-0.088.266H25.737l-0.044.178H25.649v0.133H25.6l-0.044.178H25.516v0.089H25.472v0.089H25.428l-0.088.266H25.295v0.133H25.251v0.089H25.207l-0.088.266H25.074v0.133H25.03V30.9H24.985l-0.088.266H24.853V31.3H24.809v0.089H24.764l-0.044.177H24.676V31.7H24.632l-0.044.178H24.543V32.01H24.5l-0.044.178H24.411V32.32H24.367l-0.044.178H24.278v0.133H24.234V32.72H24.19l-0.044.222H24.1v0.133H24.057l-0.044.178H23.969v0.133H23.924v0.133H23.88l-0.044.178H23.792l-0.044.266H23.7v0.089H23.659v0.133H23.615v0.089H23.571l-0.044.266c-0.541,1.238-.943,2.638-1.415,3.95l-0.177.754c-0.315.876-.5,1.889-0.8,2.8v0.222H21.095v0.178H21.051v0.178H21.007l-0.044.4H20.918v0.222c-0.147.456-.213,1.043-0.354,1.509v0.266c-0.149.491-.163,1.137-0.309,1.642a2.065,2.065,0,0,1-.088.621V47.32H20.034a2.185,2.185,0,0,0-.619-0.044V47.231H19.061V47.187H18.708V47.142H18.265V47.1a0.6,0.6,0,0,1-.442-0.133,0.963,0.963,0,0,1-.088-0.355H17.691V46.477H17.647L17.6,46.166H17.558l-0.044-.355c-0.312-.87-0.465-1.9-0.751-2.8V42.793H16.718V42.616H16.674V42.438H16.63l-0.044-.4H16.541V41.817c-0.285-.885-0.348-1.972-0.619-2.885V38.622c-0.1-.33-0.124-0.773-0.221-1.109V37.2c-0.108-.372-0.113-0.864-0.221-1.243V35.6c-0.125-.434-0.1-1.029-0.221-1.465V33.7H15.215V33.3H15.171q-0.022-.444-0.044-0.888H15.082V31.965H15.038V31.433H14.994V30.945H14.95V30.368H14.905V29.835H14.861V29.214H14.817V28.548H14.773q-0.022-.488-0.044-0.976V27.084c-0.064-.229.028-0.631-0.044-0.887H14.64V25.4a0.862,0.862,0,0,0-.4.177H14.11v0.044l-0.265.089v0.044H13.756V25.8H13.668v0.044H13.535v0.044l-0.265.089v0.044H13.181v0.044H13.093v0.044H12.96v0.044H12.872V26.2l-0.4.133v0.044l-0.265.089v0.044H12.12v0.044l-0.177.044V26.64H11.811v0.044l-0.265.089v0.044H11.457v0.044H11.369v0.044H11.236v0.044l-0.265.089v0.044H10.882v0.044H10.794v0.044H10.661v0.044l-0.265.089V27.35H10.308v0.044H10.219v0.044H10.087v0.044H10v0.044H9.91v0.044l-0.265.089V27.7H9.512v0.044l-0.265.089a0.339,0.339,0,0,1,.088-0.178H9.379V27.572H9.423l0.088-.133L9.6,27.394V27.306l0.265-.222V26.995l0.221-.178V26.729l0.221-.177c0.627-.868,1.364-1.617,1.99-2.485l0.221-.178V23.8l0.221-.178V23.533l0.221-.178V23.267l0.221-.177V23l0.221-.178V22.735l0.221-.178V22.468l0.221-.177V22.2l0.221-.178V21.936l0.088-.044,0.088-.133h0.044V21.67l0.221-.177V21.4l0.177-.133V21.181L14.905,21V20.915l0.221-.177V20.649l0.221-.178V20.383l0.221-.177V20.116l0.221-.177V19.85l0.177-.133V19.628l0.221-.177V19.362l0.221-.177V19.1l0.221-.178V18.829l0.177-.133V18.608l0.221-.178V18.341l0.221-.178V18.075L17.47,17.9V17.809l0.177-.133V17.587l0.221-.177V17.321l0.221-.177V17.054l0.177-.133V16.832l0.221-.178V16.566l0.221-.177V16.3l0.088-.044V16.211l0.088-.044V16.078l0.221-.178V15.812l0.088-.044V15.723l0.088-.044V15.59l0.221-.178V15.324l0.177-.133V15.1l0.221-.178V14.835l0.221-.178V14.569l0.177-.133V14.347l0.221-.178V14.081l0.088-.044V13.992l0.088-.044V13.859l0.177-.133V13.637l0.221-.178V13.371l0.177-.133V13.149l0.221-.177V12.883l0.177-.133V12.661l0.177-.133V12.439l0.221-.178V12.173l0.177-.133V11.951l0.177-.133V11.729l0.221-.178V11.463l0.088-.044V11.374l0.088-.044V11.241L23,11.108V11.019l0.088-.044V10.93l0.088-.044V10.8l0.221-.178V10.531l0.177-.133V10.309l0.177-.133V10.087l0.221-.177V9.821l0.177-.133V9.6l0.177-.133V9.377L24.5,9.244V9.155l0.177-.133V8.933L24.853,8.8V8.711l0.221-.178V8.445l0.177-.133V8.223l0.177-.133V8L25.6,7.868V7.779L25.825,7.6l-0.044-.089H25.87A2.852,2.852,0,0,0,26.621,7.735Z"/>
  </g>
</svg>
