<?xml version="1.0" encoding="utf-8"?>
<!-- Generator: Adobe Illustrator 25.1.0, SVG Export Plug-In . SVG Version: 6.00 Build 0)  -->
<svg version="1.1" id="Layer_1" xmlns="http://www.w3.org/2000/svg" xmlns:xlink="http://www.w3.org/1999/xlink" x="0px" y="0px"
	 viewBox="0 0 1920.2 1054.9" style="enable-background:new 0 0 1920.2 1054.9;" xml:space="preserve">
<style type="text/css">
	.st0{opacity:0.11;fill:#0F3448;enable-background:new    ;}
	.st1{fill:#2CB895;}
</style>
<path id="Path_195" class="st0" d="M1920.2,675.2c0,0-85.9-337.8-386.7-270.2s-439.4,0-538.3-145.2s-352-127-574.6-79.2
	S118.2,159.1,0,0c0,0,0.1,1054.9,0.1,1054.9h1920.1L1920.2,675.2z"/>
<path id="Path_194" class="st1" d="M1920.2,675.3c0,0-86.3-291.5-385.9-226.4s-437.7,0-536.1-139.9s-348.5-144.6-576.5-88.3
	S41.6,104.3,0.1,0.1c0.1,8,0,1054.7,0,1054.7h1920L1920.2,675.3z"/>
</svg>
