<svg height='25px' width='30px'  fill="#252b32" xmlns="http://www.w3.org/2000/svg" viewBox="0 0 65 65" x="0px" y="0px"><title>Hotel</title><g><g data-name="Hotel"><path d="M50,61H14a3,3,0,0,1-3-3V13.35a3,3,0,0,1,1.89-2.79l18.74-7.5a1,1,0,0,1,.74,0l18.74,7.5A3,3,0,0,1,53,13.35V58A3,3,0,0,1,50,61ZM32,5.08,13.63,12.43a1,1,0,0,0-.63.93V58a1,1,0,0,0,1,1H50a1,1,0,0,0,1-1V13.35a1,1,0,0,0-.63-.93Z"></path><path d="M39,61H25a1,1,0,0,1-1-1V42a1,1,0,0,1,.61-.92l7-3a1,1,0,0,1,.79,0l7,3A1,1,0,0,1,40,42V60A1,1,0,0,1,39,61ZM26,59H38V42.66l-6-2.57-6,2.57Z"></path><path d="M32,61a1,1,0,0,1-1-1V39a1,1,0,0,1,2,0V60A1,1,0,0,1,32,61Z"></path><path d="M29,54a1,1,0,0,1-1-1V49a1,1,0,0,1,2,0v4A1,1,0,0,1,29,54Z"></path><path d="M35,54a1,1,0,0,1-1-1V49a1,1,0,0,1,2,0v4A1,1,0,0,1,35,54Z"></path><path d="M27,37H19a1,1,0,0,1-1-1V28a1,1,0,0,1,1-1h8a1,1,0,0,1,1,1v8A1,1,0,0,1,27,37Zm-7-2h6V29H20Z"></path><path d="M27,25H19a1,1,0,0,1-1-1V16a1,1,0,0,1,1-1h8a1,1,0,0,1,1,1v8A1,1,0,0,1,27,25Zm-7-2h6V17H20Z"></path><path d="M45,37H37a1,1,0,0,1-1-1V28a1,1,0,0,1,1-1h8a1,1,0,0,1,1,1v8A1,1,0,0,1,45,37Zm-7-2h6V29H38Z"></path><path d="M45,25H37a1,1,0,0,1-1-1V16a1,1,0,0,1,1-1h8a1,1,0,0,1,1,1v8A1,1,0,0,1,45,25Zm-7-2h6V17H38Z"></path></g></g></svg>