<?xml version="1.0" encoding="UTF-8"?>
<svg width="16px" height="15px" viewBox="0 0 16 15" version="1.1" xmlns="http://www.w3.org/2000/svg" xmlns:xlink="http://www.w3.org/1999/xlink">
    <!-- Generator: Sketch 48.2 (47327) - http://www.bohemiancoding.com/sketch -->
    <title>check-circle-07</title>
    <desc>Created with Sketch.</desc>
    <defs></defs>
    <g id="02_Profile" stroke="none" stroke-width="1" fill="none" fill-rule="evenodd" transform="translate(-342.000000, -158.000000)">
        <g id="check-circle-07" transform="translate(342.000000, 158.000000)" fill="#2ab767" fill-rule="nonzero">
            <path d="M14.1913043,5.04545455 C13.8434783,5.11363636 13.6347826,5.52272727 13.7043478,5.86363636 C13.8434783,6.40909091 13.9130435,6.95454545 13.9130435,7.5 C13.9130435,10.9090909 11.1304348,13.6363636 7.65217391,13.6363636 C4.17391304,13.6363636 1.39130435,10.9090909 1.39130435,7.5 C1.39130435,4.09090909 4.17391304,1.36363636 7.65217391,1.36363636 C8.83478261,1.36363636 9.94782609,1.70454545 10.9217391,2.25 C11.2695652,2.45454545 11.6869565,2.31818182 11.8956522,2.04545455 C12.1043478,1.70454545 11.9652174,1.29545455 11.6869565,1.09090909 C10.4347826,0.409090909 9.04347826,0 7.65217391,0 C3.40869565,0 0,3.34090909 0,7.5 C0,11.6590909 3.40869565,15 7.65217391,15 C11.8956522,15 15.3043478,11.6590909 15.3043478,7.5 C15.3043478,6.81818182 15.2347826,6.13636364 15.026087,5.52272727 C14.9565217,5.18181818 14.5391304,4.97727273 14.1913043,5.04545455 Z" id="Shape"></path>
            <path d="M15.7913043,0.886363636 C15.5130435,0.613636364 15.0956522,0.613636364 14.8173913,0.886363636 L7.65217391,7.90909091 L5.35652174,5.65909091 C5.07826087,5.38636364 4.66086957,5.38636364 4.3826087,5.65909091 C4.10434783,5.93181818 4.10434783,6.34090909 4.3826087,6.61363636 L7.16521739,9.34090909 C7.30434783,9.47727273 7.51304348,9.54545455 7.65217391,9.54545455 C7.79130435,9.54545455 8,9.47727273 8.13913043,9.34090909 L15.7913043,1.84090909 C16.0695652,1.56818182 16.0695652,1.15909091 15.7913043,0.886363636 Z" id="Shape"></path>
        </g>
    </g>
</svg>