<?xml version="1.0" encoding="UTF-8"?>
<svg width="39px" height="39px" viewBox="0 0 39 39" version="1.1" xmlns="http://www.w3.org/2000/svg" xmlns:xlink="http://www.w3.org/1999/xlink">
    <!-- Generator: Sketch 61 (89581) - https://sketch.com -->
    <title>Instagram logo</title>
    <desc>Created with Sketch.</desc>
    <g id="Page-1" stroke="none" stroke-width="1" fill="none" fill-rule="evenodd">
        <g id="Instagram-logo" fill="#FFFFFF">
            <g id="Group-9">
                <path d="M19.03,-2.27373675e-13 C29.541,-2.27373675e-13 38.061,8.52 38.061,19.031 C38.061,29.4279892 29.7232407,37.8775441 19.3683658,38.0580529 L19.03,38.061 C8.52,38.061 -1.25055521e-12,29.541 -1.25055521e-12,19.031 C-1.25055521e-12,8.52 8.52,-2.27373675e-13 19.03,-2.27373675e-13 Z M19.03,8.596 C16.196,8.596 15.841,8.608 14.728,8.659 C13.618,8.71 12.859,8.886 12.195,9.144 C11.509,9.411 10.927,9.768 10.347,10.348 C9.767,10.928 9.41,11.51 9.144,12.196 C8.886,12.86 8.709,13.618 8.659,14.729 C8.608,15.842 8.596,16.197 8.596,19.031 C8.596,21.865 8.608,22.22 8.659,23.333 C8.709,24.444 8.886,25.202 9.144,25.866 C9.41,26.552 9.767,27.134 10.347,27.714 C10.927,28.294 11.509,28.651 12.195,28.918 C12.859,29.175 13.618,29.352 14.728,29.403 C15.682,29.4458571 16.079102,29.4607959 17.9577668,29.4641895 L20.1022332,29.4641895 C21.980898,29.4607959 22.378,29.4458571 23.332,29.403 C24.443,29.352 25.201,29.175 25.865,28.918 C26.551,28.651 27.133,28.294 27.713,27.714 C28.294,27.134 28.65,26.552 28.917,25.866 C29.175,25.202 29.351,24.444 29.402,23.333 C29.4457143,22.379 29.4607755,21.981898 29.4641866,20.1032332 L29.4641866,17.9587668 C29.4607755,16.080102 29.4457143,15.683 29.402,14.729 C29.351,13.618 29.175,12.86 28.917,12.196 C28.65,11.51 28.294,10.928 27.713,10.348 C27.133,9.768 26.551,9.411 25.865,9.144 C25.201,8.886 24.443,8.71 23.332,8.659 C22.219,8.608 21.864,8.596 19.03,8.596 Z M19.03,10.476 C21.816,10.476 22.146,10.487 23.247,10.537 C24.264,10.584 24.816,10.754 25.184,10.897 C25.671,11.086 26.019,11.312 26.384,11.677 C26.749,12.042 26.975,12.39 27.164,12.877 C27.307,13.245 27.477,13.797 27.524,14.815 C27.5668571,15.7578571 27.5810612,16.135 27.5842449,17.9779621 L27.5842449,20.0840379 C27.5810612,21.927 27.5668571,22.3041429 27.524,23.247 C27.477,24.265 27.307,24.817 27.164,25.185 C26.975,25.672 26.749,26.019 26.384,26.385 C26.019,26.75 25.671,26.976 25.184,27.165 C24.816,27.308 24.264,27.478 23.247,27.524 C22.3032857,27.5668571 21.9267551,27.5810612 20.0833557,27.5842449 L17.9769621,27.5842449 C16.134,27.5810612 15.7568571,27.5668571 14.814,27.524 C13.797,27.478 13.244,27.308 12.876,27.165 C12.389,26.976 12.042,26.75 11.677,26.385 C11.312,26.019 11.085,25.672 10.896,25.185 C10.753,24.817 10.583,24.265 10.537,23.247 C10.487,22.147 10.476,21.817 10.476,19.031 C10.476,16.245 10.487,15.915 10.537,14.815 C10.583,13.797 10.753,13.245 10.896,12.877 C11.085,12.39 11.312,12.042 11.677,11.677 C12.042,11.312 12.389,11.086 12.876,10.897 C13.244,10.754 13.797,10.584 14.814,10.537 C15.914,10.487 16.244,10.476 19.03,10.476 Z M19.03,13.673 C16.071,13.673 13.672,16.072 13.672,19.031 C13.672,21.99 16.071,24.389 19.03,24.389 C21.99,24.389 24.388,21.99 24.388,19.031 C24.388,16.072 21.99,13.673 19.03,13.673 Z M19.03,15.553 C20.951,15.553 22.508,17.11 22.508,19.031 C22.508,20.952 20.951,22.509 19.03,22.509 C17.109,22.509 15.552,20.952 15.552,19.031 C15.552,17.11 17.109,15.553 19.03,15.553 Z M24.6,12.209 C23.909,12.209 23.348,12.769 23.348,13.461 C23.348,14.152 23.909,14.713 24.6,14.713 C25.292,14.713 25.853,14.152 25.853,13.461 C25.853,12.769 25.292,12.209 24.6,12.209 Z" id="Combined-Shape"></path>
            </g>
        </g>
    </g>
</svg>