<?xml version="1.0" encoding="iso-8859-1"?>
<!-- Generator: Adobe Illustrator 19.0.0, SVG Export Plug-In . SVG Version: 6.00 Build 0)  -->
<svg version="1.1" id="Capa_1" xmlns="http://www.w3.org/2000/svg" xmlns:xlink="http://www.w3.org/1999/xlink" x="0px" y="0px"
	 viewBox="0 0 469.856 469.856" style="enable-background:new 0 0 469.856 469.856;" xml:space="preserve">
<path style="fill:#2ABBDD;" d="M234.928,411.97c-70.198-0.267-133.668-41.812-162-106.04l-0.96-0.76l-0.8-3.44
	c-6.948-16.722-11.227-34.431-12.68-52.48l-0.2-2.72l2.16-1.64c3.8-3.382,8.577-5.469,13.64-5.96h0.84l2.52,0.56
	c8,3.08,10.84,16.32,13.76,34.68c1.76,11.12,3.4,21.64,7.44,25.16c1.844,1.785,4.276,2.837,6.84,2.96c1.043,0,2.075-0.204,3.04-0.6
	c10.16-4,17.84-28.64,21.04-67.2c0.36-10.703,3.974-21.043,10.36-29.64l0.92-1.12l1.36-0.44c29.4-9.76,64.8-19.8,105.24-29.84
	l4.4-1.08l10.52,30.56l58.96-70.76l-88.4-27.16l7.6,29.92l-22.52,6.2l-1.96-3.2c-2.83-4.302-5.986-8.381-9.44-12.2
	c-6.465-7.206-12.188-15.046-17.08-23.4c-6.96-12.24-9.16-22.32-6.64-29.88c1.108-3.599,3.557-6.635,6.84-8.48
	c14.73-4.024,29.93-6.069,45.2-6.08c59.572-0.247,115.241,29.603,148,79.36c1.92,4,13.44,26.64-12,44.44
	c-15.4,10.72-23.44,21.2-24.56,32c-1.08,9.84,3.56,20,14.04,31.32l6.32,7.56l-6.4,2.44c-45.11,16.55-91.165,30.401-137.92,41.48
	l-4.4,1.08l-10.52-30.64l-58.96,70.76l88.4,27.16l-7.6-29.92l4.72-1.28c46.189-12.242,91.537-27.46,135.76-45.56l7.28-3.08l-0.44,8
	c-1.12,20.4-10.88,35.36-26.8,41.04s-69.72,28-71.24,68.8v3.76l-3.68,0.88C261.807,410.492,248.388,411.995,234.928,411.97
	L234.928,411.97z"/>
<g>
	<path style="fill:#74FF78;" d="M105.488,302.09c-2.472-0.164-4.801-1.215-6.56-2.96c-3.44-3-5.08-10.12-7.36-25
		c-2.44-15.52-5-31.52-13.88-34.84l-13.44-3.12l11.12-6.48c17.045-8.234,34.57-15.433,52.48-21.56l10.44-3.68l-4.24,10.2
		c-2.495,6.289-3.993,12.929-4.44,19.68c-3.2,38.52-10.84,63-20.96,67.04l-0.88,0.36L105.488,302.09z"/>
	<path style="fill:#74FF78;" d="M63.808,189.53c14.988-56.492,56.903-101.939,112-121.44l8.64-3.08l-2.2,8.88
		c-1.84,7.48,0.52,17.08,7,28.52c4.896,8.352,10.618,16.191,17.08,23.4c2.96,3.48,5.56,6.6,7.64,9.56l4,5.64l-6.48,1.92
		c-39.48,11.48-96,29.88-140.68,52.2l-9.76,4.88L63.808,189.53z"/>
	<path style="fill:#74FF78;" d="M364.208,249.49c-1.162-1.606-2.417-3.142-3.76-4.6c-10.48-11.16-15.04-21.36-14-31.16
		c1.12-10.76,9.12-21.16,24.52-32c7.533-4.758,13.035-12.141,15.44-20.72l3.36-13.4l6.64,14.04l0.8,4.32l1.36,0.84l0.6,1.48
		c7.525,18.901,11.759,38.95,12.52,59.28v2.92l-2.52,1.52c-12.62,7.268-25.748,13.618-39.28,19l-3.6,1.44L364.208,249.49z"/>
</g>
<path style="fill:#FFFFFF;" d="M24.928,282.93c-13.4-8.76-20-18.32-20-28.32c1.16-49,163.48-99.28,213.2-113.52
	c8.52-2.4,16-4.48,22.36-6.12l-7.64-29.84l88,26.92l-58.36,70.88l-10.48-30.8c-43.32,10.8-80.64,21.16-111.08,31.28
	c-36.507,12.213-63.84,23.987-82,35.32c-19.04,12.2-27.68,22.6-27.72,32.2c-0.052,2.131,0.315,4.251,1.08,6.24l5.32,14.12
	L24.928,282.93z"/>
<g>
	<path style="fill:#74FF78;" d="M278.928,399.29c4.36-38.56,55.32-59.6,70.8-65.16c17.36-6.2,27.48-23.32,27.04-45.8v-3.28
		l2.96-1.32c6.6-2.96,13-5.96,19.2-9.08l9.8-4.88l-2.8,10.56c-16.007,59.498-61.638,106.491-120.64,124.24l-7.16,2.16
		L278.928,399.29z"/>
	<path style="fill:#74FF78;" d="M351.528,338.93c-15.4,5.52-63.56,25.52-67.6,61.04c57.502-17.188,101.935-63.03,117.32-121.04
		c-6.28,3.12-12.76,6.2-19.4,9.16C382.328,312.69,370.928,331.85,351.528,338.93z"/>
</g>
<path style="fill:#FFFFFF;" d="M148.768,337.69l58.64-70.76l10.48,30.64c146.28-36,220.52-69.24,220.8-98.84
	c0.023-2.141-0.343-4.269-1.08-6.28l-5.12-14l12.48,8c13.4,8.76,20,18.32,20,28.36c-1.6,58.6-233.44,119.36-235.8,120.12l7.68,29.84
	L148.768,337.69z"/>
<path style="fill:#322E63;" d="M469.848,215.25c0.48-20-20-36.72-62.24-51.04c-2.04-0.76-4-1.36-5.36-1.84
	c-35.749-82.229-125.991-126.248-212.8-103.8c-0.213-0.014-0.427-0.014-0.64,0h-0.24c-66.473,17.599-117.409,71.071-131.76,138.32
	c-32.48,17.68-56.32,37.48-56.8,57.72s20,36.72,62.24,51.04c2.32,0.84,4.32,1.52,5.92,2
	c40.085,92.177,147.305,134.406,239.482,94.321c53.93-23.453,93.205-71.519,105.438-129.041
	C445.568,255.29,469.368,235.49,469.848,215.25L469.848,215.25z M433.568,198.93c0,5.4-3.76,13.04-16.96,22.68
	c-1.189-15.914-4.443-31.606-9.68-46.68C418.928,179.73,433.688,188.29,433.568,198.93z M368.208,246.57
	c-1.24-1.765-2.575-3.461-4-5.08c-9.4-10.04-13.56-19-12.68-27.28c0.96-9.24,8.32-18.48,22.44-28.32
	c8.521-5.433,14.732-13.824,17.44-23.56c0.4,0.88,0.84,1.76,1.24,2.64c0.92,2.12,1.28,3.04,2.2,5.32
	c7.249,18.377,11.307,37.857,12,57.6C394.45,235.067,381.534,241.311,368.208,246.57z M177.608,72.73c-2.12,8.68,0.36,19.48,7.48,32
	c5.07,8.565,10.979,16.605,17.64,24c2.84,3.32,5.36,6.36,7.4,9.24c-35.76,10.64-95,29.56-141.52,52.96
	C83.226,135.966,124.006,91.744,177.608,72.73L177.608,72.73z M10.048,254.93c0.88-40.84,135.8-88,209.6-108.96h0.32
	c8-2.32,15.56-4.36,21.92-6c2.677-0.705,4.285-3.437,3.6-6.12l-5.52-21.2l72.56,22.16l-48.24,58.04l-7.64-22.28
	c-0.854-2.455-3.435-3.859-5.96-3.24c-43.547,10.667-80.667,21.147-111.36,31.44c-0.246,0.061-0.487,0.141-0.72,0.24
	c-36.347,12.133-63.813,23.973-82.4,35.52c-0.812,0.263-1.542,0.732-2.12,1.36c-18.533,11.92-27.867,23.613-28,35.08
	c-0.03,2.73,0.444,5.442,1.4,8C15.848,271.21,9.848,262.93,10.048,254.93L10.048,254.93z M129.328,212.81
	c-2.699,6.772-4.318,13.926-4.8,21.2c-3.56,42.48-12,60.44-17.88,62.88c-0.6,0.24-2,0.8-4.6-1.48s-4.44-13.72-5.76-22.04
	c-2.68-16.88-5.36-34.44-17-38.72c-0.614-0.215-1.242-0.389-1.88-0.52C94.267,225.979,111.606,218.859,129.328,212.81
	L129.328,212.81z M36.288,270.93c0-5.4,3.76-13.04,16.96-22.68c1.197,15.974,4.533,31.714,9.92,46.8
	C51.328,290.33,36.168,281.73,36.288,270.93z M77.448,303.85c0.074-1.527-0.561-3.003-1.72-4c-6.734-16.256-10.891-33.463-12.32-51
	c5.36-4,9.68-5.76,12.32-4.76c6.08,2.28,8.72,18.8,10.6,30.88s3.68,23.4,9.12,28c2.766,2.508,6.347,3.929,10.08,4
	c1.687,0.003,3.358-0.323,4.92-0.96c15.56-6.32,21.68-42.32,24-71.36c0.288-9.701,3.509-19.087,9.24-26.92
	c27.6-9.12,61.92-19.04,104.88-29.72l9.04,26.4c0.899,2.634,3.764,4.041,6.398,3.141c0.875-0.299,1.65-0.832,2.242-1.541
	l58.88-70.68c1.761-2.155,1.442-5.33-0.713-7.092c-0.499-0.408-1.072-0.716-1.687-0.908l-88.4-27
	c-2.668-0.794-5.474,0.725-6.268,3.393c-0.26,0.874-0.278,1.803-0.052,2.687l6.52,25.04l-14.24,4
	c-2.975-4.503-6.277-8.782-9.88-12.8c-6.253-6.968-11.8-14.538-16.56-22.6c-7.72-13.72-7.68-21.64-6.24-25.92
	c0.727-2.399,2.325-4.439,4.48-5.72c71.166-18.409,146.179,10.321,186.84,71.56c0.067,0.358,0.174,0.707,0.32,1.04
	c1.2,2.12,10.96,21.24-11.12,36.64c-16.64,11.6-25.36,23.24-26.68,35.52c-1.2,11.4,4,22.92,15.32,35.24
	c0.6,0.64,1.16,1.36,1.76,2.04c-31.6,12.12-75.6,25.88-137.32,41.24l-9.04-26.4c-0.899-2.634-3.764-4.041-6.398-3.141
	c-0.874,0.299-1.65,0.832-2.242,1.541l-58.8,70.84c-1.761,2.155-1.442,5.33,0.713,7.092c0.499,0.408,1.071,0.716,1.687,0.908
	l88.4,27c2.668,0.794,5.474-0.725,6.268-3.393c0.26-0.874,0.278-1.803,0.052-2.687l-6.52-25c46.404-12.318,91.965-27.616,136.4-45.8
	c-0.8,15.04-7.24,30.84-23.56,36.68c-17.24,6.2-72.88,29.6-74.52,73.24c-12.699,2.92-25.69,4.383-38.72,4.36
	c-68.16-0.376-129.771-40.668-157.44-102.96L77.448,303.85z M283.928,399.85c4-35.56,52-55.56,67.6-61.04
	c19.4-6.92,30.8-26.12,30.32-50.56c6.64-2.96,13.12-6,19.4-9.16c-15.462,57.893-59.864,103.612-117.28,120.76H283.928z
	 M227.928,330.01c-2.677,0.705-4.285,3.438-3.6,6.12l5.52,21.2l-72.56-22.2l48.28-58.12l7.64,22.28
	c0.854,2.455,3.435,3.859,5.96,3.24c150.72-37.16,224-71.08,224.48-103.64c0.03-2.73-0.444-5.442-1.4-8c12,7.72,17.76,16,17.6,24
	C458.928,260.33,292.048,313.37,227.928,330.01L227.928,330.01z"/>
<g>
</g>
<g>
</g>
<g>
</g>
<g>
</g>
<g>
</g>
<g>
</g>
<g>
</g>
<g>
</g>
<g>
</g>
<g>
</g>
<g>
</g>
<g>
</g>
<g>
</g>
<g>
</g>
<g>
</g>
</svg>
