<?xml version="1.0" encoding="utf-8"?>
<!-- Generator: Adobe Illustrator 21.0.0, SVG Export Plug-In . SVG Version: 6.00 Build 0)  -->
<svg version="1.1" id="Layer_1" xmlns="http://www.w3.org/2000/svg" xmlns:xlink="http://www.w3.org/1999/xlink" x="0px" y="0px"
	 width="3000px" height="2000px" viewBox="0 0 3000 2000" style="enable-background:new 0 0 3000 2000;" xml:space="preserve">
<style type="text/css">
	.st0{fill:#F3F0EB;}
	.st1{fill:#997B71;}
	.st2{fill:#B28F86;}
	.st3{fill:#E2DBD0;}
	.st4{fill:#FFFFFF;}
	.st5{fill:#ECE9E4;}
	.st6{fill:#BAADA7;}
	.st7{fill:#A59B97;}
	.st8{fill:#A09692;}
	.st9{fill:#E5E1DE;}
	.st10{fill:#D1C9C7;}
	.st11{fill:#C4B8B3;}
	.st12{fill:#B25252;}
	.st13{fill:#9E4949;}
	.st14{fill:#ADB562;}
	.st15{fill:#BC7661;}
	.st16{fill:#916C53;}
	.st17{fill:#D39D5E;}
	.st18{fill:#C18E5B;}
	.st19{fill:#9DA05F;}
	.st20{fill:#C95B5B;}
	.st21{fill:#A55555;}
	.st22{fill:#B75555;}
	.st23{fill:#EABA75;}
	.st24{fill:#DDA552;}
	.st25{fill:#D3A971;}
	.st26{fill:#C4BFBB;}
	.st27{fill:#ADA8A5;}
	.st28{fill:#B7B3B0;}
	.st29{fill:#878554;}
	.st30{fill:#919156;}
	.st31{fill:#96965C;}
	.st32{fill:#CE725D;}
	.st33{fill:#D37C6E;}
	.st34{fill:#A95E4D;}
	.st35{fill:#AD675B;}
	.st36{fill:#B2ACA8;}
	.st37{fill:#EAE8E8;}
	.st38{fill:#EAE4DF;}
	.st39{fill:#F7D0B0;}
	.st40{fill:#E8E4E2;}
	.st41{fill:#BA8568;}
	.st42{fill:#93634C;}
	.st43{fill:#604338;}
	.st44{fill:#AD513B;}
	.st45{fill:#EBECED;}
	.st46{fill:#B2ABA6;}
	.st47{fill:#CCC5C0;}
	.st48{fill:#BCB5B1;}
	.st49{fill:#AA7155;}
	.st50{fill:#A57760;}
	.st51{fill:#99916C;}
	.st52{fill:#B5B0AC;}
	.st53{fill:#A09C98;}
	.st54{fill:#D2A385;}
	.st55{fill:#F4C3A8;}
	.st56{fill:#C68D6D;}
	.st57{fill:#AC876F;}
	.st58{fill:#A2755B;}
	.st59{fill:#7A6261;}
	.st60{fill:#BC6253;}
	.st61{fill:#755B54;}
	.st62{fill:#5E4843;}
</style>
<rect class="st0" width="3000" height="2000"/>
<path class="st0" d="M1655.8,602.5"/>
<rect y="1749.4" class="st1" width="3000" height="250.6"/>
<rect y="1749.4" class="st2" width="3000" height="19.6"/>
<rect x="575.7" y="4.2" class="st3" width="1680.8" height="1680.8"/>
<g>
	<rect x="874.2" y="85.7" class="st4" width="1076.8" height="536.2"/>
	<rect x="900.4" y="108.7" class="st5" width="1024.4" height="490.1"/>
	<g>
		<g>
			<path class="st6" d="M1068.8,160.2h23.3v7.9h-7.7v34.3h-8.1v-34.3h-7.5V160.2z"/>
			<path class="st6" d="M1129.3,159.2c6,0,11.1,2.2,15.4,6.5c4.3,4.3,6.4,9.6,6.4,15.8c0,6.2-2.1,11.4-6.4,15.6
				c-4.2,4.3-9.4,6.4-15.4,6.4c-6.3,0-11.6-2.2-15.8-6.6c-4.2-4.4-6.3-9.6-6.3-15.6c0-4,1-7.7,2.9-11.1c2-3.4,4.6-6.1,8.1-8
				C1121.7,160.2,1125.4,159.2,1129.3,159.2z M1129.3,167c-3.9,0-7.2,1.4-9.9,4.1c-2.7,2.7-4,6.2-4,10.4c0,4.7,1.7,8.4,5,11.1
				c2.6,2.1,5.6,3.2,9,3.2c3.8,0,7.1-1.4,9.7-4.1c2.7-2.8,4-6.1,4-10.2c0-4-1.4-7.4-4.1-10.2C1136.4,168.4,1133.1,167,1129.3,167z"
				/>
			<path class="st6" d="M1170.6,160.2h9.5c6.1,0,10.7,0.8,13.7,2.3c3,1.5,5.4,4,7.4,7.4s2.9,7.4,2.9,12c0,3.3-0.5,6.2-1.6,9
				c-1.1,2.7-2.6,5-4.5,6.8c-1.9,1.8-4,3-6.2,3.7c-2.2,0.7-6.1,1-11.5,1h-9.7V160.2z M1178.5,168v26.6h3.7c3.7,0,6.3-0.4,8-1.3
				c1.7-0.8,3-2.3,4.1-4.3c1.1-2,1.6-4.4,1.6-7.4c0-4.5-1.3-8-3.8-10.4c-2.3-2.2-5.9-3.3-10.9-3.3H1178.5z"/>
			<path class="st6" d="M1236.3,160.2h8.1l16.2,42.2h-8.4l-3.3-8.7h-17.2l-3.4,8.7h-8.4L1236.3,160.2z M1240.4,171.4l-5.7,14.5h11.3
				L1240.4,171.4z"/>
			<path class="st6" d="M1275.7,160.2h8.6l7.9,15.2l7.8-15.2h8.5l-12.4,23.9v18.3h-8.1v-18.3L1275.7,160.2z"/>
			<path class="st6" d="M1326.5,159.2h7.2v4c0,2.5-0.3,4.7-0.9,6.5c-0.6,1.8-1.7,3.7-3.1,5.6l-2.8-2.2c0.7-1,1.2-1.9,1.6-2.7
				c0.3-0.8,0.7-1.7,1-3h-2.9V159.2z"/>
			<path class="st6" d="M1377.2,166l-6,5.3c-2.1-2.9-4.2-4.4-6.4-4.4c-1.1,0-1.9,0.3-2.6,0.8c-0.7,0.6-1,1.2-1,1.9
				c0,0.7,0.2,1.4,0.7,2c0.7,0.8,2.6,2.6,5.9,5.4c3.1,2.6,4.9,4.2,5.6,4.8c1.6,1.6,2.8,3.2,3.5,4.7c0.7,1.5,1,3.1,1,4.9
				c0,3.5-1.2,6.3-3.6,8.6c-2.4,2.3-5.5,3.4-9.4,3.4c-3,0-5.6-0.7-7.9-2.2c-2.2-1.5-4.1-3.8-5.7-6.9l6.8-4.1c2,3.7,4.4,5.6,7,5.6
				c1.4,0,2.5-0.4,3.5-1.2c0.9-0.8,1.4-1.7,1.4-2.8c0-1-0.4-1.9-1.1-2.9c-0.7-1-2.3-2.4-4.7-4.4c-4.6-3.7-7.6-6.6-8.9-8.7
				s-2-4.1-2-6.1c0-2.9,1.1-5.4,3.3-7.5c2.2-2.1,5-3.1,8.3-3.1c2.1,0,4.1,0.5,6,1.5C1372.9,161.6,1375,163.4,1377.2,166z"/>
			<path class="st6" d="M1447.7,166l-6,5.3c-2.1-2.9-4.2-4.4-6.4-4.4c-1.1,0-1.9,0.3-2.6,0.8c-0.7,0.6-1,1.2-1,1.9
				c0,0.7,0.2,1.4,0.7,2c0.7,0.8,2.6,2.6,5.9,5.4c3.1,2.6,4.9,4.2,5.6,4.8c1.6,1.6,2.8,3.2,3.5,4.7c0.7,1.5,1,3.1,1,4.9
				c0,3.5-1.2,6.3-3.6,8.6c-2.4,2.3-5.5,3.4-9.4,3.4c-3,0-5.6-0.7-7.9-2.2c-2.2-1.5-4.1-3.8-5.7-6.9l6.8-4.1c2,3.7,4.4,5.6,7,5.6
				c1.4,0,2.5-0.4,3.5-1.2c0.9-0.8,1.4-1.7,1.4-2.8c0-1-0.4-1.9-1.1-2.9c-0.7-1-2.3-2.4-4.7-4.4c-4.6-3.7-7.6-6.6-8.9-8.7
				c-1.3-2-2-4.1-2-6.1c0-2.9,1.1-5.4,3.3-7.5c2.2-2.1,5-3.1,8.3-3.1c2.1,0,4.1,0.5,6,1.5C1443.4,161.6,1445.5,163.4,1447.7,166z"/>
			<path class="st6" d="M1467.9,160.2h8.5c4.6,0,7.9,0.4,10,1.3c2,0.9,3.6,2.2,4.8,4.1c1.2,1.9,1.8,4.2,1.8,6.8
				c0,2.9-0.8,5.4-2.3,7.3c-1.5,2-3.6,3.3-6.3,4.1c-1.5,0.4-4.4,0.7-8.5,0.7v17.9h-8V160.2z M1475.9,176.7h2.6c2,0,3.4-0.1,4.2-0.4
				c0.8-0.3,1.4-0.8,1.9-1.4c0.4-0.7,0.7-1.5,0.7-2.4c0-1.6-0.6-2.8-1.9-3.6c-0.9-0.6-2.6-0.8-5.1-0.8h-2.3V176.7z"/>
			<path class="st6" d="M1512.6,160.2h23v7.9h-15.1v7.6h15.1v7.7h-15.1v11.1h15.1v7.9h-23V160.2z"/>
			<path class="st6" d="M1593.7,167.6l-5.6,5.4c-3.8-4-8.1-6.1-12.9-6.1c-4,0-7.4,1.4-10.2,4.1c-2.8,2.8-4.1,6.2-4.1,10.2
				c0,2.8,0.6,5.3,1.8,7.5c1.2,2.2,3,3.9,5.2,5.1c2.2,1.2,4.7,1.9,7.5,1.9c2.3,0,4.5-0.4,6.4-1.3c1.9-0.9,4.1-2.5,6.4-4.8l5.4,5.7
				c-3.1,3-6.1,5.2-8.8,6.3c-2.8,1.2-5.9,1.8-9.5,1.8c-6.6,0-11.9-2.1-16.1-6.2c-4.2-4.2-6.3-9.5-6.3-16c0-4.2,1-7.9,2.9-11.2
				c1.9-3.3,4.6-5.9,8.2-7.9c3.5-2,7.4-3,11.5-3c3.5,0,6.8,0.7,10.1,2.2C1588.6,162.8,1591.3,164.9,1593.7,167.6z"/>
			<path class="st6" d="M1611.9,160.2h8v42.2h-8V160.2z"/>
			<path class="st6" d="M1653.5,160.2h8.1l16.2,42.2h-8.4l-3.3-8.7H1649l-3.4,8.7h-8.4L1653.5,160.2z M1657.6,171.4l-5.7,14.5h11.3
				L1657.6,171.4z"/>
			<path class="st6" d="M1695.9,160.2h8v34.5h11.7v7.7h-19.7V160.2z"/>
			<path class="st6" d="M1755.6,166l-6,5.3c-2.1-2.9-4.2-4.4-6.4-4.4c-1.1,0-1.9,0.3-2.6,0.8c-0.7,0.6-1,1.2-1,1.9
				c0,0.7,0.2,1.4,0.7,2c0.7,0.8,2.6,2.6,5.9,5.4c3.1,2.6,4.9,4.2,5.6,4.8c1.6,1.6,2.8,3.2,3.5,4.7c0.7,1.5,1,3.1,1,4.9
				c0,3.5-1.2,6.3-3.6,8.6c-2.4,2.3-5.5,3.4-9.4,3.4c-3,0-5.6-0.7-7.9-2.2c-2.2-1.5-4.1-3.8-5.7-6.9l6.8-4.1c2,3.7,4.4,5.6,7,5.6
				c1.4,0,2.5-0.4,3.5-1.2c0.9-0.8,1.4-1.7,1.4-2.8c0-1-0.4-1.9-1.1-2.9c-0.7-1-2.3-2.4-4.7-4.4c-4.6-3.7-7.6-6.6-8.9-8.7
				s-2-4.1-2-6.1c0-2.9,1.1-5.4,3.3-7.5c2.2-2.1,5-3.1,8.3-3.1c2.1,0,4.1,0.5,6,1.5C1751.3,161.6,1753.4,163.4,1755.6,166z"/>
		</g>
	</g>
	<g>
		<rect x="969.6" y="262.7" class="st6" width="385.2" height="11.9"/>
		<rect x="969.6" y="314.6" class="st6" width="385.2" height="11.9"/>
		<rect x="969.6" y="366.6" class="st6" width="385.2" height="11.9"/>
		<rect x="969.6" y="418.5" class="st6" width="385.2" height="11.9"/>
		<rect x="969.6" y="470.5" class="st6" width="385.2" height="11.9"/>
		<rect x="1079.7" y="522.4" class="st6" width="275.1" height="11.9"/>
		<rect x="1425.3" y="262.7" class="st6" width="430.3" height="11.9"/>
		<rect x="1425.3" y="314.6" class="st6" width="430.3" height="11.9"/>
		<rect x="1425.3" y="366.6" class="st6" width="430.3" height="11.9"/>
		<rect x="1425.3" y="418.5" class="st6" width="430.3" height="11.9"/>
		<rect x="1425.3" y="470.5" class="st6" width="430.3" height="11.9"/>
		<rect x="1425.3" y="522.4" class="st6" width="430.3" height="11.9"/>
	</g>
</g>
<g>
	<g>
		<g>
			<rect x="222.9" y="972.7" class="st6" width="927.6" height="776.7"/>
			<rect x="222.9" y="972.7" class="st7" width="923.5" height="64.2"/>
			<g>
				<g>
					<g>
						<rect x="338.6" y="972.7" class="st8" width="11.5" height="776.7"/>
					</g>
					<g>
						<rect x="509.8" y="972.7" class="st8" width="11.5" height="776.7"/>
					</g>
					<g>
						<rect x="681" y="972.7" class="st8" width="11.5" height="776.7"/>
					</g>
					<g>
						<rect x="852.1" y="972.7" class="st8" width="11.5" height="776.7"/>
					</g>
					<g>
						<rect x="1023.3" y="972.7" class="st8" width="11.5" height="776.7"/>
					</g>
				</g>
			</g>
		</g>
		<g>
			<g>
				<rect x="336.6" y="537.8" class="st9" width="696.2" height="436.2"/>
				<rect x="336.6" y="753.2" class="st10" width="696.2" height="22.8"/>
				<path class="st11" d="M1032.8,517.6H336.6h-14.1c-4.8,0-8.8,3.9-8.8,8.8v14.1V974h22.8V540.5h696.2V974h22.8V540.5v-14.1
					c0-4.8-3.9-8.8-8.8-8.8H1032.8z"/>
			</g>
			<g>
				<g>
					<path class="st12" d="M768.2,753.2H658.3c-3.7,0-6.7-3-6.7-6.7v-8.4c0-3.7,3-6.7,6.7-6.7h109.9c3.7,0,6.7,3,6.7,6.7v8.4
						C774.8,750.2,771.9,753.2,768.2,753.2z"/>
					<path class="st12" d="M768.2,731.5H658.3c-3.7,0-6.7-3-6.7-6.7v-8.4c0-3.7,3-6.7,6.7-6.7h109.9c3.7,0,6.7,3,6.7,6.7v8.4
						C774.8,728.5,771.9,731.5,768.2,731.5z"/>
					<path class="st12" d="M768.2,709.8H658.3c-3.7,0-6.7-3-6.7-6.7v-8.4c0-3.7,3-6.7,6.7-6.7h109.9c3.7,0,6.7,3,6.7,6.7v8.4
						C774.8,706.8,771.9,709.8,768.2,709.8z"/>
					<path class="st12" d="M768.2,688H658.3c-3.7,0-6.7-3-6.7-6.7V673c0-3.7,3-6.7,6.7-6.7h109.9c3.7,0,6.7,3,6.7,6.7v8.4
						C774.8,685.1,771.9,688,768.2,688z"/>
					<path class="st13" d="M764,684.6H662.5c-5.4,0-9.9-4-10.7-9.1c-0.1,0.6-0.2,1.1-0.2,1.7c0,6,4.9,10.9,10.9,10.9H764
						c6,0,10.9-4.9,10.9-10.9c0-0.6-0.1-1.2-0.2-1.7C773.9,680.6,769.4,684.6,764,684.6z"/>
					<path class="st13" d="M764,706.3H662.5c-5.4,0-9.9-4-10.7-9.1c-0.1,0.6-0.2,1.1-0.2,1.7c0,6,4.9,10.9,10.9,10.9H764
						c6,0,10.9-4.9,10.9-10.9c0-0.6-0.1-1.2-0.2-1.7C773.9,702.3,769.4,706.3,764,706.3z"/>
					<path class="st13" d="M764,728H662.5c-5.4,0-9.9-4-10.7-9.1c-0.1,0.6-0.2,1.1-0.2,1.7c0,6,4.9,10.9,10.9,10.9H764
						c6,0,10.9-4.9,10.9-10.9c0-0.6-0.1-1.2-0.2-1.7C773.9,724.1,769.4,728,764,728z"/>
					<path class="st13" d="M764,749.8H662.5c-5.4,0-9.9-4-10.7-9.1c-0.1,0.6-0.2,1.1-0.2,1.7c0,6,4.9,10.9,10.9,10.9H764
						c6,0,10.9-4.9,10.9-10.9c0-0.6-0.1-1.2-0.2-1.7C773.9,745.8,769.4,749.8,764,749.8z"/>
				</g>
				<g>
					<rect x="355.4" y="711.4" class="st14" width="130.6" height="5"/>
					<rect x="355.4" y="725.2" class="st15" width="130.6" height="5"/>
					<rect x="355.4" y="716.5" class="st16" width="130.6" height="8.8"/>
					<g>
						<path class="st17" d="M450.8,663h-60.3c-23.4,0-42.4,19-42.4,42.4v0c0,3.3,2.7,6,6,6h133.2c3.3,0,6-2.7,6-6v0
							C493.3,682,474.3,663,450.8,663z"/>
						<path class="st17" d="M483.8,730.3H357.5c-3.1,0-5.7,2.5-5.7,5.7c0,9.5,7.7,17.3,17.3,17.3h103.1c9.5,0,17.3-7.7,17.3-17.3
							C489.5,732.8,487,730.3,483.8,730.3z"/>
						<path class="st18" d="M472.2,750.7H369.1c-9,0-16.4-6.8-17.2-15.6c0,0.3-0.1,0.6-0.1,0.8c0,9.5,7.7,17.3,17.3,17.3h103.1
							c9.5,0,17.3-7.7,17.3-17.3c0-0.3,0-0.6-0.1-0.8C488.6,743.8,481.2,750.7,472.2,750.7z"/>
					</g>
					<rect x="355.4" y="711.4" class="st19" width="130.6" height="1.4"/>
				</g>
				<g>
					<g>
						<rect x="789.4" y="641.7" class="st20" width="47.3" height="111.5"/>
						<rect x="787.2" y="634.9" class="st21" width="51.8" height="6.8"/>
						<polygon class="st20" points="822.3,608 813.1,608 803.8,608 793.2,634.9 813.1,634.9 832.9,634.9 						"/>
						<rect x="789.4" y="641.7" class="st22" width="47.3" height="2.8"/>
					</g>
					<g>
						<rect x="844.6" y="641.7" class="st23" width="47.3" height="111.5"/>
						<rect x="842.3" y="634.9" class="st24" width="51.8" height="6.8"/>
						<polygon class="st23" points="877.5,608 868.2,608 859,608 848.4,634.9 868.2,634.9 888.1,634.9 						"/>
						<rect x="844.6" y="641.7" class="st25" width="47.3" height="2.8"/>
					</g>
				</g>
				<g>
					<rect x="500.5" y="711.4" class="st14" width="130.6" height="5"/>
					<rect x="500.5" y="725.2" class="st15" width="130.6" height="5"/>
					<rect x="500.5" y="716.5" class="st16" width="130.6" height="8.8"/>
					<g>
						<path class="st17" d="M596,663h-60.3c-23.4,0-42.4,19-42.4,42.4v0c0,3.3,2.7,6,6,6h133.2c3.3,0,6-2.7,6-6v0
							C638.4,682,619.4,663,596,663z"/>
						<path class="st17" d="M629,730.3H502.7c-3.1,0-5.7,2.5-5.7,5.7c0,9.5,7.7,17.3,17.3,17.3h103.1c9.5,0,17.3-7.7,17.3-17.3
							C634.6,732.8,632.1,730.3,629,730.3z"/>
						<path class="st18" d="M617.4,750.7H514.3c-9,0-16.4-6.8-17.2-15.6c0,0.3-0.1,0.6-0.1,0.8c0,9.5,7.7,17.3,17.3,17.3h103.1
							c9.5,0,17.3-7.7,17.3-17.3c0-0.3,0-0.6-0.1-0.8C633.7,743.8,626.3,750.7,617.4,750.7z"/>
					</g>
					<rect x="500.5" y="711.4" class="st19" width="130.6" height="1.4"/>
				</g>
				<g>
					<path class="st26" d="M916.1,688.8v58.7c0,3.2,2.6,5.8,5.8,5.8h77.7c3.2,0,5.8-2.6,5.8-5.8v-58.7H916.1z"/>
					<rect x="913.9" y="683.9" class="st27" width="93.6" height="4.9"/>
					<rect x="916.1" y="688.8" class="st28" width="89.2" height="2.1"/>
					<path class="st29" d="M929.4,683.9l-6.2-25.9c-0.5-2,1-3.8,3-3.8h4.7c0.9,0,1.7-0.4,2.3-1l2.7-2.9c1.4-1.4,3.7-1.3,4.8,0.3
						l1.9,2.7c0.8,1.2,2.4,1.7,3.8,1.1l1.1-0.5c2.1-0.9,4.3,0.6,4.3,2.9v0.7c0,1.8,1.5,3.2,3.2,3.1l3.5-0.2c1.8-0.1,3.2,1.3,3.2,3.1
						v1.6c0,1.3,0.8,2.5,2.1,2.9l1.2,0.4c1.7,0.6,2.6,2.5,1.8,4.2l0,0c-0.7,1.7,0.2,3.6,1.9,4.2l0.2,0.1c1.6,0.5,2.5,2.1,2.1,3.7
						l-0.8,3.1H929.4z"/>
					<path class="st30" d="M993.9,683.9l6.2-25.9c0.5-2-1-3.8-3-3.8h-4.7c-0.9,0-1.7-0.4-2.3-1l-2.7-2.9c-1.4-1.4-3.7-1.3-4.8,0.3
						l-1.9,2.7c-0.8,1.2-2.4,1.7-3.8,1.1l-1.1-0.5c-2.1-0.9-4.3,0.6-4.3,2.9v0.7c0,1.8-1.5,3.2-3.2,3.1l-3.5-0.2
						c-1.8-0.1-3.2,1.3-3.2,3.1v1.6c0,1.3-0.8,2.5-2.1,2.9l-1.2,0.4c-1.7,0.6-2.6,2.5-1.8,4.2l0,0c0.7,1.7-0.2,3.6-1.9,4.2l-0.2,0.1
						c-1.6,0.5-2.5,2.1-2.1,3.7l0.8,3.1H993.9z"/>
					<path class="st19" d="M1005,683.9l5.7-23.8c0.4-1.8-0.9-3.5-2.8-3.5h-4.3c-0.8,0-1.5-0.3-2.1-0.9L999,653
						c-1.2-1.3-3.4-1.2-4.4,0.3l-1.7,2.5c-0.8,1.1-2.2,1.5-3.5,1l-1-0.4c-1.9-0.8-4,0.6-4,2.6v0.6c0,1.6-1.4,2.9-3,2.9l-3.2-0.1
						c-1.6-0.1-3,1.2-3,2.9v1.5c0,1.2-0.8,2.3-1.9,2.7l-1.1,0.4c-1.6,0.5-2.3,2.3-1.7,3.8l0,0c0.7,1.5-0.1,3.3-1.8,3.8l-0.2,0
						c-1.4,0.5-2.3,2-1.9,3.4l0.8,2.9H1005z"/>
					<path class="st19" d="M918.3,683.9l-5.7-23.8c-0.4-1.8,0.9-3.5,2.8-3.5h4.3c0.8,0,1.5-0.3,2.1-0.9l2.4-2.6
						c1.2-1.3,3.4-1.2,4.4,0.3l1.7,2.5c0.8,1.1,2.2,1.5,3.5,1l1-0.4c1.9-0.8,4,0.6,4,2.6v0.6c0,1.6,1.4,2.9,3,2.9l3.2-0.1
						c1.6-0.1,3,1.2,3,2.9v1.5c0,1.2,0.8,2.3,1.9,2.7l1.1,0.4c1.6,0.5,2.3,2.3,1.7,3.8l0,0c-0.7,1.5,0.1,3.3,1.8,3.8l0.2,0
						c1.4,0.5,2.3,2,1.9,3.4l-0.8,2.9H918.3z"/>
				</g>
				<polygon class="st31" points="927.4,682.3 965.7,682.3 965.3,683.9 927.8,683.9 				"/>
				<polygon class="st31" points="1014.8,682.3 976.5,682.3 976.9,683.9 1014.4,683.9 				"/>
			</g>
			<g>
				<g>
					
						<rect x="717.5" y="932.4" transform="matrix(-1 -4.491264e-11 4.491264e-11 -1 1565.5552 1869.8612)" class="st14" width="130.6" height="5"/>
					
						<rect x="717.5" y="946.2" transform="matrix(-1 -4.489177e-11 4.489177e-11 -1 1565.5552 1897.4808)" class="st15" width="130.6" height="5"/>
					
						<rect x="717.5" y="937.5" transform="matrix(-1 -4.493351e-11 4.493351e-11 -1 1565.5552 1883.671)" class="st16" width="130.6" height="8.8"/>
					<g>
						<path class="st17" d="M752.6,884h60.3c23.4,0,42.4,19,42.4,42.4v0c0,3.3-2.7,6-6,6H716.2c-3.3,0-6-2.7-6-6v0
							C710.2,903,729.2,884,752.6,884z"/>
						<path class="st17" d="M719.6,951.3h126.3c3.1,0,5.7,2.5,5.7,5.7c0,9.5-7.7,17.3-17.3,17.3H731.2c-9.5,0-17.3-7.7-17.3-17.3
							C714,953.8,716.5,951.3,719.6,951.3z"/>
						<path class="st18" d="M731.2,971.7h103.1c9,0,16.4-6.8,17.2-15.6c0,0.3,0.1,0.6,0.1,0.8c0,9.5-7.7,17.3-17.3,17.3H731.2
							c-9.5,0-17.3-7.7-17.3-17.3c0-0.3,0-0.6,0.1-0.8C714.9,964.8,722.3,971.7,731.2,971.7z"/>
					</g>
					
						<rect x="717.5" y="932.4" transform="matrix(-1 -4.489177e-11 4.489177e-11 -1 1565.5552 1866.2358)" class="st19" width="130.6" height="1.4"/>
				</g>
				<g>
					<g>
						
							<rect x="529.4" y="863.7" transform="matrix(-1 -4.484913e-11 4.484913e-11 -1 1106.1322 1838.8232)" class="st20" width="47.3" height="111.5"/>
						
							<rect x="527.2" y="856.9" transform="matrix(-1 -4.489621e-11 4.489621e-11 -1 1106.1322 1720.5308)" class="st21" width="51.8" height="6.8"/>
						<polygon class="st20" points="543.8,829.9 553.1,829.9 562.3,829.9 572.9,856.9 553.1,856.9 533.2,856.9 						"/>
						
							<rect x="529.4" y="863.7" transform="matrix(-1 -4.490687e-11 4.490687e-11 -1 1106.1322 1730.1195)" class="st22" width="47.3" height="2.8"/>
					</g>
					<g>
						
							<rect x="474.2" y="863.7" transform="matrix(-1 -4.492596e-11 4.492596e-11 -1 995.8287 1838.8232)" class="st23" width="47.3" height="111.5"/>
						
							<rect x="472" y="856.9" transform="matrix(-1 -4.487844e-11 4.487844e-11 -1 995.8287 1720.5308)" class="st24" width="51.8" height="6.8"/>
						<polygon class="st23" points="488.7,829.9 497.9,829.9 507.2,829.9 517.8,856.9 497.9,856.9 478.1,856.9 						"/>
						
							<rect x="474.2" y="863.7" transform="matrix(-1 -4.484913e-11 4.484913e-11 -1 995.8287 1730.1195)" class="st25" width="47.3" height="2.8"/>
					</g>
				</g>
				<g>
					<path class="st26" d="M450,910.7v58.7c0,3.2-2.6,5.8-5.8,5.8h-77.7c-3.2,0-5.8-2.6-5.8-5.8v-58.7H450z"/>
					
						<rect x="358.6" y="905.8" transform="matrix(-1 -4.491397e-11 4.491397e-11 -1 810.8397 1816.5537)" class="st27" width="93.6" height="4.9"/>
					
						<rect x="360.8" y="910.7" transform="matrix(-1 -4.489266e-11 4.489266e-11 -1 810.8397 1823.5582)" class="st28" width="89.2" height="2.1"/>
					<path class="st29" d="M436.7,905.8l6.2-25.9c0.5-2-1-3.8-3-3.8h-4.7c-0.9,0-1.7-0.4-2.3-1l-2.7-2.9c-1.4-1.4-3.7-1.3-4.8,0.3
						l-1.9,2.7c-0.8,1.2-2.4,1.7-3.8,1.1l-1.1-0.5c-2.1-0.9-4.3,0.6-4.3,2.9v0.7c0,1.8-1.5,3.2-3.2,3.1l-3.5-0.2
						c-1.8-0.1-3.2,1.3-3.2,3.1v1.6c0,1.3-0.8,2.5-2.1,2.9l-1.2,0.4c-1.7,0.6-2.6,2.5-1.8,4.2l0,0c0.7,1.7-0.2,3.6-1.9,4.2l-0.2,0.1
						c-1.6,0.5-2.5,2.1-2.1,3.7l0.8,3.1H436.7z"/>
					<path class="st30" d="M372.3,905.8l-6.2-25.9c-0.5-2,1-3.8,3-3.8h4.7c0.9,0,1.7-0.4,2.3-1l2.7-2.9c1.4-1.4,3.7-1.3,4.8,0.3
						l1.9,2.7c0.8,1.2,2.4,1.7,3.8,1.1l1.1-0.5c2.1-0.9,4.3,0.6,4.3,2.9v0.7c0,1.8,1.5,3.2,3.2,3.1l3.5-0.2c1.8-0.1,3.2,1.3,3.2,3.1
						v1.6c0,1.3,0.8,2.5,2.1,2.9l1.2,0.4c1.7,0.6,2.6,2.5,1.8,4.2l0,0c-0.7,1.7,0.2,3.6,1.9,4.2l0.2,0.1c1.6,0.5,2.5,2.1,2.1,3.7
						l-0.8,3.1H372.3z"/>
					<path class="st19" d="M361.1,905.8l-5.7-23.8c-0.4-1.8,0.9-3.5,2.8-3.5h4.3c0.8,0,1.5-0.3,2.1-0.9l2.4-2.6
						c1.2-1.3,3.4-1.2,4.4,0.3l1.7,2.5c0.8,1.1,2.2,1.5,3.5,1l1-0.4c1.9-0.8,4,0.6,4,2.6v0.6c0,1.6,1.4,2.9,3,2.9l3.2-0.1
						c1.6-0.1,3,1.2,3,2.9v1.5c0,1.2,0.8,2.3,1.9,2.7l1.1,0.4c1.6,0.5,2.3,2.3,1.7,3.8l0,0c-0.7,1.5,0.1,3.3,1.8,3.8l0.2,0
						c1.4,0.5,2.3,2,1.9,3.4l-0.8,2.9H361.1z"/>
					<path class="st19" d="M447.9,905.8l5.7-23.8c0.4-1.8-0.9-3.5-2.8-3.5h-4.3c-0.8,0-1.5-0.3-2.1-0.9l-2.4-2.6
						c-1.2-1.3-3.4-1.2-4.4,0.3l-1.7,2.5c-0.8,1.1-2.2,1.5-3.5,1l-1-0.4c-1.9-0.8-4,0.6-4,2.6v0.6c0,1.6-1.4,2.9-3,2.9l-3.2-0.1
						c-1.6-0.1-3,1.2-3,2.9v1.5c0,1.2-0.8,2.3-1.9,2.7l-1.1,0.4c-1.6,0.5-2.3,2.3-1.7,3.8l0,0c0.7,1.5-0.1,3.3-1.8,3.8l-0.2,0
						c-1.4,0.5-2.3,2-1.9,3.4l0.8,2.9H447.9z"/>
				</g>
				<polygon class="st31" points="438.8,904.2 400.4,904.2 400.8,905.8 438.4,905.8 				"/>
				<polygon class="st31" points="351.3,904.2 389.7,904.2 389.2,905.8 351.7,905.8 				"/>
				<g>
					<g>
						<g>
							<circle class="st32" cx="646.1" cy="889.2" r="24.9"/>
							<circle class="st33" cx="646.1" cy="889.2" r="20.8"/>
						</g>
						<g>
							<path class="st34" d="M627.7,878.5c-1.4,0-2.8,0.1-4.2,0.4c-1.4,3.2-2.3,6.7-2.3,10.4c0,13.7,11.1,24.9,24.9,24.9
								c13.7,0,24.9-11.1,24.9-24.9c0-3.4-0.7-6.6-1.9-9.5c-1.5-0.3-3-0.4-4.6-0.4c0,0-0.1,0-0.1,0c1.6,2.9,2.5,6.3,2.5,9.9
								c0,11.5-9.3,20.8-20.8,20.8c-11.5,0-20.8-9.3-20.8-20.8c0-3.9,1.1-7.6,3-10.7C628.1,878.5,627.9,878.5,627.7,878.5"/>
							<path class="st35" d="M628.3,878.5c-1.9,3.1-3,6.8-3,10.7c0,11.5,9.3,20.8,20.8,20.8c11.5,0,20.8-9.3,20.8-20.8
								c0-3.6-0.9-7-2.5-9.9c-7.1,0-13.4,3-17.9,7.8C642.1,882,635.6,878.7,628.3,878.5"/>
						</g>
						<g>
							<circle class="st32" cx="627.5" cy="907.5" r="24.9"/>
							<circle class="st33" cx="627.5" cy="907.5" r="20.8"/>
						</g>
						<g>
							<circle class="st32" cx="664.3" cy="908.3" r="24.9"/>
							<circle class="st33" cx="664.3" cy="908.3" r="20.8"/>
						</g>
					</g>
					<g>
						<path class="st26" d="M690.5,910.7v58.7c0,3.2-2.6,5.8-5.8,5.8H607c-3.2,0-5.8-2.6-5.8-5.8v-58.7H690.5z"/>
						
							<rect x="599.1" y="905.8" transform="matrix(-1 -4.488466e-11 4.488466e-11 -1 1291.7687 1816.5537)" class="st27" width="93.6" height="4.9"/>
						
							<rect x="601.3" y="910.7" transform="matrix(-1 -4.494373e-11 4.494373e-11 -1 1291.7687 1823.5582)" class="st28" width="89.2" height="2.1"/>
					</g>
				</g>
				<g>
					<path class="st26" d="M869.1,964c0,5.6,4.5,10.1,10.1,10.1h124.2c5.6,0,10.1-4.5,10.1-10.1H869.1z"/>
					<path class="st36" d="M1004.2,972.1H878.3c-3.6,0-6.8-1.9-8.6-4.7c1.4,3.9,5.1,6.6,9.5,6.6h124.2c4.3,0,8-2.8,9.5-6.6
						C1011,970.2,1007.8,972.1,1004.2,972.1z"/>
					<path class="st26" d="M869.1,953.9c0,5.6,4.5,10.1,10.1,10.1h124.2c5.6,0,10.1-4.5,10.1-10.1H869.1z"/>
					<path class="st36" d="M1004.2,962H878.3c-3.6,0-6.8-1.9-8.6-4.7c1.4,3.9,5.1,6.6,9.5,6.6h124.2c4.3,0,8-2.8,9.5-6.6
						C1011,960.2,1007.8,962,1004.2,962z"/>
					<path class="st26" d="M869.1,943.8c0,5.6,4.5,10.1,10.1,10.1h124.2c5.6,0,10.1-4.5,10.1-10.1H869.1z"/>
					<path class="st36" d="M1004.2,952H878.3c-3.6,0-6.8-1.9-8.6-4.7c1.4,3.9,5.1,6.6,9.5,6.6h124.2c4.3,0,8-2.8,9.5-6.6
						C1011,950.1,1007.8,952,1004.2,952z"/>
					<path class="st26" d="M869.1,933.8c0,5.6,4.5,10.1,10.1,10.1h124.2c5.6,0,10.1-4.5,10.1-10.1H869.1z"/>
					<path class="st36" d="M1004.2,941.9H878.3c-3.6,0-6.8-1.9-8.6-4.7c1.4,3.9,5.1,6.6,9.5,6.6h124.2c4.3,0,8-2.8,9.5-6.6
						C1011,940,1007.8,941.9,1004.2,941.9z"/>
					<path class="st26" d="M869.1,923.7c0,5.6,4.5,10.1,10.1,10.1h124.2c5.6,0,10.1-4.5,10.1-10.1H869.1z"/>
					<path class="st36" d="M1004.2,931.8H878.3c-3.6,0-6.8-1.9-8.6-4.7c1.4,3.9,5.1,6.6,9.5,6.6h124.2c4.3,0,8-2.8,9.5-6.6
						C1011,930,1007.8,931.8,1004.2,931.8z"/>
					<path class="st26" d="M869.1,913.6c0,5.6,4.5,10.1,10.1,10.1h124.2c5.6,0,10.1-4.5,10.1-10.1H869.1z"/>
					<path class="st36" d="M1004.2,921.8H878.3c-3.6,0-6.8-1.9-8.6-4.7c1.4,3.9,5.1,6.6,9.5,6.6h124.2c4.3,0,8-2.8,9.5-6.6
						C1011,919.9,1007.8,921.8,1004.2,921.8z"/>
					<path class="st26" d="M869.1,903.5c0,5.6,4.5,10.1,10.1,10.1h124.2c5.6,0,10.1-4.5,10.1-10.1H869.1z"/>
					<path class="st36" d="M1004.2,911.7H878.3c-3.6,0-6.8-1.9-8.6-4.7c1.4,3.9,5.1,6.6,9.5,6.6h124.2c4.3,0,8-2.8,9.5-6.6
						C1011,909.8,1007.8,911.7,1004.2,911.7z"/>
					<path class="st26" d="M869.1,893.5c0,5.6,4.5,10.1,10.1,10.1h124.2c5.6,0,10.1-4.5,10.1-10.1H869.1z"/>
					<path class="st36" d="M1004.2,901.6H878.3c-3.6,0-6.8-1.9-8.6-4.7c1.4,3.9,5.1,6.6,9.5,6.6h124.2c4.3,0,8-2.8,9.5-6.6
						C1011,899.8,1007.8,901.6,1004.2,901.6z"/>
				</g>
			</g>
		</g>
	</g>
	<g>
		<g>
			<g>
				<rect x="2251.4" y="687.2" class="st4" width="58.5" height="39.4"/>
				<rect x="2154.8" y="726.6" class="st4" width="251.8" height="367.5"/>
				<polygon class="st37" points="2368.2,1094.1 2368.2,803.3 2302.7,726.6 2162.1,726.6 2162.1,1094.1 				"/>
				<polygon class="st4" points="2360.8,1094.1 2360.8,803.3 2295.4,726.6 2154.8,726.6 2154.8,1094.1 				"/>
				<path class="st38" d="M2309.9,585.1h-58.5v116.5c5.9,1.6,12.2,2.4,18.6,2.4h21.2c6.4,0,12.7-0.8,18.6-2.4V585.1z"/>
				<path class="st4" d="M2067.9,931.6c-14.8,0-28.9-5.9-39.4-16.8l-94.6-98l40.3-38.9l93.5,96.9l86.3-148.2l48.4,28.2l-87.1,149.5
					c-8.7,15-23.6,24.8-40.9,26.9C2072.3,931.4,2070.1,931.6,2067.9,931.6z"/>
				<circle class="st39" cx="1935.7" cy="778.2" r="41.8"/>
				<path class="st4" d="M2473.5,1017.1l-47-39.6c-8.4-7.1-14.3-16.8-16.6-27.5l-53.7-210.2l50.4-13.2l54,211.5l46.5,39.1
					L2473.5,1017.1z"/>
				<circle class="st39" cx="2505.2" cy="1005.3" r="35.4"/>
			</g>
			<rect x="2154.8" y="1094.1" class="st4" width="251.8" height="90.9"/>
			<rect x="2154.8" y="1094.1" class="st40" width="57.7" height="18.6"/>
		</g>
		<g>
			<g>
				<path class="st39" d="M2356.4,437.9H2205c-4.3,0-7.8,3.5-7.8,7.8v174.4c0,43.8,35.5,79.3,79.3,79.3h8.4
					c43.8,0,79.3-35.5,79.3-79.3V445.7C2364.1,441.4,2360.7,437.9,2356.4,437.9z"/>
				<path class="st41" d="M2302.6,538.6L2302.6,538.6c0,16.6-13.5,30.1-30.1,30.1h-65.9c-5.2,0-9.4,4.2-9.4,9.4v46.5
					c0,0-11.4-17.2-9.8-86H2302.6z"/>
				<path class="st41" d="M2302.6,538.6L2302.6,538.6c0,16.6,13.5,30.1,30.1,30.1h23.8c4.3,0,7.7,3.5,7.7,7.7v44.5
					c0,0,10.8-41.9,9.8-82.3H2302.6z"/>
				<g>
					<g>
						<path class="st42" d="M2251.8,632.6h-26.1c-10.1,0-18.3-7.6-18.3-17v-24.5c0-1.3,1.1-2.3,2.5-2.3h57.7c1.4,0,2.5,1,2.5,2.3
							v24.5C2270.1,625,2261.9,632.6,2251.8,632.6z M2212.4,593.5v22.2c0,6.8,6,12.4,13.4,12.4h26.1c7.4,0,13.4-5.6,13.4-12.4v-22.2
							H2212.4z"/>
						<path class="st42" d="M2335.6,632.6h-26.1c-10.1,0-18.3-7.6-18.3-17v-24.5c0-1.3,1.1-2.3,2.5-2.3h57.7c1.4,0,2.5,1,2.5,2.3
							v24.5C2353.9,625,2345.7,632.6,2335.6,632.6z M2296.2,593.5v22.2c0,6.8,6,12.4,13.4,12.4h26.1c7.4,0,13.4-5.6,13.4-12.4v-22.2
							H2296.2z"/>
						<path class="st42" d="M2293.7,607.7h-26.1c-1.4,0-2.5-1-2.5-2.3s1.1-2.3,2.5-2.3h26.1c1.4,0,2.5,1,2.5,2.3
							S2295.1,607.7,2293.7,607.7z"/>
					</g>
					<g>
						<path class="st43" d="M2326.9,618.4h-8.6c-1.8,0-3.3-1.5-3.3-3.3v-8.6c0-1.8,1.5-3.3,3.3-3.3h8.6c1.8,0,3.3,1.5,3.3,3.3v8.6
							C2330.2,616.9,2328.7,618.4,2326.9,618.4z"/>
						<path class="st43" d="M2243.1,618.4h-8.6c-1.8,0-3.3-1.5-3.3-3.3v-8.6c0-1.8,1.5-3.3,3.3-3.3h8.6c1.8,0,3.3,1.5,3.3,3.3v8.6
							C2246.4,616.9,2244.9,618.4,2243.1,618.4z"/>
					</g>
				</g>
				<path class="st44" d="M2301.3,661.9h-41.2c-2,0-3.6-1.6-3.6-3.6v-4.7h48.5v4.7C2304.9,660.3,2303.3,661.9,2301.3,661.9z"/>
			</g>
			<g>
				<path class="st4" d="M2376.5,545.7h-191.6c-1.1,0-2-0.9-2-2v-47.2c0-1.1,0.9-2,2-2h191.6c1.1,0,2,0.9,2,2v47.2
					C2378.5,544.8,2377.6,545.7,2376.5,545.7z"/>
				<path class="st4" d="M2381.7,374.6c0-20.9-16.9-37.9-37.9-37.9c-13.2,0-24.8,6.8-31.6,17.1c-6.8-10.3-18.4-17.1-31.6-17.1
					c-13.2,0-24.8,6.8-31.6,17.1c-6.8-10.3-18.4-17.1-31.6-17.1c-20.9,0-37.9,16.9-37.9,37.9c0,13.4,7,25.2,17.6,31.9v87.9h167
					v-87.9C2374.7,399.8,2381.7,388,2381.7,374.6z"/>
				<rect x="2197.2" y="489.6" class="st45" width="167" height="4.9"/>
				<path class="st45" d="M2248.3,489.6h-6.5v-81.1c0-0.8,0.6-1.4,1.4-1.4h3.7c0.8,0,1.4,0.6,1.4,1.4V489.6z"/>
				<path class="st45" d="M2321.7,489.6h-6.5l0-81.1c0-0.8,0.6-1.4,1.4-1.4h3.7c0.8,0,1.4,0.6,1.4,1.4L2321.7,489.6z"/>
			</g>
		</g>
		<g>
			<path class="st26" d="M1840.8,762.1c0,6.8,5.5,12.4,12.4,12.4h152.4c6.8,0,12.4-5.5,12.4-12.4H1840.8z"/>
			<g>
				<path class="st36" d="M2006.6,772.1h-154.4c-4.5,0-8.4-2.3-10.6-5.8c1.7,4.7,6.3,8.1,11.6,8.1h152.4c5.3,0,9.9-3.4,11.6-8.1
					C2014.9,769.8,2011,772.1,2006.6,772.1z"/>
				<g>
					
						<rect x="1872.8" y="725.9" transform="matrix(-1 -4.487800e-11 4.487800e-11 -1 3858.7136 1456.2013)" class="st14" width="113.1" height="4.4"/>
					
						<rect x="1872.8" y="737.9" transform="matrix(-1 -4.490198e-11 4.490198e-11 -1 3858.7136 1480.1058)" class="st15" width="113.1" height="4.4"/>
					
						<rect x="1872.8" y="730.3" transform="matrix(-1 -4.489399e-11 4.489399e-11 -1 3858.7136 1468.1536)" class="st16" width="113.1" height="7.6"/>
					<g>
						<path class="st17" d="M1903.3,684h52.2c20.3,0,36.7,16.4,36.7,36.7v0c0,2.9-2.3,5.2-5.2,5.2h-115.3c-2.9,0-5.2-2.3-5.2-5.2v0
							C1866.5,700.5,1883,684,1903.3,684z"/>
						<path class="st17" d="M1874.7,742.2H1984c2.7,0,4.9,2.2,4.9,4.9c0,8.3-6.7,15-15,15h-89.2c-8.3,0-15-6.7-15-15
							C1869.8,744.4,1872,742.2,1874.7,742.2z"/>
						<path class="st18" d="M1884.8,759.9h89.2c7.8,0,14.2-5.9,14.9-13.5c0,0.2,0.1,0.5,0.1,0.7c0,8.3-6.7,15-15,15h-89.2
							c-8.3,0-15-6.7-15-15c0-0.2,0-0.5,0.1-0.7C1870.6,754,1877,759.9,1884.8,759.9z"/>
					</g>
					
						<rect x="1872.8" y="725.9" transform="matrix(-1 -4.487800e-11 4.487800e-11 -1 3858.7136 1453.0636)" class="st19" width="113.1" height="1.2"/>
				</g>
			</g>
		</g>
	</g>
	<g>
		<g>
			<g>
				
					<rect x="1330.2" y="984.9" transform="matrix(-1 -4.484913e-11 4.484913e-11 -1 2707.7954 2081.3423)" class="st20" width="47.3" height="111.5"/>
				
					<rect x="1328" y="978.1" transform="matrix(-1 -4.494861e-11 4.494861e-11 -1 2707.7954 1963.0498)" class="st21" width="51.8" height="6.8"/>
				<polygon class="st20" points="1344.6,951.2 1353.9,951.2 1363.1,951.2 1373.8,978.1 1353.9,978.1 1334,978.1 				"/>
				
					<rect x="1330.2" y="984.9" transform="matrix(-1 -4.492596e-11 4.492596e-11 -1 2707.7954 1972.6385)" class="st22" width="47.3" height="2.8"/>
			</g>
			<g>
				
					<rect x="1275.1" y="984.9" transform="matrix(-1 -4.492596e-11 4.492596e-11 -1 2597.4919 2081.3423)" class="st23" width="47.3" height="111.5"/>
				
					<rect x="1272.8" y="978.1" transform="matrix(-1 -4.493129e-11 4.493129e-11 -1 2597.4919 1963.0498)" class="st24" width="51.8" height="6.8"/>
				<polygon class="st23" points="1289.5,951.2 1298.7,951.2 1308,951.2 1318.6,978.1 1298.7,978.1 1278.9,978.1 				"/>
				
					<rect x="1275.1" y="984.9" transform="matrix(-1 -4.486823e-11 4.486823e-11 -1 2597.4919 1972.6385)" class="st25" width="47.3" height="2.8"/>
			</g>
		</g>
		<g>
			<g>
				<ellipse class="st46" cx="1440.5" cy="958.1" rx="13.5" ry="19.7"/>
				<rect x="1437.3" y="972.7" class="st46" width="6.3" height="65"/>
			</g>
			<g>
				
					<ellipse transform="matrix(0.9756 -0.2194 0.2194 0.9756 -177.5657 333.4042)" class="st46" cx="1412.6" cy="966.3" rx="13.5" ry="19.7"/>
				
					<rect x="1419.8" y="979.7" transform="matrix(0.9756 -0.2194 0.2194 0.9756 -187.3858 336.7869)" class="st46" width="6.3" height="65"/>
			</g>
			<g>
				<path class="st46" d="M1474.4,948.7l-1.7,24.4c0,0.6-0.6,1.1-1.2,1.1l-2.3-0.2c-0.6,0-1.1-0.6-1.1-1.2l1.7-24.4
					c0-0.3-0.2-0.6-0.5-0.6l-1.6-0.1c-0.3,0-0.6,0.2-0.6,0.5l-1.7,24.4c0,0.6-0.6,1.1-1.2,1.1l-2.3-0.2c-0.6,0-1.1-0.6-1.1-1.2
					l1.7-24.4c0-0.3-0.2-0.6-0.5-0.6l-1.5-0.1c-0.3,0-0.6,0.2-0.6,0.5l-1.9,26.6c-0.3,3.7,2.5,6.8,6.2,7.1l3.9,0.3
					c3.7,0.3,6.8-2.5,7.1-6.2l1.9-26.6c0-0.3-0.2-0.6-0.5-0.6l-1.5-0.1C1474.7,948.1,1474.4,948.4,1474.4,948.7z"/>
				
					<rect x="1461.4" y="979.6" transform="matrix(0.9976 6.962742e-02 -6.962742e-02 0.9976 73.9324 -99.485)" class="st46" width="5.3" height="62.4"/>
			</g>
			<g>
				<path class="st46" d="M1496.9,946l-3.2,24.3c-0.1,0.6-0.7,1.1-1.3,1l-2.3-0.3c-0.6-0.1-1.1-0.7-1-1.3l3.2-24.3
					c0-0.3-0.2-0.6-0.5-0.6l-1.6-0.2c-0.3,0-0.6,0.2-0.6,0.5l-3.2,24.3c-0.1,0.6-0.7,1.1-1.3,1l-2.3-0.3c-0.6-0.1-1.1-0.7-1-1.3
					l3.2-24.3c0-0.3-0.2-0.6-0.5-0.6l-1.4-0.2c-0.3,0-0.6,0.2-0.6,0.5l-3.5,26.4c-0.5,3.6,2.1,7,5.7,7.4l3.8,0.5
					c3.6,0.5,7-2.1,7.4-5.7l3.5-26.4c0-0.3-0.2-0.6-0.5-0.6l-1.4-0.2C1497.3,945.4,1497,945.7,1496.9,946z"/>
				
					<rect x="1480.2" y="976.1" transform="matrix(0.9915 0.13 -0.13 0.9915 143.4991 -184.1834)" class="st46" width="5.3" height="62.4"/>
			</g>
			<g>
				<polygon class="st47" points="1455.7,1001.3 1408.8,1001.3 1420.7,1096.4 1455.7,1096.4 1490.8,1096.4 1502.7,1001.3 				"/>
				<rect x="1405" y="992.6" class="st27" width="101.5" height="8.7"/>
				<polygon class="st48" points="1408.8,1001.3 1409.3,1005.5 1502.1,1005.5 1502.7,1001.3 				"/>
			</g>
		</g>
		<g>
			<path class="st26" d="M1992.8,1086c0,5.6,4.5,10.1,10.1,10.1h124.2c5.6,0,10.1-4.5,10.1-10.1H1992.8z"/>
			<path class="st36" d="M2127.9,1094.2H2002c-3.6,0-6.8-1.9-8.6-4.7c1.4,3.9,5.1,6.6,9.5,6.6h124.2c4.3,0,8-2.8,9.5-6.6
				C2134.7,1092.3,2131.5,1094.2,2127.9,1094.2z"/>
			<path class="st26" d="M1992.8,1076c0,5.6,4.5,10.1,10.1,10.1h124.2c5.6,0,10.1-4.5,10.1-10.1H1992.8z"/>
			<path class="st36" d="M2127.9,1084.1H2002c-3.6,0-6.8-1.9-8.6-4.7c1.4,3.9,5.1,6.6,9.5,6.6h124.2c4.3,0,8-2.8,9.5-6.6
				C2134.7,1082.2,2131.5,1084.1,2127.9,1084.1z"/>
			<path class="st26" d="M1992.8,1065.9c0,5.6,4.5,10.1,10.1,10.1h124.2c5.6,0,10.1-4.5,10.1-10.1H1992.8z"/>
			<path class="st36" d="M2127.9,1074.1H2002c-3.6,0-6.8-1.9-8.6-4.7c1.4,3.9,5.1,6.6,9.5,6.6h124.2c4.3,0,8-2.8,9.5-6.6
				C2134.7,1072.2,2131.5,1074.1,2127.9,1074.1z"/>
			<path class="st26" d="M1992.8,1055.8c0,5.6,4.5,10.1,10.1,10.1h124.2c5.6,0,10.1-4.5,10.1-10.1H1992.8z"/>
			<path class="st36" d="M2127.9,1064H2002c-3.6,0-6.8-1.9-8.6-4.7c1.4,3.9,5.1,6.6,9.5,6.6h124.2c4.3,0,8-2.8,9.5-6.6
				C2134.7,1062.1,2131.5,1064,2127.9,1064z"/>
			<path class="st26" d="M1992.8,1045.8c0,5.6,4.5,10.1,10.1,10.1h124.2c5.6,0,10.1-4.5,10.1-10.1H1992.8z"/>
			<path class="st36" d="M2127.9,1053.9H2002c-3.6,0-6.8-1.9-8.6-4.7c1.4,3.9,5.1,6.6,9.5,6.6h124.2c4.3,0,8-2.8,9.5-6.6
				C2134.7,1052,2131.5,1053.9,2127.9,1053.9z"/>
			<path class="st26" d="M1992.8,1035.7c0,5.6,4.5,10.1,10.1,10.1h124.2c5.6,0,10.1-4.5,10.1-10.1H1992.8z"/>
			<path class="st36" d="M2127.9,1043.9H2002c-3.6,0-6.8-1.9-8.6-4.7c1.4,3.9,5.1,6.6,9.5,6.6h124.2c4.3,0,8-2.8,9.5-6.6
				C2134.7,1042,2131.5,1043.9,2127.9,1043.9z"/>
			<path class="st26" d="M1992.8,1025.6c0,5.6,4.5,10.1,10.1,10.1h124.2c5.6,0,10.1-4.5,10.1-10.1H1992.8z"/>
			<path class="st36" d="M2127.9,1033.8H2002c-3.6,0-6.8-1.9-8.6-4.7c1.4,3.9,5.1,6.6,9.5,6.6h124.2c4.3,0,8-2.8,9.5-6.6
				C2134.7,1031.9,2131.5,1033.8,2127.9,1033.8z"/>
			<path class="st26" d="M1992.8,1015.6c0,5.6,4.5,10.1,10.1,10.1h124.2c5.6,0,10.1-4.5,10.1-10.1H1992.8z"/>
			<path class="st36" d="M2127.9,1023.7H2002c-3.6,0-6.8-1.9-8.6-4.7c1.4,3.9,5.1,6.6,9.5,6.6h124.2c4.3,0,8-2.8,9.5-6.6
				C2134.7,1021.8,2131.5,1023.7,2127.9,1023.7z"/>
		</g>
		<g>
			<path class="st41" d="M2638.9,1032.5v43.7c0,11.2,9,20.2,20.2,20.2h34.8c11.2,0,20.2-9,20.2-20.2v-43.7H2638.9z"/>
			<rect x="2635.5" y="1026.7" class="st49" width="81.9" height="5.8"/>
			<rect x="2638.9" y="1032.5" class="st50" width="75.2" height="2.7"/>
			<g>
				<path class="st51" d="M2667.8,946.8c0,7.7,3.4,14.5,8.7,19.2c5.3-4.7,8.7-11.6,8.7-19.2c0-7.7-3.4-14.5-8.7-19.2
					C2671.1,932.3,2667.8,939.1,2667.8,946.8z"/>
				<path class="st51" d="M2686.7,963.5c-6.2,4.6-9.7,11.3-10.3,18.4c6.9,1.5,14.5,0.1,20.6-4.5c6.2-4.6,9.7-11.3,10.3-18.4
					C2700.4,957.6,2692.9,959,2686.7,963.5z"/>
				<path class="st51" d="M2686.7,993.1c-6.2,4.6-9.7,11.3-10.3,18.4c6.9,1.5,14.5,0.1,20.6-4.5c6.2-4.6,9.7-11.3,10.3-18.4
					C2700.4,987.2,2692.9,988.6,2686.7,993.1z"/>
				<path class="st51" d="M2666.2,963.5c6.2,4.6,9.7,11.3,10.3,18.4c-6.9,1.5-14.5,0.1-20.6-4.5c-6.2-4.6-9.7-11.3-10.3-18.4
					C2652.5,957.6,2660,959,2666.2,963.5z"/>
				<path class="st51" d="M2666.2,993.1c6.2,4.6,9.7,11.3,10.3,18.4c-6.9,1.5-14.5,0.1-20.6-4.5c-6.2-4.6-9.7-11.3-10.3-18.4
					C2652.5,987.2,2660,988.6,2666.2,993.1z"/>
				<rect x="2674.2" y="959.7" class="st51" width="4.6" height="67"/>
			</g>
		</g>
		<g>
			<path class="st52" d="M2599.2,1096.4h-409.1v-34c0-2.3,1.9-4.3,4.3-4.3h400.6c2.3,0,4.3,1.9,4.3,4.3V1096.4z"/>
			<path class="st47" d="M2583.6,1058.2h-377.8V971c0-3.3,2.7-6,6-6h365.9c3.3,0,6,2.7,6,6V1058.2z"/>
			<path class="st9" d="M2563,965.1h-336.8v-18c0-2,1.7-3.7,3.7-3.7h329.4c2,0,3.7,1.7,3.7,3.7V965.1z"/>
			<rect x="2475.8" y="884.7" class="st52" width="33.6" height="58.8"/>
			<path class="st9" d="M2564.3,892.3h-143.4c-3,0-5.4-2.4-5.4-5.4v-40.6c0-3,2.4-5.4,5.4-5.4h143.4c3,0,5.4,2.4,5.4,5.4v40.6
				C2569.7,889.9,2567.2,892.3,2564.3,892.3z"/>
			<rect x="2475.8" y="892.3" class="st53" width="33.6" height="5.9"/>
		</g>
		<g>
			<rect x="1150.5" y="1153.9" class="st54" width="1610.9" height="589"/>
			<path class="st55" d="M2811,1153.9H1150.5v-57.5H2811c2.6,0,4.7,2.1,4.7,4.7v48.1C2815.7,1151.8,2813.6,1153.9,2811,1153.9z"/>
			<g>
				<g>
					<path class="st56" d="M1384.8,1227.1h-237.6v-73.1h237.6V1227.1z M1155.4,1219.1h221.3v-57.2h-221.3V1219.1z"/>
					<path class="st56" d="M1614.2,1227.1h-237.6v-73.1h237.6V1227.1z M1384.8,1219.1h221.3v-57.2h-221.3V1219.1z"/>
					<path class="st56" d="M1843.7,1227.1h-237.6v-73.1h237.6V1227.1z M1614.2,1219.1h221.3v-57.2h-221.3V1219.1z"/>
					<path class="st56" d="M2073.1,1227.1h-237.6v-73.1h237.6V1227.1z M1843.7,1219.1H2065v-57.2h-221.3V1219.1z"/>
					<path class="st56" d="M2302.5,1227.1H2065v-73.1h237.6V1227.1z M2073.1,1219.1h221.3v-57.2h-221.3V1219.1z"/>
					<path class="st56" d="M2532,1227.1h-237.6v-73.1H2532V1227.1z M2302.5,1219.1h221.3v-57.2h-221.3V1219.1z"/>
					<path class="st56" d="M2761.4,1227.1h-237.6v-73.1h237.6V1227.1z M2532,1219.1h221.3v-57.2H2532V1219.1z"/>
				</g>
				<g>
					<path class="st56" d="M1516.5,1292.9h-237.6v-73.1h237.6V1292.9z M1287,1284.9h221.3v-57.2H1287V1284.9z"/>
					<path class="st56" d="M1287.1,1292.9h-140.7v-73.1h140.7V1292.9z M1154.6,1284.9H1279v-57.2h-124.4V1284.9z"/>
					<path class="st56" d="M1745.9,1292.9h-237.6v-73.1h237.6V1292.9z M1516.5,1284.9h221.3v-57.2h-221.3V1284.9z"/>
					<path class="st56" d="M1975.3,1292.9h-237.6v-73.1h237.6V1292.9z M1745.9,1284.9h221.3v-57.2h-221.3V1284.9z"/>
					<path class="st56" d="M2204.8,1292.9h-237.6v-73.1h237.6V1292.9z M1975.3,1284.9h221.3v-57.2h-221.3V1284.9z"/>
					<path class="st56" d="M2434.2,1292.9h-237.6v-73.1h237.6V1292.9z M2204.8,1284.9h221.3v-57.2h-221.3V1284.9z"/>
					<path class="st56" d="M2663.6,1292.9h-237.6v-73.1h237.6V1292.9z M2434.2,1284.9h221.3v-57.2h-221.3V1284.9z"/>
					<path class="st56" d="M2761.4,1292.9h-105.9v-73.1h105.9V1292.9z M2663.6,1284.9h89.6v-57.2h-89.6V1284.9z"/>
				</g>
				<g>
					<path class="st56" d="M1384.8,1357.7h-237.6v-73.1h237.6V1357.7z M1155.4,1349.7h221.3v-57.2h-221.3V1349.7z"/>
					<path class="st56" d="M1614.2,1357.7h-237.6v-73.1h237.6V1357.7z M1384.8,1349.7h221.3v-57.2h-221.3V1349.7z"/>
					<path class="st56" d="M1843.7,1357.7h-237.6v-73.1h237.6V1357.7z M1614.2,1349.7h221.3v-57.2h-221.3V1349.7z"/>
					<path class="st56" d="M2073.1,1357.7h-237.6v-73.1h237.6V1357.7z M1843.7,1349.7H2065v-57.2h-221.3V1349.7z"/>
					<path class="st56" d="M2302.5,1357.7H2065v-73.1h237.6V1357.7z M2073.1,1349.7h221.3v-57.2h-221.3V1349.7z"/>
					<path class="st56" d="M2532,1357.7h-237.6v-73.1H2532V1357.7z M2302.5,1349.7h221.3v-57.2h-221.3V1349.7z"/>
					<path class="st56" d="M2761.4,1357.7h-237.6v-73.1h237.6V1357.7z M2532,1349.7h221.3v-57.2H2532V1349.7z"/>
				</g>
				<g>
					<path class="st56" d="M1516.5,1423.5h-237.6v-73.1h237.6V1423.5z M1287,1415.5h221.3v-57.2H1287V1415.5z"/>
					<path class="st56" d="M1745.9,1423.5h-237.6v-73.1h237.6V1423.5z M1516.5,1415.5h221.3v-57.2h-221.3V1415.5z"/>
					<path class="st56" d="M1975.3,1423.5h-237.6v-73.1h237.6V1423.5z M1745.9,1415.5h221.3v-57.2h-221.3V1415.5z"/>
					<path class="st56" d="M2204.8,1423.5h-237.6v-73.1h237.6V1423.5z M1975.3,1415.5h221.3v-57.2h-221.3V1415.5z"/>
					<path class="st56" d="M2434.2,1423.5h-237.6v-73.1h237.6V1423.5z M2204.8,1415.5h221.3v-57.2h-221.3V1415.5z"/>
					<path class="st56" d="M2663.6,1423.5h-237.6v-73.1h237.6V1423.5z M2434.2,1415.5h221.3v-57.2h-221.3V1415.5z"/>
					<path class="st56" d="M2761.4,1423.5h-105.9v-73.1h105.9V1423.5z M2663.6,1415.5h89.6v-57.2h-89.6V1415.5z"/>
					<path class="st56" d="M1287.1,1423.5h-140.7v-73.1h140.7V1423.5z M1154.6,1415.5H1279v-57.2h-124.4V1415.5z"/>
				</g>
				<g>
					<path class="st56" d="M1384.8,1488.2h-237.6v-73.1h237.6V1488.2z M1155.4,1480.3h221.3V1423h-221.3V1480.3z"/>
					<path class="st56" d="M1614.2,1488.2h-237.6v-73.1h237.6V1488.2z M1384.8,1480.3h221.3V1423h-221.3V1480.3z"/>
					<path class="st56" d="M1843.7,1488.2h-237.6v-73.1h237.6V1488.2z M1614.2,1480.3h221.3V1423h-221.3V1480.3z"/>
					<path class="st56" d="M2073.1,1488.2h-237.6v-73.1h237.6V1488.2z M1843.7,1480.3H2065V1423h-221.3V1480.3z"/>
					<path class="st56" d="M2302.5,1488.2H2065v-73.1h237.6V1488.2z M2073.1,1480.3h221.3V1423h-221.3V1480.3z"/>
					<path class="st56" d="M2532,1488.2h-237.6v-73.1H2532V1488.2z M2302.5,1480.3h221.3V1423h-221.3V1480.3z"/>
					<path class="st56" d="M2761.4,1488.2h-237.6v-73.1h237.6V1488.2z M2532,1480.3h221.3V1423H2532V1480.3z"/>
				</g>
				<g>
					<path class="st56" d="M1516.5,1554h-237.6v-73.1h237.6V1554z M1287,1546.1h221.3v-57.2H1287V1546.1z"/>
					<path class="st56" d="M1745.9,1554h-237.6v-73.1h237.6V1554z M1516.5,1546.1h221.3v-57.2h-221.3V1546.1z"/>
					<path class="st56" d="M1975.3,1554h-237.6v-73.1h237.6V1554z M1745.9,1546.1h221.3v-57.2h-221.3V1546.1z"/>
					<path class="st56" d="M2204.8,1554h-237.6v-73.1h237.6V1554z M1975.3,1546.1h221.3v-57.2h-221.3V1546.1z"/>
					<path class="st56" d="M2434.2,1554h-237.6v-73.1h237.6V1554z M2204.8,1546.1h221.3v-57.2h-221.3V1546.1z"/>
					<path class="st56" d="M2663.6,1554h-237.6v-73.1h237.6V1554z M2434.2,1546.1h221.3v-57.2h-221.3V1546.1z"/>
					<path class="st56" d="M2761.4,1554h-105.9v-73.1h105.9V1554z M2663.6,1546.1h89.6v-57.2h-89.6V1546.1z"/>
					<path class="st56" d="M1287.9,1554h-140.7v-73.1h140.7V1554z M1155.4,1546.1h124.4v-57.2h-124.4V1546.1z"/>
				</g>
				<g>
					<path class="st56" d="M1384.8,1618.8h-237.6v-73.1h237.6V1618.8z M1155.4,1610.8h221.3v-57.2h-221.3V1610.8z"/>
					<path class="st56" d="M1614.2,1618.8h-237.6v-73.1h237.6V1618.8z M1384.8,1610.8h221.3v-57.2h-221.3V1610.8z"/>
					<path class="st56" d="M1843.7,1618.8h-237.6v-73.1h237.6V1618.8z M1614.2,1610.8h221.3v-57.2h-221.3V1610.8z"/>
					<path class="st56" d="M2073.1,1618.8h-237.6v-73.1h237.6V1618.8z M1843.7,1610.8H2065v-57.2h-221.3V1610.8z"/>
					<path class="st56" d="M2302.5,1618.8H2065v-73.1h237.6V1618.8z M2073.1,1610.8h221.3v-57.2h-221.3V1610.8z"/>
					<path class="st56" d="M2532,1618.8h-237.6v-73.1H2532V1618.8z M2302.5,1610.8h221.3v-57.2h-221.3V1610.8z"/>
					<path class="st56" d="M2761.4,1618.8h-237.6v-73.1h237.6V1618.8z M2532,1610.8h221.3v-57.2H2532V1610.8z"/>
				</g>
				<g>
					<path class="st56" d="M1384.8,1749.4h-237.6v-73.1h237.6V1749.4z M1155.4,1741.4h221.3v-57.2h-221.3V1741.4z"/>
					<path class="st56" d="M1614.2,1749.4h-237.6v-73.1h237.6V1749.4z M1384.8,1741.4h221.3v-57.2h-221.3V1741.4z"/>
					<path class="st56" d="M1843.7,1749.4h-237.6v-73.1h237.6V1749.4z M1614.2,1741.4h221.3v-57.2h-221.3V1741.4z"/>
					<path class="st56" d="M2073.1,1749.4h-237.6v-73.1h237.6V1749.4z M1843.7,1741.4H2065v-57.2h-221.3V1741.4z"/>
					<path class="st56" d="M2302.5,1749.4H2065v-73.1h237.6V1749.4z M2073.1,1741.4h221.3v-57.2h-221.3V1741.4z"/>
					<path class="st56" d="M2532,1749.4h-237.6v-73.1H2532V1749.4z M2302.5,1741.4h221.3v-57.2h-221.3V1741.4z"/>
					<path class="st56" d="M2761.4,1749.4h-237.6v-73.1h237.6V1749.4z M2532,1741.4h221.3v-57.2H2532V1741.4z"/>
				</g>
				<g>
					<path class="st56" d="M1516.5,1684.6h-237.6v-73.1h237.6V1684.6z M1287,1676.7h221.3v-57.2H1287V1676.7z"/>
					<path class="st56" d="M1745.9,1684.6h-237.6v-73.1h237.6V1684.6z M1516.5,1676.7h221.3v-57.2h-221.3V1676.7z"/>
					<path class="st56" d="M1975.3,1684.6h-237.6v-73.1h237.6V1684.6z M1745.9,1676.7h221.3v-57.2h-221.3V1676.7z"/>
					<path class="st56" d="M2204.8,1684.6h-237.6v-73.1h237.6V1684.6z M1975.3,1676.7h221.3v-57.2h-221.3V1676.7z"/>
					<path class="st56" d="M2434.2,1684.6h-237.6v-73.1h237.6V1684.6z M2204.8,1676.7h221.3v-57.2h-221.3V1676.7z"/>
					<path class="st56" d="M2663.6,1684.6h-237.6v-73.1h237.6V1684.6z M2434.2,1676.7h221.3v-57.2h-221.3V1676.7z"/>
					<path class="st56" d="M2761.4,1684.6h-105.9v-73.1h105.9V1684.6z M2663.6,1676.7h89.6v-57.2h-89.6V1676.7z"/>
					<path class="st56" d="M1287.9,1684.6h-140.7v-73.1h140.7V1684.6z M1155.4,1676.7h124.4v-57.2h-124.4V1676.7z"/>
				</g>
			</g>
			<g>
				<path class="st57" d="M1376.7,1161.9h-221.3v17.3h221.3V1161.9 M1606.1,1161.9h-221.3v17.3h221.3V1161.9 M1835.5,1161.9h-221.3
					v17.3h221.3V1161.9 M2065,1161.9h-221.3v17.3H2065V1161.9 M2294.4,1161.9h-221.3v17.3h221.3V1161.9 M2523.8,1161.9h-221.3v17.3
					h221.3V1161.9 M2753.3,1161.9H2532v17.3h221.3V1161.9"/>
				<polyline class="st58" points="1376.7,1153.9 1147.2,1153.9 1147.2,1179.2 1155.4,1179.2 1155.4,1161.9 1376.7,1161.9 
					1376.7,1179.2 1376.7,1153.9 				"/>
				<polyline class="st58" points="1606.1,1153.9 1376.7,1153.9 1376.7,1179.2 1384.8,1179.2 1384.8,1161.9 1606.1,1161.9 
					1606.1,1179.2 1606.1,1153.9 				"/>
				<polyline class="st58" points="1835.5,1153.9 1606.1,1153.9 1606.1,1179.2 1614.2,1179.2 1614.2,1161.9 1835.5,1161.9 
					1835.5,1179.2 1835.5,1153.9 				"/>
				<polyline class="st58" points="2065,1153.9 1835.5,1153.9 1835.5,1179.2 1843.7,1179.2 1843.7,1161.9 2065,1161.9 2065,1179.2 
					2065,1153.9 				"/>
				<polyline class="st58" points="2294.4,1153.9 2065,1153.9 2065,1179.2 2073.1,1179.2 2073.1,1161.9 2294.4,1161.9 
					2294.4,1179.2 2294.4,1153.9 				"/>
				<polyline class="st58" points="2523.8,1153.9 2294.4,1153.9 2294.4,1179.2 2302.5,1179.2 2302.5,1161.9 2523.8,1161.9 
					2523.8,1179.2 2523.8,1153.9 				"/>
				<polyline class="st58" points="2761.4,1153.9 2523.8,1153.9 2523.8,1179.2 2532,1179.2 2532,1161.9 2753.3,1161.9 
					2753.3,1179.2 2761.4,1179.2 2761.4,1153.9 				"/>
			</g>
		</g>
	</g>
</g>
<g>
	<g>
		<rect x="2680.7" class="st59" width="8.8" height="449.2"/>
		<path class="st59" d="M2685.1,400.7L2685.1,400.7c-27,0-49,21.9-49,49v84.7h97.9v-84.7C2734.1,422.6,2712.2,400.7,2685.1,400.7z"
			/>
	</g>
	<g>
		<rect x="2547.8" class="st59" width="7.6" height="263.3"/>
		<path class="st59" d="M2551.6,221.5L2551.6,221.5c-23.3,0-42.2,18.9-42.2,42.2v73h84.5v-73
			C2593.8,240.4,2574.9,221.5,2551.6,221.5z"/>
	</g>
	<g>
		<rect x="2763.6" class="st59" width="5.8" height="206.2"/>
		<path class="st59" d="M2766.5,174.1L2766.5,174.1c-17.9,0-32.5,14.5-32.5,32.5v56.1h64.9v-56.1
			C2799,188.6,2784.5,174.1,2766.5,174.1z"/>
	</g>
</g>
<g>
	<g>
		
			<rect x="211.6" y="0" transform="matrix(-1 -4.487312e-11 4.487312e-11 -1 431.8811 449.1772)" class="st59" width="8.8" height="449.2"/>
		<path class="st59" d="M215.9,400.7L215.9,400.7c27,0,49,21.9,49,49v84.7H167v-84.7C167,422.6,188.9,400.7,215.9,400.7z"/>
	</g>
	<g>
		
			<rect x="345.7" y="0" transform="matrix(-1 -4.494151e-11 4.494151e-11 -1 698.9475 263.3206)" class="st59" width="7.6" height="263.3"/>
		<path class="st59" d="M349.5,221.5L349.5,221.5c23.3,0,42.2,18.9,42.2,42.2v73h-84.5v-73C307.2,240.4,326.2,221.5,349.5,221.5z"/>
	</g>
	<g>
		
			<rect x="131.6" y="0" transform="matrix(-1 -4.486690e-11 4.486690e-11 -1 269.0407 206.2041)" class="st59" width="5.8" height="206.2"/>
		<path class="st59" d="M134.5,174.1L134.5,174.1c17.9,0,32.5,14.5,32.5,32.5v56.1h-64.9v-56.1C102.1,188.6,116.6,174.1,134.5,174.1
			z"/>
	</g>
</g>
<g>
	<g>
		<path class="st60" d="M1672.1,1377.7h-198.9c-12,0-21.8,9.8-21.8,21.8v0c0,12,9.8,21.8,21.8,21.8h198.9c12,0,21.8-9.8,21.8-21.8v0
			C1693.9,1387.4,1684.2,1377.7,1672.1,1377.7z"/>
		<polygon class="st61" points="1663.9,1749.4 1693.9,1749.4 1654.1,1421.3 1624,1421.3 1653.3,1662.5 1492,1662.5 1521.3,1421.3 
			1491.2,1421.3 1451.4,1749.4 1481.5,1749.4 1488.5,1691.1 1656.8,1691.1 		"/>
		<polygon class="st62" points="1491.2,1421.3 1490.1,1431 1520.1,1431 1521.3,1421.3 		"/>
		<polygon class="st62" points="1654.1,1421.3 1655.2,1431 1625.2,1431 1624,1421.3 		"/>
	</g>
	<g>
		<path class="st60" d="M2059.9,1377.7H1861c-12,0-21.8,9.8-21.8,21.8v0c0,12,9.8,21.8,21.8,21.8h198.9c12,0,21.8-9.8,21.8-21.8v0
			C2081.7,1387.4,2072,1377.7,2059.9,1377.7z"/>
		<polygon class="st61" points="2051.7,1749.4 2081.7,1749.4 2041.9,1421.3 2011.8,1421.3 2041.1,1662.5 1879.8,1662.5 
			1909.1,1421.3 1879.1,1421.3 1839.2,1749.4 1869.3,1749.4 1876.4,1691.1 2044.6,1691.1 		"/>
		<polygon class="st62" points="1879.1,1421.3 1877.9,1431 1907.9,1431 1909.1,1421.3 		"/>
		<polygon class="st62" points="2041.9,1421.3 2043.1,1431 2013,1431 2011.8,1421.3 		"/>
	</g>
	<g>
		<path class="st60" d="M2447.8,1377.7h-198.9c-12,0-21.8,9.8-21.8,21.8v0c0,12,9.8,21.8,21.8,21.8h198.9c12,0,21.8-9.8,21.8-21.8v0
			C2469.6,1387.4,2459.8,1377.7,2447.8,1377.7z"/>
		<polygon class="st61" points="2439.5,1749.4 2469.6,1749.4 2429.7,1421.3 2399.7,1421.3 2429,1662.5 2267.7,1662.5 2297,1421.3 
			2266.9,1421.3 2227.1,1749.4 2257.1,1749.4 2264.2,1691.1 2432.4,1691.1 		"/>
		<polygon class="st62" points="2266.9,1421.3 2265.7,1431 2295.8,1431 2297,1421.3 		"/>
		<polygon class="st62" points="2429.7,1421.3 2430.9,1431 2400.8,1431 2399.6,1421.3 		"/>
	</g>
</g>
</svg>
