<svg xmlns="http://www.w3.org/2000/svg" width="139" height="139" viewBox="0 0 139 139">
  <g id="Group_16" data-name="Group 16" transform="translate(-3896.144 -1818.219)">
    <g id="Group_24" data-name="Group 24" transform="translate(0 558)">
      <circle id="Ellipse_1" data-name="Ellipse 1" cx="69.5" cy="69.5" r="69.5" transform="translate(3896.144 1260.219)" fill="#fff"/>
      <g id="garlic" transform="translate(3918.433 1284.71)">
        <path id="Path_1" data-name="Path 1" d="M111.717,100.7c-.059,5.7-.284,11.81-.933,14.04-.34,1.163-.9,2.856-1.543,4.716-1.461,4.228-3.338,9.318-3.96,11.013-2.927,7.962-4.033,20.191,0,26.344q.2.3.4.585l-.012.009a11.59,11.59,0,0,1-16.169-6.1q-.134-.357-.25-.727c-2.2-7.1,2.108-18.064,9.955-25.031a50.714,50.714,0,0,0,9.227-12.3,25.958,25.958,0,0,0,1.648-3.965A38.728,38.728,0,0,0,111.717,100.7Z" transform="translate(-83.384 -85.919)" fill="#fff5cc"/>
        <path id="Path_2" data-name="Path 2" d="M92.594,151.311q-.134-.357-.25-.727c-2.2-7.1,2.108-18.064,9.955-25.031a50.212,50.212,0,0,0,8.555-11.073c.6-2.416.807-8.285.864-13.779a38.728,38.728,0,0,1-1.633,8.586,25.958,25.958,0,0,1-1.648,3.965,50.713,50.713,0,0,1-9.227,12.3c-7.846,6.968-12.154,17.928-9.955,25.031q.116.371.25.727a11.556,11.556,0,0,0,12.383,7.3A11.448,11.448,0,0,1,92.594,151.311Z" transform="translate(-83.384 -85.919)" fill="#efecb4"/>
        <path id="Path_3" data-name="Path 3" d="M200.611,104.164c5.284,9.067,3.968,20.056,0,26.344q-.4.639-.843,1.206c-4.964,6.43-12.971,5.772-17.59-.621q-.209-.285-.4-.585c-4.033-6.154-2.927-18.382,0-26.344.622-1.694,2.5-6.785,3.96-11.013,3.364-9.3,6.546-11.782,7.884-23.561.039,1.284.079,2.633.119,4,.182,6,.38,12.33.49,14.843C194.572,96.385,198.282,100.166,200.611,104.164Z" transform="translate(-159.876 -59.614)" fill="#fff5cc"/>
        <path id="Path_4" data-name="Path 4" d="M188.356,131.093q-.209-.285-.4-.585c-4.033-6.154-2.927-18.382,0-26.344.622-1.694,2.5-6.785,3.96-11.013.776-2.147,1.543-3.93,2.28-5.548-.114-2.9-.291-8.593-.455-14.011-.04-1.368-.08-2.718-.119-4-1.338,11.779-4.519,14.26-7.884,23.561-1.461,4.228-3.338,9.318-3.96,11.013-2.927,7.962-4.033,20.191,0,26.344q.2.3.4.585c3.169,4.387,7.934,6.073,12.216,4.622A12.342,12.342,0,0,1,188.356,131.093Z" transform="translate(-159.877 -59.614)" fill="#efecb4"/>
        <path id="Path_5" data-name="Path 5" d="M86.133,156.29a25.957,25.957,0,0,1-1.648,3.965,50.713,50.713,0,0,1-9.227,12.3c-7.846,6.968-12.154,17.928-9.955,25.031q.116.371.25.727l-.031.012a11.349,11.349,0,0,1-4.991-7.984c-1.029-7.363,2.317-15.565,12.976-21.582,3.421-1.932,9.377-5.7,12.625-12.471Z" transform="translate(-59.432 -132.923)" fill="#fff5cc"/>
        <g id="Group_14" data-name="Group 14" transform="translate(0.922 35.971)" opacity="0.5">
          <path id="Path_6" data-name="Path 6" d="M72.645,251.2a35.783,35.783,0,0,1,.632-13.309C62.8,243.9,59.51,252.033,60.532,259.342a11.349,11.349,0,0,0,4.991,7.984l.031-.012a11.59,11.59,0,0,0,16.169,6.1l.012-.009c3.148,4.359,7.872,6.05,12.132,4.649C83.162,274.829,74.476,264.467,72.645,251.2Z" transform="translate(-60.355 -237.892)" fill="#b7b391"/>
        </g>
        <path id="Path_7" data-name="Path 7" d="M285.921,121.809c7.846,6.968,12.153,17.928,9.953,25.031-.006.02-.012.042-.02.062a11.391,11.391,0,0,1-16.223,6.72,14.674,14.674,0,0,0,.843-1.206c3.968-6.288,5.284-17.278,0-26.344-2.329-4-6.039-7.778-6.385-15.728-.11-2.513-.307-8.846-.49-14.843h0c.545,3.2,1.169,6.558,1.881,9.389a34.759,34.759,0,0,0,1.211,3.965,42.13,42.13,0,0,0,9.227,12.954Z" transform="translate(-239.74 -81.522)" fill="#fff5cc"/>
        <path id="Path_8" data-name="Path 8" d="M282.721,153.622a14.7,14.7,0,0,0,.843-1.206c3.968-6.288,5.284-17.278,0-26.344-2.329-4-6.039-7.778-6.385-15.728-.005-.125-.011-.263-.017-.405-.179-.379-.336-.741-.468-1.084a34.764,34.764,0,0,1-1.211-3.965c-.712-2.831-1.336-6.186-1.881-9.389h0c.182,6,.38,12.33.49,14.843.346,7.95,4.056,11.731,6.385,15.728,5.284,9.067,3.968,20.056,0,26.344q-.4.639-.843,1.206a11.352,11.352,0,0,0,6.864,1.211A11.2,11.2,0,0,1,282.721,153.622Z" transform="translate(-239.74 -81.522)" fill="#efecb4"/>
        <path id="Path_9" data-name="Path 9" d="M298.255,168.761c10.659,6.018,14,14.219,12.976,21.582a11.349,11.349,0,0,1-4.991,7.984l-.079-.025c.008-.02.014-.042.02-.062,2.2-7.1-2.107-18.064-9.953-25.031A42.131,42.131,0,0,1,287,160.255a34.757,34.757,0,0,1-1.211-3.965C289.04,163.057,294.833,166.829,298.255,168.761Z" transform="translate(-250.048 -132.923)" fill="#fff5cc"/>
        <path id="Path_10" data-name="Path 10" d="M229.673,20.048v0c-1.338,11.779-4.519,14.26-7.884,23.561.641-1.86,1.2-3.553,1.543-4.716.649-2.23.874-8.338.933-14.04.063-6.067-.062-11.677-.062-11.677L229.411,11s.114,4.01.263,9.048Z" transform="translate(-195.933 -10.074)" fill="#50dd5a"/>
        <path id="Path_11" data-name="Path 11" d="M80.214,28.045C79.34,29.864,76.736,35.1,68,40.035c-5.181,2.925-8.959,6.508-11.228,10.648a19.048,19.048,0,0,0-2.209,11.87,12.253,12.253,0,0,0,5.2,8.493A12.17,12.17,0,0,0,66.5,77.771a12.764,12.764,0,0,0,4.848.953,12.367,12.367,0,0,0,5.068-1.071,12.1,12.1,0,0,0,9.415,4.888h.093a11.337,11.337,0,0,0,8.61-4.278,12.185,12.185,0,0,0,5.058,1.1,12.489,12.489,0,0,0,4.752-.945,12.126,12.126,0,0,0,6.9-7.34,12.253,12.253,0,0,0,5.243-8.52,19.048,19.048,0,0,0-2.209-11.87c-2.269-4.14-6.046-7.723-11.228-10.648C97.269,36.773,93.328,32.85,91,28.046c-.722-2.886-1.335-6.247-1.829-9.153-.2-6.648-.377-12.869-.38-12.988a.927.927,0,0,0-1.284-.829L82.3,7.253a.927.927,0,0,0-.569.876c0,.108.121,5.643.063,11.6a38.277,38.277,0,0,1-1.576,8.313ZM58.9,67.82A10.5,10.5,0,0,1,56.4,62.3a17.207,17.207,0,0,1,2-10.722c2.1-3.833,5.638-7.172,10.513-9.925a37.73,37.73,0,0,0,6.4-4.417,41.571,41.571,0,0,1-5.716,6.712A34.438,34.438,0,0,0,60.6,56.76a22.356,22.356,0,0,0-1.7,11.06Zm8.3,8.237a10.4,10.4,0,0,1-6.06-6.662c-2.106-6.8,2.147-17.372,9.684-24.064C74.576,42,78.6,35.975,80.26,32.761A26.535,26.535,0,0,0,81.4,30.238a19.51,19.51,0,0,1-.5,3.328c-.334,1.145-.885,2.808-1.517,4.638l-.008.021,0,.011c-1.369,3.963-3.11,8.7-3.838,10.68l-.117.318a46.57,46.57,0,0,0-2.666,14.143c-.108,3.752.259,8.959,2.571,12.726A10.8,10.8,0,0,1,67.2,76.057Zm34.937-34.407c4.876,2.753,8.413,6.092,10.513,9.925a17.206,17.206,0,0,1,2,10.722,10.479,10.479,0,0,1-2.728,5.768,22.73,22.73,0,0,0-1.75-10.651A34.444,34.444,0,0,0,101.18,44.6a42.723,42.723,0,0,1-7.242-9.156,35.132,35.132,0,0,0,8.2,6.208ZM90.473,32.671a42.706,42.706,0,0,0,9.476,13.312c7.537,6.692,11.791,17.262,9.684,24.064a10.342,10.342,0,0,1-6,6.652,10.639,10.639,0,0,1-7.955.036q.113-.17.223-.344A25.6,25.6,0,0,0,99.515,63.8a27.241,27.241,0,0,0-3.6-14.713c-.478-.819-1-1.609-1.548-2.444-2.084-3.163-4.446-6.749-4.711-12.857-.04-.92-.093-2.364-.152-4.12a31.519,31.519,0,0,0,.963,3.005ZM83.594,8.72l3.381-1.414c.045,1.577.126,4.388.222,7.63A41.181,41.181,0,0,1,83.341,29.02C83.807,22.139,83.646,11.464,83.594,8.72Zm.668,22.717a52.132,52.132,0,0,0,3.191-8c.139,4.468.272,8.544.354,10.432.287,6.62,2.8,10.433,5.015,13.8.536.814,1.043,1.583,1.495,2.358,5.054,8.672,3.834,19.333.017,25.382-2.132,3.379-5.127,5.256-8.432,5.284-3.4.023-6.621-1.9-8.847-5.3-3.722-5.679-2.875-17.434.095-25.516l.117-.318c.729-1.982,2.471-6.72,3.848-10.709,1.084-3,2.132-5.239,3.146-7.409Z" transform="translate(-54.384 -5.004)" fill="#151515"/>
      </g>
      <g id="onion" transform="translate(3958.224 1278.71)">
        <path id="Path_12" data-name="Path 12" d="M231.844,470.616h-4.676l-3.791,3.791a1.653,1.653,0,1,0,2.338,2.338l2.138-2.138v2.622a1.653,1.653,0,1,0,3.307,0v-2.622l2.138,2.138a1.653,1.653,0,0,0,2.338-2.338Z" transform="translate(-204.707 -376.608)" fill="#a5506e"/>
        <path id="Path_13" data-name="Path 13" d="M246.12,27.765c-.2-14.722-1.743-23.395-2.64-27.249a.661.661,0,0,0-1.288,0c-.9,3.865-2.445,12.571-2.642,27.361l3.286,4.96Z" transform="translate(-218.036 -0.001)" fill="#a0d755"/>
        <path id="Path_14" data-name="Path 14" d="M256.644.514A.647.647,0,0,0,256,0V32.835l3.284-5.072C259.081,13.041,257.542,4.368,256.644.514Z" transform="translate(-231.2 0)" fill="#b4e66e"/>
        <path id="Path_15" data-name="Path 15" d="M178.209,71.731l-2.474,2.786-5.682-2.652c-3.6-10.237-11.16-21.04-15.256-26.46a.663.663,0,0,1,.929-.927A80.156,80.156,0,0,1,178.209,71.731Z" transform="translate(-150.103 -35.482)" fill="#87be4b"/>
        <path id="Path_16" data-name="Path 16" d="M240.51,71.731l2.474,2.786,5.682-2.652c3.6-10.237,11.16-21.04,15.256-26.46a.663.663,0,0,0-.929-.927A80.158,80.158,0,0,0,240.51,71.731Z" transform="translate(-218.804 -35.482)" fill="#a0d755"/>
        <path id="Path_17" data-name="Path 17" d="M156.649,239.368c13.7,0,24.8-10.363,24.8-23.147,0-8.378-5.428-14.729-11.911-19.777-4.261-3.318-7.516-6.366-7.348-9.808.089-1.818.9-3.481,2.725-3.481h0a3.98,3.98,0,0,0-3.358-3.462,5.2,5.2,0,0,0-4.908,1.808,5.2,5.2,0,0,0-4.908-1.808,3.98,3.98,0,0,0-3.358,3.462h0c1.82,0,2.637,1.663,2.725,3.481.168,3.442-3.087,6.49-7.348,9.808-6.483,5.048-11.911,11.4-11.911,19.777C131.849,229,142.952,239.368,156.649,239.368Z" transform="translate(-131.849 -143.706)" fill="#d76996"/>
        <path id="Path_18" data-name="Path 18" d="M174.837,216.268a36.722,36.722,0,0,0-6.447-20.739c-3.677-2.969-6.351-5.77-6.2-8.892,0-.06.02-.115.025-.174h-.008c.132-1.748.946-3.307,2.708-3.307a3.98,3.98,0,0,0-3.358-3.462,4.772,4.772,0,0,0-3.957.924,1.612,1.612,0,0,1-1.9,0,4.772,4.772,0,0,0-3.957-.924,3.98,3.98,0,0,0-3.358,3.462c1.761,0,2.576,1.559,2.708,3.307h-.008c0,.06.022.114.025.174.144,2.957-2.259,5.626-5.636,8.423-.551.458-1.112.918-1.712,1.385-6.483,5.048-11.911,11.4-11.911,19.777,0,12.784,11.1,23.146,24.8,23.146a25.931,25.931,0,0,0,12.047-2.914c.048-.025.554-.291.746-.4C172.79,231.012,174.837,224,174.837,216.268Zm-10.911-21.334c5.188,6.843,7.6,13.621,7.6,21.334a35.421,35.421,0,0,1-3.055,14.8,3.315,3.315,0,0,1-3.179,1.921c-.609-.035-1.212-.091-1.811-.16a88.868,88.868,0,0,0,1.431-15.86,75.159,75.159,0,0,0-3.248-22.452c-.567-1.836-1.019-3.489-1.345-5.092A36.414,36.414,0,0,0,163.926,194.934Zm-14.551,0a36.472,36.472,0,0,0,3.6-5.508c-.325,1.6-.777,3.256-1.344,5.09a75.1,75.1,0,0,0-3.248,22.452c0,2.581.139,5.786.462,9.085a22.477,22.477,0,0,1-6.873-13.35A34.632,34.632,0,0,1,149.375,194.934Zm4.465,34.8a3.183,3.183,0,0,1-1.58-2.418,89.04,89.04,0,0,1-.569-10.346,71.823,71.823,0,0,1,3.1-21.477,44.505,44.505,0,0,0,1.857-8.027,44.421,44.421,0,0,0,1.857,8.026,71.893,71.893,0,0,1,3.1,21.478,79.51,79.51,0,0,1-1.322,15.279A25.809,25.809,0,0,1,153.84,229.732Z" transform="translate(-131.851 -143.707)" fill="#b45a82"/>
      </g>
    </g>
    <rect id="Rectangle_1" data-name="Rectangle 1" width="140" height="8" transform="translate(3902.182 1918.536) rotate(-30)" fill="rgba(196,1,24,0.76)"/>
  </g>
</svg>
