<?xml version="1.0" encoding="UTF-8"?>
<svg width="39px" height="39px" viewBox="0 0 39 39" version="1.1" xmlns="http://www.w3.org/2000/svg" xmlns:xlink="http://www.w3.org/1999/xlink">
    <!-- Generator: Sketch 61 (89581) - https://sketch.com -->
    <title>Linkdin_logo</title>
    <desc>Created with Sketch.</desc>
    <g id="Page-1" stroke="none" stroke-width="1" fill="none" fill-rule="evenodd">
        <g id="Linkdin_logo" fill="#FFFFFF">
            <path d="M19.031,-2.27373675e-13 C29.541,-2.27373675e-13 38.061,8.521 38.061,19.031 C38.061,29.4279892 29.7232407,37.8775441 19.3693339,38.0580529 L19.031,38.061 C8.52,38.061 -1.25055521e-12,29.541 -1.25055521e-12,19.031 C-1.25055521e-12,8.521 8.52,-2.27373675e-13 19.031,-2.27373675e-13 Z M14.34,14.789 L10.401,14.789 L10.401,27.512 L14.34,27.512 L14.34,14.789 Z M24.47,14.4 C21.771,14.4 20.636,16.502 20.636,16.502 L20.636,14.789 L16.858,14.789 L16.858,27.512 L20.636,27.512 L20.636,20.833 L20.636,20.833 C20.636,19.045 21.459,17.979 23.036,17.979 C24.484,17.979 25.18,19.002 25.18,20.833 L25.18,27.512 L25.18,27.512 L29.1,27.512 L29.1,19.456 L29.1,19.456 C29.1,16.048 27.168,14.4 24.47,14.4 Z M12.352,8.427 C11.065,8.427 10.023,9.478 10.023,10.774 C10.023,12.07 11.065,13.123 12.352,13.123 C13.638,13.123 14.681,12.07 14.681,10.774 C14.681,9.478 13.638,8.427 12.352,8.427 Z" id="Combined-Shape"></path>
        </g>
    </g>
</svg>