<?xml version="1.0" encoding="utf-8"?>
<!-- Generator: Adobe Illustrator 25.1.0, SVG Export Plug-In . SVG Version: 6.00 Build 0)  -->
<svg version="1.1" id="Layer_1" xmlns="http://www.w3.org/2000/svg" xmlns:xlink="http://www.w3.org/1999/xlink" x="0px" y="0px"
	 viewBox="0 0 1887.3 281.9" style="enable-background:new 0 0 1887.3 281.9;" xml:space="preserve">
<style type="text/css">
	.st0{fill:none;stroke:#0F3448;stroke-miterlimit:10;}
	.st1{fill:#0F3448;}
	.st2{fill:none;stroke:#242252;stroke-width:0.25;stroke-miterlimit:10;}
	.st3{fill:#EC1E24;}
	.st4{fill:#FFFFFF;}
	.st5{fill:#1F1E4E;}
	.st6{fill:none;stroke:#1F1E4E;stroke-width:3.5;stroke-linecap:round;stroke-miterlimit:10;}
	.st7{fill:none;stroke:#1F1E4E;stroke-width:0.75;stroke-miterlimit:10;}
	.st8{fill:#FFFFFF;stroke:#FFFFFF;stroke-width:0.5;stroke-miterlimit:10;}
</style>
<g id="Layer_3">
	<g>
		<g>
			<polyline class="st0" points="13.2,214.7 13.2,263.3 70.1,263.3 			"/>
			<polyline class="st0" points="717.2,214.7 717.2,263.3 660.5,263.3 			"/>
		</g>
		<g>
			<polyline class="st0" points="13.2,63.7 13.2,15.4 70.1,15.4 			"/>
			<polyline class="st0" points="717.2,63.7 717.2,15.4 660.5,15.4 			"/>
		</g>
		<polygon class="st1" points="159.8,159.8 159.8,131.4 87,131.4 87,92.3 164.7,92.3 164.7,63.7 53,63.7 53,169.5 87,169.5 
			87,159.8 		"/>
		<path class="st1" d="M263.6,61.5c-49.8,0-78.7,35.7-78.7,82.3c0,9,0.9,17.5,3,25.4h36.7c-2.7-7.6-4.1-16.6-4.1-26.4
			c0.2-30.8,12.8-53.3,41.9-53.3c29.9,0,42.3,23.9,42.3,54.2c0,9-1.1,17.7-3.6,25.6h36c2.2-8.4,3.3-17.1,3.3-26.1
			C340.1,94.4,310.4,61.5,263.6,61.5z"/>
		<path class="st1" d="M441.3,61.5c-49.8,0-78.7,35.7-78.7,82.3c0,9,0.9,17.5,3,25.4h36.7c-2.7-7.6-4.1-16.6-4.1-26.4
			c0.2-30.8,12.8-53.3,41.9-53.3c29.9,0,42.3,23.9,42.3,54.2c0,9-1.1,17.7-3.6,25.6h36c2.2-8.4,3.3-17.1,3.3-26.1
			C517.8,94.4,488.1,61.5,441.3,61.5z"/>
		<path class="st1" d="M582.9,91.9H609c31.3,0,44.1,24,44.1,50.1c0,10.1-1.6,19.6-4.6,27.5H685c2.5-8.5,3.8-17.7,3.8-27.5
			c0-47.4-30.6-78.1-77.1-78.1h-63.4v105.6h34.6L582.9,91.9L582.9,91.9z"/>
		<path class="st2" d="M582.9,196h25.9l0,0H582.9L582.9,196z"/>
		<rect x="53" y="169.5" class="st2" width="33.8" height="7.9"/>
		<rect x="53" y="214.7" class="st2" width="33.8" height="9.2"/>
		<rect x="53" y="196" class="st2" width="33.8" height="9.2"/>
		<rect x="53" y="186.8" class="st2" width="33.8" height="9.2"/>
		<rect x="53" y="177.4" class="st2" width="33.8" height="9.2"/>
		<rect x="53" y="205.2" class="st2" width="33.8" height="9.2"/>
		<path class="st2" d="M261.3,226.4c7.4,0,14.4-0.9,20.9-2.2h-41.6C247.2,225.4,253.9,226.4,261.3,226.4z"/>
		<path class="st2" d="M276.6,196c-4.1,1.4-8.7,2-13.9,2c-4.9,0-9.5-0.6-13.7-2h-49.5c2.2,3.3,4.7,6.5,7.6,9.2h109.5
			c3-3,5.7-6,7.9-9.2H276.6z"/>
		<path class="st2" d="M337,169.5h-36c-0.9,2.7-2,5.4-3.2,7.9h36.5C335.4,174.9,336.2,172.2,337,169.5z"/>
		<path class="st2" d="M330.5,186.8h-39.2c-3.8,4.1-8.5,7.4-14.4,9.2h47.9C326.8,193,328.6,190,330.5,186.8z"/>
		<path class="st2" d="M248.9,196c-5.7-2-10.6-5.2-14.7-9.2h-40.5c1.6,3.3,3.3,6.3,5.4,9.2H248.9z"/>
		<path class="st2" d="M330.5,186.8c1.6-3,3-6,4.1-9.2h-36.7c-1.8,3.3-3.8,6.5-6.3,9.2H330.5z"/>
		<path class="st2" d="M316.7,205.2H207.1c3.3,3.6,7.1,6.5,11.5,9.2H305C309.3,212,313.1,208.8,316.7,205.2z"/>
		<path class="st2" d="M234.6,186.8c-2.5-2.7-4.7-5.8-6.5-9.2h-37.8c1.1,3.2,2.5,6.3,3.8,9.2H234.6z"/>
		<path class="st2" d="M224.4,169.5h-36.7c0.6,2.7,1.6,5.4,2.5,7.9H228C226.7,174.9,225.6,172.2,224.4,169.5z"/>
		<path class="st2" d="M218.6,214.7c6.5,4.3,13.9,7.4,22.1,9.2h41.6c8.5-2,16-5.2,22.5-9.2H218.6z"/>
		<path class="st2" d="M439.1,226.4c7.4,0,14.4-0.9,20.9-2.2h-41.6C424.9,225.4,431.6,226.4,439.1,226.4z"/>
		<path class="st2" d="M396.4,214.7c6.5,4.3,13.9,7.4,22.1,9.2h41.6c8.5-2,16-5.2,22.5-9.2H396.4z"/>
		<path class="st2" d="M494.4,205.2H384.9c3.3,3.6,7.1,6.5,11.5,9.2h86.4C487,212,490.9,208.8,494.4,205.2z"/>
		<path class="st2" d="M402.2,169.5h-36.7c0.6,2.7,1.6,5.4,2.5,7.9h37.8C404.4,174.9,403.3,172.2,402.2,169.5z"/>
		<path class="st2" d="M440.5,198.1c-4.9,0-9.5-0.6-13.7-2h-49.5c2.2,3.3,4.7,6.5,7.6,9.2h109.5c3-3,5.7-6,7.9-9.2h-47.9
			C450.3,197.4,445.6,198.1,440.5,198.1z"/>
		<path class="st2" d="M454.4,196h47.9c2-3,4.1-6,5.7-9.2h-39.2C465,190.8,460.2,194,454.4,196z"/>
		<path class="st2" d="M511.9,177.4c0.9-2.5,1.8-5.2,2.5-7.9h-36c-0.9,2.7-2,5.4-3.2,7.9H511.9z"/>
		<path class="st2" d="M426.7,196c-5.7-2-10.6-5.2-14.7-9.2h-40.5c1.6,3.3,3.3,6.3,5.4,9.2H426.7z"/>
		<path class="st2" d="M412.3,186.8c-2.5-2.7-4.7-5.8-6.5-9.2H368c1.1,3.2,2.5,6.3,3.8,9.2H412.3z"/>
		<path class="st2" d="M468.8,186.8H508c1.6-3,3-6,4.1-9.2h-36.7C473.5,180.7,471.5,183.9,468.8,186.8z"/>
		<path class="st2" d="M644.7,177.4c-2.2,3.6-4.7,6.8-7.9,9.2H678c1.6-3,3.2-6,4.6-9.2H644.7z"/>
		<path class="st2" d="M609,196h62.8c2.2-3,4.3-6,6.3-9.2H637C629.8,192.7,620.6,196,609,196z"/>
		<rect x="548.1" y="186.8" class="st2" width="34.6" height="9.2"/>
		<path class="st2" d="M608.8,196h-25.9l0,0h-34.6v9.2H663c3.2-3,6-5.8,8.7-9.2H608.8C609,196,608.8,196,608.8,196z"/>
		<path class="st2" d="M682.3,177.4c1.1-2.5,2-5.2,2.7-7.9h-36.5c-1.1,3-2.5,5.4-3.8,7.9H682.3z"/>
		<rect x="548.1" y="169.5" class="st2" width="34.6" height="7.9"/>
		<path class="st2" d="M548.1,214.7h101.3c4.9-2.7,9.5-5.8,13.6-9.2H548.3v9.2H548.1z"/>
		<rect x="548.1" y="177.4" class="st2" width="34.6" height="9.2"/>
		<path class="st2" d="M548.1,224h62.1c15,0,28.1-3.3,39.4-9.2H548.4v9.2H548.1z"/>
		<g>
			<path class="st3" d="M13.2,169.5c29.2-0.5,58.8-0.6,88-1.1l88-0.6c58.8-0.5,117.2-0.2,175.9-0.5l175.9,0.5l88,0.6
				c29.2,0.5,58.8,0.6,88,1.1c-29.2,0.5-58.8,0.6-88,1.1l-88,0.6l-175.9,0.5c-58.8-0.2-117.2-0.2-175.9-0.5l-87.7-0.6
				C71.9,170.1,42.7,169.9,13.2,169.5z"/>
		</g>
	</g>
	<path class="st4" d="M805.4,62.6H904v11.7h-86v61.5h80.6v11.7H818v78.1h-12.6V62.6L805.4,62.6z"/>
	<path class="st4" d="M999.5,60.1c-48.4,0-74,37.6-74,83.7c0,35.6,15.5,65.4,43.2,77.6c0.5-0.9,0.9-1.6,1.6-2.5
		c1.4-1.8,2.7-3.6,4.6-5.2c0.9-0.9,1.6-1.6,2.5-2.5c-25-10.3-38.2-38.7-38.2-68.4c0-36.7,18.5-71.3,60.1-71.3
		c39.4,0,59.1,33.3,59.1,71.1c0,29.7-10.3,56.7-34.4,67.8c1.8,2.5,3,5.7,2.7,8.7c0.6,0,1.4,0,2,0.2s1.1,0.5,1.8,0.9
		c27.8-13.6,41.1-44.4,41.1-77.6C1071.7,95.2,1044.1,60.1,999.5,60.1z"/>
	<path class="st4" d="M1120.4,149.2v76h-12.8V62.6h58.3c32.2,0,49,17.1,49,42.7c0,20.7-12.3,34.2-30.4,38.1
		c16.6,4.1,27.8,14.9,27.8,42.5v6.3c0,11.5-0.9,26.7,2,33h-12.8c-3-7-2.2-20.1-2.2-34v-4.3c0-26.7-7.9-37.8-38.9-37.8h-39.9
		L1120.4,149.2L1120.4,149.2z M1120.4,137.5h39.4c28.6,0,41.9-10.8,41.9-32.2c0-20.1-13.1-31.3-38.2-31.3h-42.7v63.4h-0.4V137.5z"/>
	<path class="st4" d="M1396.6,150.3c0-31.8,0.2-62.3,0.9-78.5h-0.6c-6.5,21.8-39.5,101.9-60.1,153.5h-12.3
		c-15.5-39.8-49.8-128.9-57.2-153.6h-0.5c1.1,18.7,1.6,56.4,1.6,84.4v69.2h-12.6V62.7h18.8c22.3,55.8,50.4,128.7,56.4,147.1h0.5
		c3.8-12,36.2-92.9,58.9-147.1h18.7v162.6h-12.6L1396.6,150.3L1396.6,150.3z"/>
	<path class="st4" d="M1469.1,62.6v98.6c0,43.2,24.3,54.5,47.4,54.5c27.2,0,47.4-11.5,47.4-54.5V62.6h12.8v97.9
		c0,50.9-27,66.7-60.7,66.7c-32.2,0-59.9-17.4-59.9-64.6V62.7L1469.1,62.6L1469.1,62.6L1469.1,62.6z"/>
	<path class="st4" d="M1622.1,62.6h12.6v150.9h87.3l-2.2,11.7h-97.7L1622.1,62.6L1622.1,62.6z"/>
	<path class="st4" d="M1773.7,169l-20.7,56.3h-12.8l59.6-162.6h14.9l62.3,162.6h-13.7l-21.2-56.3L1773.7,169L1773.7,169z
		 M1838.2,157.3c-18.2-48.4-27.5-71.6-30.6-82.5h-0.2c-4.1,12.3-14.4,41.1-29.1,82.5H1838.2z"/>
	<g>
		<g>
			<g>
				<path class="st5" d="M1484.8,93.6v69.8c0,30.6,16.1,38.4,31.8,38.4c18.2,0,31.8-8.1,31.8-38.4V93.7h4.1h4.6v69.4
					c0,36-18,47.3-40.5,47.3c-21.3,0-40-12.3-40-46V93.8h3.6h4.8v-0.2H1484.8z"/>
			</g>
		</g>
		<path class="st6" d="M1552,95c-4.6-4.1-11.2-8.7-18.8-7.9c-15.3,1.8-20.2,24.5-32.6,24.8c-4.6,0-11.2-3-19.3-16.9"/>
		<circle class="st5" cx="1516.6" cy="132.6" r="9.5"/>
		<circle class="st5" cx="1529.2" cy="153.5" r="5.8"/>
		<circle class="st5" cx="1533.5" cy="137.7" r="3.6"/>
		<circle class="st7" cx="1501.5" cy="79.1" r="9.5"/>
		<circle class="st7" cx="1488.9" cy="58.1" r="5.8"/>
		<circle class="st7" cx="1484.6" cy="73.9" r="3.6"/>
	</g>
	<g>
		<path class="st8" d="M1034.7,107.5c0.2-0.5,0.9,0.2,0.6,0.5l-16.6,24.3c-0.9,1.4,0.6,2.5,1.8,1.1l18.5-22.9
			c0.2-0.5,0.9,0.2,0.6,0.5l-16.1,24.8c-0.5,0.6-0.2,1.4,0.2,1.6c0.5,0.2,1.1,0.2,1.6-0.5l17.7-23.7c0.2-0.5,0.9,0.2,0.6,0.5
			l-15.3,25.3c-0.9,1.4,0.6,2.5,1.6,1.1l17.1-24c0.2-0.5,0.9,0.2,0.6,0.5c0,0-12.3,22.1-14.4,25.9c-2.5,4.7-5.4,9-9.9,11.7
			c-2.5,1.6-5.4,2.2-8.7,1.8c-9.7,14.2-35.7,52.6-42.7,63.2c-0.9,1.4-2.7,1.6-4.1,0.6l-3-2c-1.4-0.9-1.6-2.7-0.6-4.1
			c7.6-10.1,34.9-47.7,45-61.6c-1.6-3-1.8-5.8-1.4-8.7c0.9-5.4,4.1-9.5,7.6-13.3C1018.3,126.8,1034.7,107.5,1034.7,107.5z"/>
		<path class="st8" d="M957,109.4c-1.6-2-5.4-2.2-5.2,2.7c0.5,7.1,6.5,24.3,13.7,35.6c5.7,9,13.3,15.5,20.2,13.6
			c11.5,16.4,35.1,49.5,40.3,57.4c0.9,1.4,2.5,1.6,3.8,0.6l2.7-2c1.1-0.9,1.6-2.7,0.6-3.8c-5.8-7.4-30.4-40-42.3-56.3
			C986.5,151.3,958.4,111,957,109.4z"/>
	</g>
</g>
</svg>
