<?xml version="1.0" encoding="utf-8"?>
<!-- Generator: Adobe Illustrator 21.0.0, SVG Export Plug-In . SVG Version: 6.00 Build 0)  -->
<svg version="1.1" id="Layer_1" xmlns="http://www.w3.org/2000/svg" xmlns:xlink="http://www.w3.org/1999/xlink" x="0px" y="0px"
	 width="3000px" height="2000px" viewBox="0 0 3000 2000" style="enable-background:new 0 0 3000 2000;" xml:space="preserve">
<style type="text/css">
	.st0{fill-rule:evenodd;clip-rule:evenodd;fill:#E8EAE7;}
	.st1{fill-rule:evenodd;clip-rule:evenodd;fill:#F7F5F4;}
	.st2{fill-rule:evenodd;clip-rule:evenodd;fill:#FFFFFF;}
	.st3{fill-rule:evenodd;clip-rule:evenodd;fill:#B6BAB4;}
	.st4{fill-rule:evenodd;clip-rule:evenodd;fill:#D9DED7;}
	.st5{fill-rule:evenodd;clip-rule:evenodd;fill:#F3F3F3;}
	.st6{fill-rule:evenodd;clip-rule:evenodd;fill:#B4B4B4;}
	.st7{fill-rule:evenodd;clip-rule:evenodd;fill:#E0A756;}
	.st8{fill-rule:evenodd;clip-rule:evenodd;fill:#FBC5B5;}
	.st9{fill-rule:evenodd;clip-rule:evenodd;fill:#FDE1D9;}
	.st10{fill-rule:evenodd;clip-rule:evenodd;fill:#F26767;}
	.st11{fill-rule:evenodd;clip-rule:evenodd;fill:#CD5959;}
	.st12{fill-rule:evenodd;clip-rule:evenodd;fill:#785454;}
	.st13{fill-rule:evenodd;clip-rule:evenodd;fill:#E96472;}
	.st14{fill-rule:evenodd;clip-rule:evenodd;fill:#EDB971;}
	.st15{fill-rule:evenodd;clip-rule:evenodd;fill:#CCCCCC;}
	.st16{fill-rule:evenodd;clip-rule:evenodd;fill:#7EA5A6;}
	.st17{fill-rule:evenodd;clip-rule:evenodd;fill:#A1BDBA;}
	.st18{fill-rule:evenodd;clip-rule:evenodd;fill:#53BA65;}
	.st19{fill-rule:evenodd;clip-rule:evenodd;fill:#E79762;}
	.st20{fill-rule:evenodd;clip-rule:evenodd;fill:#CE9066;}
	.st21{fill-rule:evenodd;clip-rule:evenodd;fill:#34679A;}
	.st22{fill-rule:evenodd;clip-rule:evenodd;fill:#F499C1;}
	.st23{fill-rule:evenodd;clip-rule:evenodd;fill:#EC7FB3;}
	.st24{fill-rule:evenodd;clip-rule:evenodd;fill:#E6E6E5;}
	.st25{fill-rule:evenodd;clip-rule:evenodd;fill:#CAD5C6;}
</style>
<g>
	<rect x="0" y="0" class="st0" width="3000" height="2000"/>
	<path class="st1" d="M2600,260H400c-77,0-140,63-140,140v662.4c0,77,63,140,140,140h2200c77,0,140-63,140-140V400
		C2740,323,2677,260,2600,260z"/>
	<path class="st2" d="M2422.4,401.3H577.6c-58.9,0-107.1,48.2-107.1,107.1v506.9c0,58.9,48.2,107.1,107.1,107.1h1844.7
		c58.9,0,107.1-48.2,107.1-107.1V508.4C2529.5,449.5,2481.3,401.3,2422.4,401.3z"/>
	<polygon class="st0" points="1560,1202.4 2740,1202.4 2821.9,700 1641.9,700 	"/>
	<g>
		<path class="st3" d="M654.4,664.2c-2.1,18.1,8.7,33.2,24.9,37.4c-10-6.8-15.7-18.8-14.2-32.5c2.4-21.3,21.6-38.5,42.9-38.5
			c3.2,0,6.3,0.4,9.2,1.1c-5.5-3.8-12.4-6-19.9-6C676,625.7,656.8,643,654.4,664.2z"/>
		<circle class="st3" cx="706.3" cy="660.3" r="38.5"/>
		<circle class="st3" cx="865.9" cy="732.5" r="91.5"/>
		<path class="st0" d="M742,771.4c-17-8.5-37.7-1.5-46.2,15.5l-72.3,144.8c-8.5,17-1.5,37.7,15.5,46.2c17,8.5,37.7,1.5,46.2-15.5
			l72.3-144.8C766,800.5,759,779.8,742,771.4z"/>
		<circle class="st0" cx="638.1" cy="939.4" r="56.4"/>
		<path class="st0" d="M619,906.1l-125.6,15.3c-18.9,2.2-32.4,19.4-30.2,38.3c2.2,18.9,19.4,32.4,38.3,30.2l125.6-15.3
			c18.9-2.2,32.4-19.4,30.2-38.3C655,917.4,637.9,903.9,619,906.1z"/>
		<path class="st0" d="M902.2,781.6c-11.4-15.2-32.9-18.2-48.1-6.9c-15.2,11.4-18.2,32.9-6.9,48.1l103.6,138.1
			c11.4,15.2,32.9,18.3,48.1,6.9c15.2-11.4,18.2-32.9,6.9-48.1L902.2,781.6z"/>
		<circle class="st0" cx="976.6" cy="930.7" r="56.4"/>
		<path class="st0" d="M800.4,750.7c-49.7,0-90.3,51.4-90.3,114.1v195.6c0,62.8,40.6,114.1,90.3,114.1s90.3-51.4,90.3-114.1V864.8
			C890.8,802.1,850.1,750.7,800.4,750.7z"/>
		<path class="st4" d="M865.5,856.4H735.2c-18.7,0-33.9,15.3-33.9,33.9v278.1c0,18.7,15.3,33.9,33.9,33.9h130.3
			c18.7,0,33.9-15.3,33.9-33.9V890.4C899.4,871.7,884.1,856.4,865.5,856.4z"/>
		<path class="st0" d="M822,715.3c-5.8-21.6-28.2-34.5-49.8-28.7c-21.6,5.8-34.5,28.2-28.7,49.8l18,67.3
			c5.8,21.6,28.2,34.5,49.8,28.7c21.6-5.8,34.5-28.2,28.7-49.8L822,715.3z"/>
		<path class="st4" d="M854.6,740.1h-15.7c-6.9,0-12.6,5.7-12.6,12.6v143.9c0,7,5.7,12.6,12.6,12.6h15.7c6.9,0,12.6-5.7,12.6-12.6
			V752.8C867.2,745.8,861.5,740.1,854.6,740.1z"/>
		<path class="st4" d="M758.2,740.1h-15.7c-7,0-12.6,5.7-12.6,12.6v143.9c0,7,5.7,12.6,12.6,12.6h15.7c6.9,0,12.6-5.7,12.6-12.6
			V752.8C770.8,745.8,765.2,740.1,758.2,740.1z"/>
		<path class="st0" d="M779.1,563.2c-48.9-1.4-90.1,37.4-91.5,86.3l-1.2,40.4c-1.4,48.9,37.4,90.1,86.3,91.5
			c48.9,1.4,90.1-37.4,91.5-86.3l1.2-40.4C866.8,605.8,828,564.6,779.1,563.2z"/>
		<circle class="st4" cx="732.2" cy="727.9" r="7.5"/>
		<circle class="st4" cx="733" cy="734" r="4.7"/>
		<path class="st0" d="M865.6,645.1c-15.3,1.9-27.8,15.9-27.8,31.2c0,15.3,12.4,26.2,27.8,24.3c15.3-1.9,27.8-15.9,27.8-31.2
			C893.4,654.1,880.9,643.2,865.6,645.1z"/>
		<path class="st3" d="M865.6,660.2c-7,0.9-12.6,7.2-12.6,14.2c0,7,5.7,11.9,12.6,11.1c7-0.9,12.6-7.2,12.6-14.2
			C878.3,664.3,872.6,659.4,865.6,660.2z"/>
		<circle class="st3" cx="813.3" cy="604.6" r="70.1"/>
		<path class="st4" d="M718.3,649.5c1.3-42.8,32.9-77.8,73.5-85c-4.2-0.7-8.4-1.2-12.8-1.3c-48.9-1.4-90.1,37.4-91.5,86.3l-1.2,40.4
			c-1.4,48.9,37.4,90.1,86.3,91.5c6.1,0.2,12.2-0.3,18-1.3c-42.7-7.5-74.8-45.7-73.5-90.2L718.3,649.5z"/>
		<path class="st4" d="M686.9,581.2v76.2h178.4V505H763.1C721.2,505,686.9,539.3,686.9,581.2z"/>
		<path class="st4" d="M879.5,630.1H849c-7.5,0-13.6,6.1-13.6,13.6v0c0,7.5,6.1,13.6,13.6,13.6h30.5c7.5,0,13.6-6.1,13.6-13.6v0
			C893.2,636.2,887,630.1,879.5,630.1z"/>
		<path class="st4" d="M1043,802.2l-80.5,102.3c-11.8,15-9.2,36.6,5.8,48.4c15,11.8,36.6,9.2,48.4-5.8l88.8-112.7
			c7.4-9.4,9.1-21.5,5.6-32.1H1043z"/>
		<path class="st0" d="M962.5,904.5c-7.4,9.5-9.1,21.6-5.6,32.3c14,6,30.8,2.1,40.6-10.4l88.8-112.7c2.8-3.5,4.7-7.4,5.9-11.4H1043
			L962.5,904.5z"/>
		<path class="st0" d="M1041.2,802.2c-3.8,7-6,15-6,23.5c0,26.9,21.8,48.7,48.7,48.7s48.7-21.8,48.7-48.7c0-8.5-2.2-16.5-6-23.5
			H1041.2z"/>
		<circle class="st2" cx="846.7" cy="862.4" r="10.4"/>
		<circle class="st2" cx="750.4" cy="862.4" r="10.4"/>
		<path class="st3" d="M747.6,1020.9c-0.2,1.7-0.3,3.5-0.3,5.3c0,29.2,23.7,52.9,52.9,52.9c29.2,0,52.9-23.7,52.9-52.9
			c0-1.8-0.1-3.5-0.3-5.3H747.6z"/>
		<path class="st3" d="M527.4,873.1c-4.9-1.9-10.5,0.5-12.4,5.4l-81.3,204c-1.9,4.9,0.5,10.5,5.4,12.4c4.9,1.9,10.5-0.5,12.4-5.4
			l81.3-204C534.7,880.6,532.3,875.1,527.4,873.1z"/>
		<path class="st3" d="M448.3,1060c-13.1,0-28.7,20.1-34.9,45c-6.1,24.8-0.5,45,12.6,45c13.1,0,28.7-20.1,34.9-45
			C467.1,1080.2,461.4,1060,448.3,1060z"/>
		<path class="st4" d="M511.5,967.5c-18.9,2.2-36-11.3-38.3-30.2c-0.2-2.1-0.3-4.1-0.2-6.1c-7.2,7.2-11.1,17.5-9.9,28.4
			c2.2,18.9,19.4,32.4,38.3,30.2l125.6-15.3c16.8-2,29.4-15.8,30.4-32.2c-5.3,5.3-12.3,8.9-20.3,9.8L511.5,967.5z"/>
		<circle class="st0" cx="490.1" cy="956.2" r="41.4"/>
		<path class="st3" d="M759.1,676.1c-1.8-0.7-3.7-1.1-5.7-1.1c-2.6,0-5.2,0.7-7.4,2h0c-2.2,1.3-4.1,3.1-5.4,5.4
			c-1.2,2.1-0.5,4.7,1.6,5.9c2.1,1.2,4.7,0.5,5.9-1.6c0.6-1,1.4-1.8,2.3-2.3c0.9-0.5,2-0.8,3.1-0.8c0.9,0,1.7,0.2,2.4,0.5
			c0.7,0.3,1.4,0.8,2,1.4c1.7,1.7,4.4,1.7,6.1,0c1.7-1.7,1.7-4.4,0-6.1C762.6,677.9,760.9,676.8,759.1,676.1z"/>
		<path class="st3" d="M718.7,677L718.7,677c-2.3-1.3-4.8-2-7.5-2c-2,0-3.9,0.4-5.7,1.1c-1.8,0.8-3.5,1.8-4.9,3.2
			c-1.7,1.7-1.7,4.4,0,6.1c1.7,1.7,4.4,1.7,6.1,0c0.6-0.6,1.3-1.1,2-1.4c0.7-0.3,1.6-0.5,2.4-0.5c1.1,0,2.2,0.3,3.1,0.8
			c0.9,0.5,1.8,1.3,2.3,2.3c1.2,2.1,3.8,2.8,5.9,1.6c2.1-1.2,2.8-3.8,1.6-5.9C722.8,680.1,720.9,678.2,718.7,677z"/>
		<ellipse class="st2" cx="790.3" cy="711" rx="27.6" ry="14.4"/>
		<path class="st4" d="M1185.8,795.6H982c-5.1,0-9.3,4.2-9.3,9.3v0c0,5.1,4.2,9.3,9.3,9.3h203.9c5.1,0,9.3-4.2,9.3-9.3v0
			C1195.1,799.8,1191,795.6,1185.8,795.6z"/>
		<path class="st0" d="M1201.7,785.6H966.1c-5.1,0-9.3,4.2-9.3,9.3c0,5.1,4.2,9.3,9.3,9.3h235.6c5.1,0,9.3-4.2,9.3-9.3
			C1211,789.8,1206.8,785.6,1201.7,785.6z"/>
	</g>
	<g>
		<rect x="260" y="989.7" class="st4" width="794.3" height="212.7"/>
		<rect x="1102.8" y="989.7" class="st4" width="794.3" height="212.7"/>
		<rect x="1945.7" y="989.7" class="st4" width="794.3" height="212.7"/>
	</g>
	<rect x="0" y="1233.4" class="st3" width="3000" height="766.6"/>
	<rect x="0" y="1192.8" class="st5" width="3000" height="57.8"/>
	<g>
		<g>
			<g>
				<polygon class="st6" points="2356.8,1740 2402.9,1740 2416.1,1579.9 2369.9,1579.9 				"/>
				<polygon class="st6" points="2510.6,1740 2556.8,1740 2569.9,1579.9 2523.7,1579.9 				"/>
			</g>
			<path class="st7" d="M2543,1419.9h-120c-60.5,0-114.1,49.5-119,110c-5,60.5,40.5,110,101,110h120c60.5,0,114.1-49.5,119-110
				C2649,1469.4,2603.5,1419.9,2543,1419.9z"/>
		</g>
		<g>
			<g>
				<polygon class="st6" points="416.9,1538.4 446.8,1760 492.9,1760 463.1,1538.4 				"/>
				<polygon class="st6" points="570.8,1538.4 600.6,1760 646.8,1760 616.9,1538.4 				"/>
			</g>
			<path class="st7" d="M555.3,1378.4h-120c-60.5,0-103.3,49.5-95.2,110c8.2,60.5,64.3,110,124.8,110h120
				c60.5,0,103.3-49.5,95.2-110C672,1427.9,615.8,1378.4,555.3,1378.4z"/>
		</g>
		<g>
			<g>
				<path class="st8" d="M1261.2,1305.3l-464.5,4.5c-41.3,0.3-74.4,34-74.1,75.3c0.3,41.3,34,74.4,75.3,74.1l464.5-4.5
					c41.3-0.3,74.4-34,74.1-75.3C1336.1,1338.2,1302.4,1305,1261.2,1305.3z"/>
				<path class="st9" d="M1261.2,1305.3l-464.5,4.5c-41.3,0.3-74.4,34-74.1,75.3c0.3,37,27.4,67.5,62.7,73.2
					c-7.7-11.6-12.2-25.6-12.3-40.5c-0.3-41.3,32.9-75,74.1-75.3l464.5-4.5c4.3,0,8.5,0.3,12.6,1
					C1310.7,1318.5,1287.4,1305.1,1261.2,1305.3z"/>
				<path class="st10" d="M972.4,1308.1l-175.7,1.7c-41.3,0.3-74.4,34-74.1,75.3c0.3,41.3,34,74.4,75.3,74.1l175.7-1.7
					c41.3-0.3,74.4-34,74.1-75.3C1047.4,1341,1013.7,1307.8,972.4,1308.1z"/>
				<path class="st10" d="M779.7,1362.7h-21.4c-103.8,0-188.7,84.9-188.7,188.7V1740h398.7v-188.7
					C968.4,1447.6,883.5,1362.7,779.7,1362.7z"/>
				<path class="st11" d="M737,1362.7c-92,0-167.3,75.3-167.3,167.3v167.3h80V1530c0-89.3,71-162.9,159.3-167.1
					c-2.6-0.1-5.3-0.2-8-0.2H737z"/>
				<path class="st11" d="M740.6,1354.6c-33.2-24.6-80-17.6-104.6,15.5l-166.4,225.3c-24.6,33.2-17.6,80,15.5,104.6
					c33.2,24.6,80,17.6,104.6-15.5l166.4-225.3C780.7,1426,773.8,1379.2,740.6,1354.6z"/>
				<circle class="st12" cx="914.1" cy="1235.7" r="75.7"/>
				<path class="st8" d="M799.7,1140L799.7,1140c-71.5,0-130,58.5-130,130v40c0,71.5,58.5,130,130,130h0c71.5,0,130-58.5,130-130
					v-40C929.7,1198.5,871.2,1140,799.7,1140z"/>
				<path class="st13" d="M733.1,1301v-40c0-54.1,33.5-100.7,80.7-120.2c-4.6-0.5-9.3-0.8-14.1-0.8h0c-71.5,0-130,58.5-130,130v40
					c0,71.5,58.5,130,130,130h0c17.4,0,34.1-3.5,49.3-9.8C784.1,1423.1,733.1,1367.7,733.1,1301z"/>
				<g>
					<path class="st12" d="M791.7,1268.7L791.7,1268.7c-4.4,0-8,3.6-8,8v11.7c0,4.4,3.6,8,8,8h0c4.4,0,8-3.6,8-8v-11.7
						C799.7,1272.3,796.1,1268.7,791.7,1268.7z"/>
					<path class="st12" d="M864.8,1268.7L864.8,1268.7c-4.4,0-8,3.6-8,8v11.7c0,4.4,3.6,8,8,8h0c4.4,0,8-3.6,8-8v-11.7
						C872.8,1272.3,869.2,1268.7,864.8,1268.7z"/>
				</g>
				<circle class="st12" cx="799.1" cy="1182" r="83"/>
				<circle class="st12" cx="895.1" cy="1145.4" r="65.4"/>
				<circle class="st12" cx="733.8" cy="1104.1" r="64.1"/>
				<circle class="st12" cx="825.7" cy="1095.9" r="64.1"/>
				<circle class="st12" cx="645.7" cy="1164.1" r="64.1"/>
				<circle class="st12" cx="925.7" cy="1195.9" r="64.1"/>
				<g>
					<g>
						<path class="st12" d="M801.3,1378.7c0,16.2,13.2,29.4,29.4,29.4c16.2,0,29.4-13.2,29.4-29.4v-53.8h-58.9V1378.7z"/>
						<path class="st10" d="M812.3,1358.1c-3.8,0-7.5,0.4-11,1.2v19.4c0,16.2,13.2,29.4,29.4,29.4c12.5,0,23.2-7.9,27.5-18.9
							C851,1371,833.2,1358.1,812.3,1358.1z"/>
					</g>
					<rect x="801.3" y="1324.9" class="st2" width="58.9" height="15"/>
				</g>
				<circle class="st8" cx="708" cy="1309" r="40.8"/>
				<circle class="st12" cx="692.7" cy="1217" r="83"/>
				<circle class="st12" cx="664.3" cy="1294.6" r="65.4"/>
				<circle class="st12" cx="613.8" cy="1255.9" r="64.1"/>
				<path class="st2" d="M805.6,1620c-4.2,0-8.2,0.7-12,2.1l-160.7-121.5c-7.3-5.5-17.8-4.1-23.3,3.3c-5.5,7.3-4.1,17.8,3.3,23.3
					l158.1,119.5c-0.8,2.9-1.2,6-1.2,9.2c0,19.8,16.1,35.9,35.9,35.9c19.8,0,35.9-16.1,35.9-35.9
					C841.4,1636.1,825.4,1620,805.6,1620z"/>
				<path class="st14" d="M968.9,1654.3h-224c-7.1,0-12.9,5.8-12.9,12.8v0c0,7.1,5.8,12.9,12.9,12.9h224c7.1,0,12.9-5.8,12.9-12.9v0
					C981.8,1660.1,976,1654.3,968.9,1654.3z"/>
				<g>
					<path class="st15" d="M988.9,1680H704c-9.7,0-17.6,7.9-17.6,17.6v0c0,9.7,7.9,17.6,17.6,17.6h284.9c9.7,0,17.6-7.9,17.6-17.6v0
						C1006.5,1687.9,998.6,1680,988.9,1680z"/>
					<path class="st2" d="M1014.4,1666.2H678.5c-7.4,0-13.4,6-13.4,13.4c0,7.4,6,13.4,13.4,13.4h335.9c7.4,0,13.4-6,13.4-13.4
						C1027.8,1672.3,1021.8,1666.2,1014.4,1666.2z"/>
				</g>
				<path class="st8" d="M649.7,1565h-120c-41.4,0-75,33.6-75,75c0,41.4,33.6,75,75,75h120c41.4,0,75-33.6,75-75
					C724.7,1598.6,691.1,1565,649.7,1565z"/>
				<path class="st13" d="M596.8,1565h-67.1c-41.4,0-75,33.6-75,75c0,41.4,33.6,75,75,75h67.1c-41.4,0-75-33.6-75-75
					C521.8,1598.6,555.4,1565,596.8,1565z"/>
				<circle class="st8" cx="684.6" cy="1615.6" r="86.9"/>
			</g>
			<g>
				<path class="st16" d="M1148.7,1367l-100,100c-29.3,29.3-29.3,76.8,0,106.1c29.3,29.3,76.8,29.3,106.1,0l100-100
					c29.3-29.3,29.3-76.8,0-106.1C1225.5,1337.7,1178,1337.7,1148.7,1367z"/>
				<path class="st16" d="M1341.8,1340c-110,0-200,90-200,200v200h400v-200C1541.8,1430,1451.8,1340,1341.8,1340z"/>
				<path class="st17" d="M1528.5,1366.6c-18.4-36.9-63.3-51.8-100.2-33.4c-36.9,18.4-51.8,63.3-33.4,100.2l120,240
					c18.4,36.9,63.3,51.8,100.2,33.4c36.9-18.4,51.8-63.3,33.4-100.2L1528.5,1366.6z"/>
				<ellipse class="st13" cx="1340" cy="1402.8" rx="86.5" ry="71"/>
				<g>
					<path class="st8" d="M1341.8,1120L1341.8,1120c-75.4,0-137.1,61.7-137.1,137.1v45.7c0,5.7,0.4,11.2,1,16.7
						c-12.4,10-18.7,26.5-15.3,45.2c5.5,30.5,34.6,55.3,65.2,55.3c4.5,0,8.7-0.5,12.7-1.5c21.3,13.6,46.5,21.5,73.6,21.5h0
						c75.4,0,137.1-61.7,137.1-137.1v-45.7C1478.9,1181.7,1417.2,1120,1341.8,1120z"/>
					<path class="st13" d="M1391,1426.8c-27,0-52.3-7.9-73.6-21.5c-4,1-8.2,1.5-12.7,1.5c-30.5,0-59.7-24.7-65.2-55.3
						c-3.3-18.7,3-35.1,15.3-45.2c-0.7-5.5-1-11.1-1-16.7v-45.7c0-54.2,31.9-101.3,77.8-123.5c-70.7,5.2-127,64.7-127,136.8v45.7
						c0,5.7,0.4,11.2,1,16.7c-12.4,10-18.7,26.5-15.3,45.2c5.5,30.5,34.6,55.3,65.2,55.3c4.5,0,8.7-0.5,12.7-1.5
						c21.3,13.6,46.5,21.5,73.6,21.5h0c21.2,0,41.4-4.9,59.4-13.6C1397.8,1426.6,1394.4,1426.8,1391,1426.8L1391,1426.8z"/>
					<ellipse class="st12" cx="1331.4" cy="1170.5" rx="125.6" ry="90.5"/>
					<path class="st12" d="M1205.6,1158.8c-6.4-31,9.6-58.3,39.3-74.6c-48.6,11.5-78.5,45.8-70.1,86.3c10.3,50,74.8,90.5,144.2,90.5
						c26.4,0,49.6-5.9,67.8-15.8c-11.4,2.7-23.7,4.2-36.9,4.2C1280.4,1249.3,1215.9,1208.8,1205.6,1158.8z"/>
					<path class="st12" d="M1416.4,1203.2c-17.1,0-31.2,14-31.2,31.2v14.6c0,17.1,14,31.2,31.2,31.2c17.2,0,31.2-14,31.2-31.2v-14.6
						C1447.5,1217.3,1433.5,1203.2,1416.4,1203.2z"/>
					<path class="st12" d="M1342.1,1275c-3.2-1.3-6.6-2-10-2c-5.9,0-11.4,2-15.9,5.4c-4.5,3.4-7.8,8.3-9.4,14
						c-1.2,4.4,1.5,9,5.9,10.2c4.4,1.2,9-1.5,10.2-5.9c0.6-2.1,1.8-3.8,3.4-5c1.6-1.2,3.6-2,5.8-2c1.3,0,2.5,0.2,3.7,0.7
						c1.1,0.4,2.1,1.1,3,2.1c3.3,3.3,8.5,3.3,11.8,0c3.3-3.3,3.3-8.5,0-11.8C1348.2,1278.3,1345.3,1276.4,1342.1,1275z"/>
					<path class="st12" d="M1264.9,1278.4c-4.4-3.4-10-5.4-15.9-5.4c-3.4,0-6.8,0.7-10,2c-3.2,1.3-6.1,3.2-8.5,5.6
						c-3.3,3.3-3.3,8.5,0,11.8c3.3,3.3,8.5,3.3,11.8,0c0.9-0.9,2-1.6,3-2.1c1.1-0.5,2.4-0.7,3.7-0.7c2.2,0,4.2,0.7,5.8,2
						c1.6,1.2,2.8,3,3.4,5c1.2,4.4,5.7,7.1,10.2,5.9c4.4-1.2,7.1-5.7,5.9-10.2C1272.8,1286.7,1269.4,1281.9,1264.9,1278.4z"/>
					<path class="st12" d="M1331.2,1349.8c2.2-0.6,3.5-2.9,2.9-5.1c-0.6-2.2-2.9-3.5-5.1-2.9c-4.5,1.2-8.2,3.8-10.9,7.3
						c-2.4,3.1-3.9,6.9-4.2,10.9c-1,3.3-2.9,6.1-5.5,8.1c-2.7,2.1-6,3.3-9.6,3.3c-3.6,0-6.9-1.2-9.6-3.3c-2.7-2.1-4.7-5-5.6-8.4
						c-0.1-0.5-0.3-0.9-0.6-1.3c-0.5-3.4-1.9-6.6-4-9.3c-2.7-3.5-6.5-6.1-10.9-7.3c-2.2-0.6-4.5,0.7-5.1,2.9
						c-0.6,2.2,0.7,4.5,2.9,5.1c2.6,0.7,4.9,2.3,6.5,4.3c1.6,2.1,2.5,4.6,2.5,7.4c0,2.7-0.9,5.3-2.5,7.4c-1.6,2.1-3.8,3.6-6.5,4.3
						c-2.2,0.6-3.5,2.9-2.9,5.1c0.6,2.2,2.9,3.5,5.1,2.9c4.5-1.2,8.2-3.8,10.9-7.3c0.6-0.8,1.2-1.6,1.6-2.5c1.1,1.2,2.2,2.3,3.5,3.3
						c4.1,3.1,9.2,5,14.7,5c5.4,0,10.5-1.8,14.6-5c1.2-0.9,2.2-1.9,3.2-3c0.4,0.7,0.9,1.5,1.4,2.1c2.7,3.5,6.5,6.1,10.9,7.3
						c2.2,0.6,4.5-0.7,5.1-2.9c0.6-2.2-0.7-4.5-2.9-5.1c-2.6-0.7-4.9-2.3-6.4-4.3c-1.6-2.1-2.5-4.6-2.5-7.4c0-2.7,0.9-5.3,2.5-7.4
						C1326.3,1352,1328.5,1350.5,1331.2,1349.8z"/>
					<path class="st12" d="M1390.9,1221.7c0,43.2,35.1,78.3,78.3,78.3c3.2,0,6.3-0.2,9.3-0.6V1144c-3.1-0.4-6.2-0.6-9.3-0.6
						C1426,1143.4,1390.9,1178.5,1390.9,1221.7z"/>
					<circle class="st8" cx="1473.3" cy="1291.5" r="48.5"/>
					<circle class="st13" cx="1473.3" cy="1291.5" r="18.4"/>
				</g>
				<path class="st2" d="M1305.9,1380c-19.8,0-35.9,16.1-35.9,35.9c0,4.2,0.7,8.2,2.1,12l-121.5,160.7c-5.5,7.3-4.1,17.8,3.3,23.3
					c7.3,5.5,17.8,4.1,23.3-3.3l119.5-158.1c2.9,0.8,6,1.2,9.2,1.2c19.8,0,35.9-16.1,35.9-35.9
					C1341.8,1396.1,1325.7,1380,1305.9,1380z"/>
				<path class="st8" d="M1201.8,1445h-100c-41.4,0-75,33.6-75,75s33.6,75,75,75h100c41.4,0,75-33.6,75-75S1243.2,1445,1201.8,1445z
					"/>
				<path class="st13" d="M1090.6,1499c0-21.2,8.8-40.3,22.9-54h-11.8c-41.4,0-75,33.6-75,75s33.6,75,75,75h100
					c20.2,0,38.6-8,52.1-21h-88.2C1124.2,1574,1090.6,1540.4,1090.6,1499z"/>
				<circle class="st8" cx="1243.4" cy="1501.6" r="81.6"/>
				<g>
					<path class="st8" d="M1590.8,1565.6l-160-20c-41.1-5-78.5,24.2-83.5,65.3c-5,41.1,24.2,78.5,65.3,83.5l160,20
						c41.1,5,78.5-24.2,83.5-65.3C1661.2,1608,1631.9,1570.6,1590.8,1565.6z"/>
					<path class="st13" d="M1477.7,1659.4c-41.1-5-70.3-42.4-65.3-83.5c1.4-11.4,5.3-21.8,11-30.9c-38.1-0.9-71.3,27.3-76,65.9
						c-5,41.1,24.2,78.5,65.3,83.5l160,20c29.7,3.6,57.5-10.7,72.5-34.4c-2.5-0.1-5-0.2-7.5-0.5L1477.7,1659.4z"/>
				</g>
				<g>
					<path class="st15" d="M1437.9,1645.8c-3.7,0-7.2,1.1-10.1,3c-3.1-5.3-8.8-8.8-15.3-8.8c-1.4,0-2.7,0.2-4,0.5
						c-2.5-2.2-5.7-3.5-9.2-3.5c-5.6,0-10.5,3.4-12.7,8.2c-0.3-0.4-0.5-0.7-0.8-1.1c2.7-2.5,4.5-6.2,4.5-10.2
						c0-7.7-6.2-13.9-13.9-13.9c-7.6,0-13.8,6.1-13.9,13.7c-1.9-0.9-3.9-1.4-6.1-1.4c-7.7,0-13.9,6.2-13.9,13.9v0.1
						c-2.4-4.1-6.9-6.9-12-6.9c-0.6,0-1.2,0-1.8,0.1c-0.4-7.3-6.5-13-13.8-13c-6.2,0-11.4,4-13.2,9.6c-2.5-2.8-6.2-4.5-10.2-4.5
						c-4.8,0-9,2.4-11.5,6c-2.3-4.5-7-7.6-12.4-7.6c-7.7,0-13.9,6.2-13.9,13.9c0,2,0.4,4,1.2,5.7c-2.4-2-5.5-3.2-8.9-3.2
						c-4.1,0-7.8,1.8-10.4,4.7c-2.1-1.4-4.7-2.1-7.4-2.1c-2.5,0-4.9,0.7-6.9,1.9c-2-1.2-4.4-1.9-6.9-1.9c-3.4,0-6.5,1.2-9,3.3
						c-2.5-3.3-6.5-5.4-11-5.4c-7.7,0-13.9,6.2-13.9,13.9c0,2.4,0.6,4.6,1.7,6.6c93.1,0,180.5,0,274.1,0c0.1-0.9,0.2-1.8,0.2-2.7
						C1456.6,1654.2,1448.2,1645.8,1437.9,1645.8z"/>
					<g>
						<path class="st15" d="M1461.1,1680h-284.9c-9.7,0-17.6,7.9-17.6,17.6v0c0,9.7,7.9,17.6,17.6,17.6h284.9
							c9.7,0,17.6-7.9,17.6-17.6v0C1478.7,1687.9,1470.8,1680,1461.1,1680z"/>
						<path class="st2" d="M1486.6,1666.2h-335.9c-7.4,0-13.4,6-13.4,13.4c0,7.4,6,13.4,13.4,13.4h335.9c7.4,0,13.4-6,13.4-13.4
							C1500,1672.3,1494,1666.2,1486.6,1666.2z"/>
					</g>
					<path class="st18" d="M1334.9,1616.6c-11,0-14.7,9-8.2,20c6.5,11,20.7,20,31.8,20c11,0,14.7-9,8.2-20
						C1360.2,1625.5,1346,1616.6,1334.9,1616.6z"/>
					<path class="st18" d="M1433.5,1633.8c-5.6,0-12.9,4.6-16.2,10.2c-3.3,5.6-1.4,10.2,4.2,10.2c5.6,0,12.9-4.6,16.2-10.2
						C1441,1638.3,1439.1,1633.8,1433.5,1633.8z"/>
				</g>
			</g>
			<g>
				<path class="st19" d="M1827.6,1280c-104.5,0-190,85.5-190,190v245.2h380V1470C2017.6,1365.5,1932.1,1280,1827.6,1280z"/>
				<path class="st19" d="M1688.6,1295.9l-190.6,52c-39.8,10.8-63.3,51.9-52.4,91.7c10.8,39.8,51.9,63.3,91.7,52.4l190.6-52
					c39.8-10.8,63.3-51.9,52.4-91.7S1728.4,1285.1,1688.6,1295.9z"/>
				<ellipse class="st13" cx="1835.1" cy="1374.1" rx="82.5" ry="60.6"/>
				<path class="st8" d="M1882.3,1078.7c-73.7-19.7-150.1,24.4-169.8,98.1l-11,41.2c-19.7,73.7,24.4,150.1,98.1,169.8
					c73.7,19.7,150.1-24.4,169.8-98.1l11-41.2C2000.1,1174.9,1955.9,1098.4,1882.3,1078.7z"/>
				<path class="st13" d="M1712.4,1176.7l-11,41.2c-19.7,73.7,24.4,150.1,98.1,169.8c9.1,2.4,18.2,3.9,27.3,4.5
					c-45.2-32.8-68-91.3-52.8-148.3l11-41.2c17.3-64.6,78.2-106.4,142.5-102.5c-13.3-9.7-28.5-17.1-45.3-21.6
					C1808.6,1059,1732.2,1103.1,1712.4,1176.7z"/>
				<path class="st12" d="M1879.6,1218.3c-3.3,5.4-6,11.3-7.7,17.8c-9.4,35.2,11.5,71.4,46.7,80.9s71.4-11.5,80.9-46.7
					c1.7-6.4,2.4-12.9,2.2-19.3L1879.6,1218.3z"/>
				<path class="st19" d="M1941.8,1081.3l-112.4-30.1c-42.7-11.5-87.1,14.2-98.6,56.9l-20.8,77.7l267.9,71.8l20.8-77.7
					C2010.2,1137.1,1984.6,1092.7,1941.8,1081.3z"/>
				<path class="st12" d="M1832.1,1121.5l-46.4-12.4c-17.6-4.7-36,5.8-40.7,23.5l-8.6,32.1l110.6,29.6l8.6-32.1
					C1860.3,1144.5,1849.7,1126.2,1832.1,1121.5z"/>
				<path class="st19" d="M2046.3,1247.6l-126-33.8c-7.2-1.9-14.8,2.4-16.7,9.6c-1.9,7.3,2.4,14.8,9.6,16.7l126,33.8
					c7.3,1.9,14.8-2.4,16.7-9.7C2057.9,1257.1,2053.6,1249.6,2046.3,1247.6z"/>
				<path class="st12" d="M1799.1,1157.1c-4.2,0.9-8.4,1.3-12.6,1.4c-15-1.1-29-9.8-36.4-24.1c-9.5-18.4-5.1-40.3,9.5-53.6
					c-3.8,0.8-7.5,2.2-11.1,4c-10.2,5.3-17.5,14-21.3,23.9c-3.5-20.1,3.4-40.9,18.5-54.7c-5.1,1.1-10.1,2.9-15,5.4
					c-29.5,15.3-41,51.6-25.7,81.1s51.6,41,81.1,25.7c0.7-0.3,1.3-0.7,1.9-1c0.5-0.3,1.1-0.5,1.6-0.8c3.6-1.9,6.8-4.2,9.7-6.8
					l-1,0.2L1799.1,1157.1z"/>
				<circle class="st8" cx="1891.5" cy="1288.4" r="38.3"/>
				<path class="st8" d="M1977.5,1426.5c-41.3,0-74.7,33.4-74.7,74.7l-0.2,192.7c0,41.3,33.4,74.7,74.7,74.7s74.7-33.4,74.7-74.7
					l0.2-192.7C2052.2,1459.9,2018.8,1426.5,1977.5,1426.5z"/>
				<path class="st13" d="M2002.9,1430.9c-7.9-2.9-16.4-4.4-25.3-4.4c-41.3,0-74.7,33.4-74.7,74.7l-0.2,192.7
					c0,41.3,33.4,74.7,74.7,74.7c8.9,0,17.4-1.6,25.3-4.4c-28.8-10.4-49.4-37.9-49.4-70.3l0.2-192.7
					C1953.5,1468.8,1974.1,1441.3,2002.9,1430.9z"/>
				<path class="st19" d="M1977.6,1306.5c-41.3,0-74.7,33.4-74.7,74.7l-0.1,120c0,41.3,33.4,74.7,74.7,74.7s74.7-33.4,74.7-74.7
					l0.1-120C2052.3,1339.9,2018.9,1306.5,1977.6,1306.5z"/>
				<path class="st20" d="M1997.7,1309.2c-6.4-1.8-13.1-2.7-20-2.7c-41.3,0-74.7,33.4-74.7,74.7l-0.1,120
					c0,41.3,33.4,74.7,74.7,74.7c6.9,0,13.7-1,20-2.7c-31.5-8.8-54.7-37.7-54.7-72l0.1-120C1943,1346.9,1966.1,1318,1997.7,1309.2z"
					/>
				<circle class="st12" cx="1792.7" cy="1239" r="10.5"/>
				<ellipse class="st12" cx="1724.3" cy="1215.9" rx="10.5" ry="10.5"/>
				<g>
					<path class="st21" d="M1734.1,1217.6l-139-38.4c-11.6-3.2-23.6,3.6-26.8,15.2l-19.7,71.1c-3.2,11.6,3.6,23.6,15.2,26.8
						l139,38.4c11.6,3.2,23.6-3.6,26.8-15.2l19.7-71.1C1752.5,1232.8,1745.6,1220.8,1734.1,1217.6z"/>
					<path class="st2" d="M1746.9,1219.6L1746.9,1219.6c-4.7-1.3-9.7,1.5-11,6.2l-26.9,97.3c-1.3,4.7,1.5,9.7,6.2,11
						c4.7,1.3,9.7-1.5,11-6.2l26.9-97.3C1754.4,1225.9,1751.6,1220.9,1746.9,1219.6z"/>
					<path class="st2" d="M1582.9,1175c-4.7-1.3-9.7,1.5-11,6.2l-26.9,97.3c-1.3,4.7,1.5,9.7,6.2,11h0c4.7,1.3,9.7-1.5,11-6.2
						l26.9-97.3C1590.4,1181.3,1587.6,1176.3,1582.9,1175z"/>
					
						<ellipse transform="matrix(0.2666 -0.9638 0.9638 0.2666 -0.4986 2505.0474)" class="st10" cx="1645.8" cy="1252.9" rx="29.6" ry="29.6"/>
					<path class="st2" d="M1657.3,1225.6c0.6,4,0.4,8.2-0.7,12.4c-4.4,15.7-20.6,25-36.4,20.6c-1.2-0.3-2.5-0.8-3.6-1.3
						c0.5,3.3,1.6,6.4,3.1,9.3c2,1.1,4.1,2,6.4,2.6c15.7,4.4,32-4.9,36.4-20.6c2.1-7.6,1-15.3-2.4-21.7
						C1659.2,1226.4,1658.2,1226,1657.3,1225.6z"/>
				</g>
				<g>
					<path class="st8" d="M1559.6,1176c-48.8,0-76.3,36.8-85,80.7l-30.2,148.6c-8.1,40.5,18.1,79.8,58.6,87.9s79.8-18.1,87.9-58.6
						l23.5-115.6c16.7-15,27.3-36.8,27.3-61.1C1641.6,1212.7,1604.9,1176,1559.6,1176z"/>
					<path class="st13" d="M1540.1,1254.8c6.6-32.9,24.8-61.5,56-70.3c-11-5.5-23.4-8.6-36.6-8.6c-48.8,0-76.3,36.8-85,80.7
						l-30.2,148.6c-8.1,40.5,18.1,79.8,58.6,87.9c26.9,5.4,53.2-4.4,70.3-23.4c-2.5-0.2-5-0.6-7.4-1.1c-36.6-7.3-60.3-42.9-53-79.5
						L1540.1,1254.8z"/>
				</g>
			</g>
			<g>
				<path class="st12" d="M2311.6,1076.6c-94,0-170.2,58.3-170.2,202.4c0,144.1,76.2,260.9,170.2,260.9
					c94,0,170.2-116.8,170.2-260.9C2481.8,1134.9,2405.6,1076.6,2311.6,1076.6z"/>
				<path class="st22" d="M2329.3,1410.2L2329.3,1410.2c-66.6,0-121.1,54.5-121.1,121.1v183.9h242.2v-183.9
					C2450.4,1464.7,2395.9,1410.2,2329.3,1410.2z"/>
				<path class="st23" d="M2365.1,1482.6c-34.5,23-43.8,69.5-20.8,104l80,120c2,3.1,4.3,5.9,6.6,8.6h19.4v-183.9
					c0-19.7-4.8-38.4-13.2-54.8C2414.5,1466.4,2387.3,1467.8,2365.1,1482.6z"/>
				<path class="st22" d="M2199.3,1418.5l-145.4,100c-34,23.5-42.5,70-19,104c23.5,34,70,42.5,104,19l145.4-100
					c34-23.5,42.5-70,19-104C2279.8,1403.5,2233.2,1395,2199.3,1418.5z"/>
				<path class="st13" d="M2295.4,1340c-25.5,0-46.4,20.9-46.4,46.4v27.2c0,25.5,20.9,46.4,46.4,46.4c25.5,0,46.4-20.9,46.4-46.4
					v-27.2C2341.8,1360.9,2320.9,1340,2295.4,1340z"/>
				<path class="st8" d="M2316,1344.9c-22,3.6-39,22.8-39,45.8v27.2c0,18.1,10.5,33.9,25.7,41.5c22-3.6,39-22.8,39-45.8v-27.2
					C2341.8,1368.3,2331.2,1352.5,2316,1344.9z"/>
				<path class="st8" d="M2267.8,1140h-12.1c-62.7,0-114,51.3-114,114v32.1c0,62.7,51.3,114,114,114h12.1c62.7,0,114-51.3,114-114
					V1254C2381.7,1191.3,2330.5,1140,2267.8,1140z"/>
				<path class="st13" d="M2179.3,1280.6v-32.1c0-35.3,16.2-66.9,41.6-87.9c6.5-7.5,13.9-14.3,22.1-19.9
					c-56.7,6.4-101.2,54.9-101.2,113.2v32.1c0,62.7,51.3,114,114,114h12.1c12.1,0,23.8-1.9,34.8-5.5h-9.4
					C2230.5,1394.5,2179.3,1343.2,2179.3,1280.6z"/>
				<path class="st12" d="M2311.2,1080c-46.8,0-72.4,57.1-57.1,127.6c15.3,70.5,65.6,127.6,112.4,127.6c46.8,0,72.4-57.1,57.1-127.6
					C2408.3,1137.1,2358,1080,2311.2,1080z"/>
				<path class="st12" d="M2205.8,1085.4c-40.2,0-69,14.9-88.4,75.4c-19.4,60.5-2.7,109.5,37.5,109.5c40.2,0,88.5-49,107.9-109.5
					C2282.2,1100.4,2245.9,1085.4,2205.8,1085.4z"/>
				<path class="st22" d="M2444.2,1418.4c-23-34.5-69.5-43.8-104-20.8c-34.5,23-43.8,69.5-20.8,104l80,120
					c23,34.5,69.5,43.8,104,20.8c34.5-23,43.8-69.5,20.8-104L2444.2,1418.4z"/>
				<path class="st8" d="M2508.5,1526.2c-35.6-21-81.5-9.2-102.5,26.4l-88.6,149.3c-7.1,12-10.4,25.1-10.4,38.1h161.9l66-111.2
					C2555.9,1593.2,2544.1,1547.3,2508.5,1526.2z"/>
				<path class="st2" d="M2214.7,1532.3c-4.1-0.7-8.2-0.7-12.2,0L2065.1,1385c-6.3-6.7-16.8-7.1-23.5-0.8
					c-6.7,6.3-7.1,16.8-0.8,23.5l135.2,144.9c-1.3,2.8-2.2,5.7-2.8,8.9c-3.4,19.5,9.7,38.1,29.2,41.5s38.1-9.7,41.5-29.2
					S2234.2,1535.7,2214.7,1532.3z"/>
				<path class="st8" d="M2118.9,1405.8c-32,0-54.3,21.2-75.5,42.4l-74.7,74.7c-29.3,29.3-29.3,76.8,0,106.1
					c29.3,29.3,76.8,29.3,106.1,0l74.7-74.7c0.3-0.3,0.6-0.6,0.9-0.9c26.9-12,45.7-39,45.7-70.4
					C2196,1440.3,2161.4,1405.8,2118.9,1405.8z"/>
				<g>
					<path class="st2" d="M2070.7,1599.8c-0.7,4.6-1,9.2-1,14c0,52,42.1,94.1,94.1,94.1c52,0,94.1-42.1,94.1-94.1
						c0-4.8-0.4-9.4-1-14H2070.7z"/>
					<path class="st24" d="M2245.1,1693.3h-162.5c-6,0-10.9,4.9-10.9,10.9c0,6,4.9,10.9,10.9,10.9h162.5c6,0,10.9-4.9,10.9-10.9
						C2256,1698.2,2251.1,1693.3,2245.1,1693.3z"/>
				</g>
				<path class="st13" d="M2118.9,1405.8c-32,0-54.3,21.2-75.5,42.4l-74.7,74.7c-29.3,29.3-29.3,76.8,0,106.1
					c24.1,24.1,60.4,28.3,88.8,12.9c-13.3-1.6-26.2-7.5-36.4-17.7c-24.2-24.2-24.2-63.4,0-87.5l61.7-61.6c17.5-17.5,35.9-35,62.3-35
					c19.2,0,36.4,8.5,48.1,21.9C2183.9,1429.5,2154.2,1405.8,2118.9,1405.8z"/>
				<path class="st13" d="M2405.9,1552.6l-88.6,149.3c-7.1,12-10.4,25.1-10.4,38.1h65.6c-12.2-22.4-12.6-50.4,1.3-73.9l88.6-149.3
					c0.1-0.2,0.2-0.4,0.3-0.6C2439.9,1518.6,2418.5,1531.3,2405.9,1552.6z"/>
				<path class="st12" d="M2182.3,1275.3c-4.8,0-9.3,1.6-12.9,4.4c-3.6,2.8-6.4,6.7-7.6,11.4c-0.9,3.3,1.1,6.8,4.4,7.6
					c3.3,0.9,6.8-1.1,7.6-4.4c0.5-1.9,1.6-3.6,3.1-4.7c1.5-1.1,3.4-1.8,5.4-1.8c2.4,0,4.6,1,6.2,2.6c1.6,1.6,2.6,3.8,2.6,6.2
					c0,3.5,2.8,6.3,6.3,6.3c3.5,0,6.3-2.8,6.3-6.3c0-5.9-2.4-11.2-6.2-15.1C2193.5,1277.7,2188.2,1275.3,2182.3,1275.3z"/>
				<path class="st12" d="M2242.6,1275.3c-4.8,0-9.3,1.6-12.9,4.4c-3.6,2.8-6.4,6.7-7.6,11.4c-0.9,3.3,1.1,6.8,4.4,7.6
					c3.3,0.9,6.8-1.1,7.6-4.4c0.5-1.9,1.6-3.6,3.1-4.7c1.5-1.1,3.4-1.8,5.4-1.8c2.4,0,4.6,1,6.2,2.6c1.6,1.6,2.6,3.8,2.6,6.2
					c0,3.5,2.8,6.3,6.3,6.3c3.5,0,6.3-2.8,6.3-6.3c0-5.9-2.4-11.2-6.2-15.1C2253.8,1277.7,2248.5,1275.3,2242.6,1275.3z"/>
				<path class="st12" d="M2279.5,1338.9c-3.3-0.9-6.7,1.2-7.6,4.5c-0.5,1.9-1.6,3.6-3.1,4.7c-1.5,1.2-3.4,1.8-5.4,1.8
					c-0.8,0-1.6-0.1-2.3-0.3c-0.8-0.2-1.5-0.5-2.1-0.9c-3-1.7-6.8-0.7-8.5,2.3c-1.7,3-0.7,6.8,2.3,8.5c1.6,0.9,3.4,1.7,5.1,2.1
					c1.8,0.5,3.7,0.7,5.5,0.7c4.8,0,9.4-1.6,13-4.5c3.6-2.8,6.4-6.8,7.6-11.5C2284.8,1343.1,2282.8,1339.8,2279.5,1338.9z"/>
			</g>
		</g>
		<g>
			<path class="st7" d="M2570,1715.2H430c-16.5,0-30,13.5-30,30s13.5,30,30,30h2140c16.5,0,30-13.5,30-30S2586.5,1715.2,2570,1715.2
				z"/>
			<path class="st14" d="M2255.4,1715.2H744.6c-16.5,0-30,13.5-30,30s13.5,30,30,30h1510.7c16.5,0,30-13.5,30-30
				S2271.9,1715.2,2255.4,1715.2z"/>
		</g>
		<rect x="474.7" y="1775.2" class="st25" width="2050.5" height="224.8"/>
	</g>
	<g>
		<polygon class="st3" points="808.6,260 751.4,260 751.4,308.8 658.9,401.3 901.1,401.3 808.6,308.8 		"/>
		<polygon class="st3" points="1528.6,260 1471.4,260 1471.4,308.8 1378.9,401.3 1621.1,401.3 1528.6,308.8 		"/>
		<polygon class="st3" points="2248.6,260 2191.4,260 2191.4,308.8 2098.9,401.3 2341.1,401.3 2248.6,308.8 		"/>
	</g>
</g>
</svg>
