<?xml version="1.0" encoding="utf-8"?>
<!-- Generator: Adobe Illustrator 25.1.0, SVG Export Plug-In . SVG Version: 6.00 Build 0)  -->
<svg version="1.1" id="Layer_1" xmlns="http://www.w3.org/2000/svg" xmlns:xlink="http://www.w3.org/1999/xlink" x="0px" y="0px"
	 viewBox="0 0 3600 2000" style="enable-background:new 0 0 3600 2000;" xml:space="preserve">
<style type="text/css">
	.st0{fill:url(#SVGID_1_);}
	.st1{fill:#FFC0BB;}
	.st2{opacity:0.2;fill:#FFC0BB;enable-background:new    ;}
	.st3{fill:#EDFDFC;}
	.st4{fill:#EAA0A0;}
	.st5{fill:url(#SVGID_2_);}
	.st6{fill:#FFFFFF;}
	.st7{fill:url(#SVGID_3_);}
	.st8{fill:url(#SVGID_4_);}
	.st9{fill:#5887C8;}
	.st10{fill:#F9F9F9;}
	.st11{font-family:'Montserrat-Bold';}
	.st12{font-size:46.6472px;}
	.st13{letter-spacing:6;}
	.st14{font-size:22.819px;}
	.st15{letter-spacing:2;}
	.st16{fill:#EFADAB;}
	.st17{fill:#473B1E;}
	.st18{fill:#002A24;}
	.st19{fill:#B7D972;}
	.st20{fill:url(#SVGID_5_);}
	.st21{fill:url(#SVGID_6_);}
</style>
<linearGradient id="SVGID_1_" gradientUnits="userSpaceOnUse" x1="2376.978" y1="1434.1549" x2="1293.0779" y2="229.4866" gradientTransform="matrix(1 0 0 -1 0 1997.8899)">
	<stop  offset="3.409785e-07" style="stop-color:#2CB895"/>
	<stop  offset="0.4484" style="stop-color:#2BB693"/>
	<stop  offset="0.6392" style="stop-color:#27AF8D"/>
	<stop  offset="0.7812" style="stop-color:#21A281"/>
	<stop  offset="0.8981" style="stop-color:#189171"/>
	<stop  offset="1" style="stop-color:#0D7A5C"/>
</linearGradient>
<path class="st0" d="M1837,1916.4c0,0-625.6-46-700.8-351.9c-75.2-305.9,91.5-347.5,148.4-518.9c56.9-171.3-201.3-272.4-28.5-505.5
	s427.7-237.2,535.1-127.4c107.4,109.8,231.2-67.1,430.6,32.5c199.4,99.6,248.2,301,185.1,458.2c-63,157.2,195.4,307.6,227.8,485.9
	C2667.2,1567.6,2374.6,1995,1837,1916.4z"/>
<path class="st1" d="M1203.1,2000H1578l31.1-83.7c11-29.7,33.6-53.5,62.4-66.5c27.2-12.3,63.7-34.6,99.1-74.3
	C1839.5,1698,1876,1615,1876,1615l-232.3-1.1c0,0,20.9-130-94.6-302.6c-12.4-18.5-18-40.6-16.1-62.8l10.9-125.9
	c0,0,78.5-87.7,30.3-196.5c0,0-46-63.7-64.3-40.4c0,0-139.1,331.1-151.7,380.4s-29.5,80.2-12.7,234.9c4.5,41,6.1,75.1,6,103.2
	c-0.1,53.9-12.2,107.2-35.2,155.9L1203.1,2000z"/>
<path class="st2" d="M1552.7,1785.2c-34.8-38.6-83.1-32.5-134-50.2c-50.8-17.6-67.1-144.7-67.1-144.7l0,0c0.1,4.8,0.1,9.5,0.1,13.9
	c-0.1,53.9-12.2,107.2-35.2,155.9L1203.1,2000H1578l31.1-83.7c11-29.7,33.6-53.5,62.4-66.5c23.1-10.5,53-28.2,83.2-57.7
	C1651.4,1835.4,1587.5,1823.8,1552.7,1785.2z"/>
<path class="st3" d="M2373,919c-1.3-5.7-6.5-10-12.6-10c-1.1,0-2.2,0.1-3.3,0.4c-3-6.5-9.6-11-17.2-11c-2,0-3.9,0.3-5.7,0.9
	c-4.1-6.8-11.6-11.4-20.1-11.4c-10.1,0-18.8,6.4-22.1,15.5c-2.3-1.3-5-2-7.8-2c-8.9,0-16.1,7.2-16.1,16.1c0,0.5,0,1,0.1,1.6
	L2373,919L2373,919z"/>
<path class="st3" d="M2221.8,539.8c-3.4-15-16.9-26.2-32.9-26.2c-2.9,0-5.8,0.4-8.5,1.1c-7.9-16.9-25.1-28.7-45-28.7
	c-5.2,0-10.1,0.8-14.8,2.2c-10.7-17.8-30.2-29.6-52.5-29.6c-26.5,0-49,16.8-57.6,40.3c-6.1-3.4-13-5.3-20.4-5.3
	c-23.2,0-42,18.8-42,42c0,1.4,0.1,2.7,0.2,4.1h273.5V539.8z"/>
<path class="st3" d="M1479.6,797.5c-2.9-12.5-14.1-21.9-27.5-21.9c-2.5,0-4.9,0.3-7.1,0.9c-6.6-14.2-21-24-37.7-24
	c-4.3,0-8.5,0.7-12.4,1.9c-9-14.9-25.3-24.8-43.9-24.8c-22.2,0-41,14.1-48.2,33.8c-5.1-2.8-10.9-4.4-17.1-4.4
	c-19.4,0-35.2,15.8-35.2,35.2c0,1.2,0.1,2.3,0.2,3.4h228.9V797.5z"/>
<g>
	<path class="st4" d="M2085.7,665c0,0,79.4-53.1,97.5-18.1S2080,805.8,2080,805.8L2085.7,665z"/>
	<path class="st4" d="M2085.7,896.5c0,0,79.4-53.1,97.5-18.1S2080,1037.3,2080,1037.3L2085.7,896.5z"/>
	<path class="st4" d="M2085.7,1054.3c0,0,79.4-53.1,97.5-18.1S2080,1195.1,2080,1195.1L2085.7,1054.3z"/>
</g>
<linearGradient id="SVGID_2_" gradientUnits="userSpaceOnUse" x1="1536.1" y1="888.2397" x2="2089.6001" y2="888.2397" gradientTransform="matrix(1 0 0 -1 0 1997.8899)">
	<stop  offset="0" style="stop-color:#00503E"/>
	<stop  offset="1" style="stop-color:#023222"/>
</linearGradient>
<path class="st5" d="M2030.8,605.4h-435.9c-32.5,0-58.8,26.3-58.8,58.8v725.4v165.5c0,32.8,26.6,58.8,58.8,58.8h435.9
	c32.4,0,58.8-26.3,58.8-58.8V829.7V664.2C2089.6,631.5,2063,605.4,2030.8,605.4z"/>
<path class="st2" d="M1575.8,1354.5c0,0-78.8,193-71.2,229.5c7.6,36.5,55.5,85.3,172.9,69s198.5-38,198.5-38s4.9-260.5,0-273.7
	s-216-107-224.3-107C1643.5,1234.4,1575.8,1354.5,1575.8,1354.5z"/>
<rect x="1564.6" y="685.5" class="st6" width="496.5" height="848.2"/>
<path class="st6" d="M1914.2,658.9h-201.8c-2.9,0-5.3-2.4-5.3-5.3l0,0c0-2.9,2.4-5.3,5.3-5.3h201.8c2.9,0,5.3,2.4,5.3,5.3l0,0
	C1919.5,656.5,1917.1,658.9,1914.2,658.9z"/>
<path class="st1" d="M1526.2,1198.6c0,0,3,11.1,9.8,16.6l8-92.6c0,0,57.7-64.5,43.8-151.5c-4.8-29.8-19.6-57.2-42.2-77.1
	c-12.9-11.4-27.1-19-35.5-8.3c0,0-65.4,155.7-110.6,269.5L1526.2,1198.6z"/>
<linearGradient id="SVGID_3_" gradientUnits="userSpaceOnUse" x1="2423.592" y1="709.2547" x2="1404.1281" y2="341.9177" gradientTransform="matrix(1 0 0 -1 0 1997.8899)">
	<stop  offset="0" style="stop-color:#C9CD55"/>
	<stop  offset="0.5065" style="stop-color:#659C52"/>
	<stop  offset="1" style="stop-color:#287F50"/>
</linearGradient>
<rect x="1564.6" y="1483.6" class="st7" width="496.5" height="50.2"/>
<linearGradient id="SVGID_4_" gradientUnits="userSpaceOnUse" x1="2168.2346" y1="1417.9434" x2="1148.7686" y2="1050.6056" gradientTransform="matrix(1 0 0 -1 0 1997.8899)">
	<stop  offset="0" style="stop-color:#C9CD55"/>
	<stop  offset="0.5065" style="stop-color:#659C52"/>
	<stop  offset="1" style="stop-color:#287F50"/>
</linearGradient>
<rect x="1564.6" y="685.5" class="st8" width="496.5" height="45"/>
<path class="st4" d="M1521.8,977.2c18.1-8.3,27.5-55.3,30.9-76.5c-14.5-14.6-32.7-27.7-42.6-15c0,0-14.4,34.3-34.4,82.4
	C1489.4,975.8,1508.3,983.4,1521.8,977.2z"/>
<g>
	<path class="st9" d="M1977.1,815.7h-334.7c-14.5,0-26.3,11.8-26.3,26.3v335.3c0,14.5,11.8,26.3,26.3,26.3h334.7
		c14.5,0,26.3-11.8,26.3-26.3V841.9C2003.4,827.4,1991.6,815.7,1977.1,815.7z"/>
	<path class="st9" d="M1918.8,1294.1L1918.8,1294.1c0-20.4-16.5-36.9-36.9-36.9h-144.4c-20.4,0-36.9,16.5-36.9,36.9l0,0
		c0,20.4,16.5,36.9,36.9,36.9h144.4C1902.3,1331,1918.8,1314.5,1918.8,1294.1z"/>
	<g>
		<polygon class="st10" points="1695.1,836.5 1695.1,844.7 1645.5,844.7 1645.5,894.3 1637.3,894.3 1637.3,836.5 		"/>
	</g>
	<g>
		<polygon class="st10" points="1924.3,1181.7 1924.3,1173.5 1974,1173.5 1974,1123.8 1982.2,1123.8 1982.2,1181.7 		"/>
	</g>
	<g>
		<polygon class="st10" points="1982.3,894.4 1974.1,894.4 1974.1,844.8 1924.5,844.8 1924.5,836.6 1982.3,836.6 		"/>
	</g>
	<g>
		<polygon class="st10" points="1637.1,1123.7 1645.3,1123.7 1645.3,1173.3 1695,1173.3 1695,1181.5 1637.1,1181.5 		"/>
	</g>
	<g>
		<g>
			<rect x="1677.2" y="893.1" class="st6" width="265.1" height="265.1"/>
			<g>
				<polygon points="1779,908.8 1766.7,908.8 1766.7,921.1 1779,921.1 1791.3,921.1 1791.3,908.8 				"/>
				<rect x="1840.5" y="908.8" width="12.3" height="12.3"/>
				<polygon points="1828.2,921.1 1815.9,921.1 1815.9,908.8 1803.6,908.8 1803.6,921.1 1791.3,921.1 1791.3,933.4 1791.3,945.6 
					1779,945.6 1779,957.9 1791.3,957.9 1791.3,970.2 1803.6,970.2 1815.9,970.2 1815.9,957.9 1803.6,957.9 1803.6,945.6 
					1803.6,933.4 1815.9,933.4 1828.2,933.4 1840.5,933.4 1840.5,921.1 				"/>
				<polygon points="1852.7,945.6 1852.7,933.4 1840.5,933.4 1840.5,945.6 1840.5,957.9 1852.7,957.9 				"/>
				<polygon points="1766.7,970.2 1766.7,982.5 1779,982.5 1779,970.2 1779,957.9 1766.7,957.9 				"/>
				<rect x="1828.2" y="957.9" width="12.3" height="12.3"/>
				<rect x="1779" y="1044" width="12.3" height="12.3"/>
				<rect x="1692.9" y="982.5" width="12.3" height="12.3"/>
				<polygon points="1828.2,994.8 1840.5,994.8 1840.5,1007.1 1852.7,1007.1 1852.7,994.8 1865,994.8 1865,982.5 1852.7,982.5 
					1852.7,970.2 1840.5,970.2 1840.5,982.5 1828.2,982.5 1815.9,982.5 1803.6,982.5 1791.3,982.5 1791.3,994.8 1803.6,994.8 
					1815.9,994.8 1815.9,1007.1 1828.2,1007.1 				"/>
				<polygon points="1914.2,994.8 1914.2,982.5 1901.9,982.5 1901.9,994.8 1901.9,1007.1 1914.2,1007.1 				"/>
				<rect x="1692.9" y="1007.1" width="12.3" height="12.3"/>
				<polygon points="1754.4,1019.4 1766.7,1019.4 1766.7,1007.1 1779,1007.1 1779,994.8 1766.7,994.8 1754.4,994.8 1754.4,982.5 
					1742.1,982.5 1742.1,994.8 1742.1,1007.1 1754.4,1007.1 				"/>
				<rect x="1803.6" y="1007.1" width="12.3" height="12.3"/>
				<polygon points="1889.6,1007.1 1889.6,994.8 1889.6,982.5 1877.3,982.5 1877.3,994.8 1877.3,1007.1 1865,1007.1 1852.7,1007.1 
					1852.7,1019.4 1865,1019.4 1877.3,1019.4 1877.3,1031.7 1889.6,1031.7 1889.6,1019.4 1901.9,1019.4 1901.9,1007.1 				"/>
				<polygon points="1754.4,1019.4 1742.1,1019.4 1742.1,1007.1 1729.8,1007.1 1729.8,994.8 1729.8,982.5 1717.5,982.5 
					1717.5,994.8 1705.2,994.8 1705.2,1007.1 1717.5,1007.1 1717.5,1019.4 1729.8,1019.4 1729.8,1031.7 1742.1,1031.7 1742.1,1044 
					1754.4,1044 1754.4,1031.7 				"/>
				<polygon points="1779,1031.7 1791.3,1031.7 1791.3,1044 1803.6,1044 1803.6,1031.7 1803.6,1019.4 1791.3,1019.4 1791.3,1007.1 
					1779,1007.1 1779,1019.4 				"/>
				<polygon points="1914.2,1019.4 1901.9,1019.4 1901.9,1031.7 1901.9,1044 1889.6,1044 1889.6,1056.3 1901.9,1056.3 
					1901.9,1068.6 1914.2,1068.6 1914.2,1080.9 1914.2,1093.2 1926.5,1093.2 1926.5,1080.9 1926.5,1068.6 1926.5,1056.3 
					1914.2,1056.3 1914.2,1044 1926.5,1044 1926.5,1031.7 1914.2,1031.7 				"/>
				<polygon points="1705.2,1031.7 1692.9,1031.7 1692.9,1044 1692.9,1056.3 1705.2,1056.3 1705.2,1068.6 1717.5,1068.6 
					1717.5,1056.3 1717.5,1044 1705.2,1044 				"/>
				<rect x="1717.5" y="1031.7" width="12.3" height="12.3"/>
				<polygon points="1852.7,1031.7 1852.7,1019.4 1840.5,1019.4 1828.2,1019.4 1815.9,1019.4 1815.9,1031.7 1815.9,1044 
					1828.2,1044 1828.2,1031.7 1840.5,1031.7 1840.5,1044 1852.7,1044 1852.7,1056.3 1865,1056.3 1865,1044 1877.3,1044 
					1877.3,1031.7 1865,1031.7 				"/>
				<rect x="1729.8" y="1044" width="12.3" height="12.3"/>
				<polygon points="1766.7,1044 1754.4,1044 1754.4,1056.3 1754.4,1068.6 1766.7,1068.6 1766.7,1080.9 1766.7,1093.2 1779,1093.2 
					1779,1080.9 1779,1068.6 1779,1056.3 1766.7,1056.3 				"/>
				<rect x="1803.6" y="1044" width="12.3" height="12.3"/>
				<rect x="1791.3" y="1056.3" width="12.3" height="12.3"/>
				<polygon points="1840.5,1080.9 1840.5,1068.6 1840.5,1056.3 1828.2,1056.3 1828.2,1068.6 1815.9,1068.6 1815.9,1080.9 
					1828.2,1080.9 				"/>
				<rect x="1791.3" y="1080.9" width="12.3" height="12.3"/>
				<rect x="1815.9" y="1093.2" width="12.3" height="12.3"/>
				<path d="M1889.9,1093.2v-36.9h-49.4v49.4h12.3v12.1h12.3v-12.1h12.3v12.1h12.3v-12.1h0.2v-0.2h12.1v12.3h12.3h12.3v-12.3h-12.3
					v-12.3H1902H1889.9z M1849.9,1065.7h30.7v30.7h-30.7V1065.7z"/>
				<polygon points="1779,1117.7 1779,1130 1791.3,1130 1791.3,1117.7 1791.3,1105.4 1791.3,1093.2 1779,1093.2 1779,1105.4 				"/>
				<polygon points="1828.2,1117.7 1828.2,1130 1840.5,1130 1852.7,1130 1852.7,1117.7 1840.5,1117.7 				"/>
				<rect x="1766.7" y="1130" width="12.3" height="12.3"/>
				<polygon points="1803.6,1142.3 1815.9,1142.3 1815.9,1130 1803.6,1130 1791.3,1130 1791.3,1142.3 				"/>
				<polygon points="1901.9,1130 1901.9,1142.3 1914.2,1142.3 1926.5,1142.3 1926.5,1130 1914.2,1130 				"/>
				<rect x="1859.1" y="1074.9" width="12.3" height="12.3"/>
				<path d="M1754.4,908.8h-61.5v61.5h61.5V908.8z M1745.2,961h-43v-43h43V961z"/>
				<rect x="1711.4" y="927.2" width="24.6" height="24.6"/>
				<path d="M1865,908.8v61.5h61.5v-61.5H1865z M1917.3,961h-43v-43h43V961z"/>
				<rect x="1883.5" y="927.2" width="24.6" height="24.6"/>
				<path d="M1692.9,1142.5h61.5V1081h-61.5V1142.5z M1702.2,1090.2h43v43h-43V1090.2z"/>
				<rect x="1711.4" y="1099.5" width="24.6" height="24.6"/>
			</g>
		</g>
	</g>
	<g>
		<text transform="matrix(1 0 0 1 1730.3262 1309.8838)" class="st6 st11 st12 st13">SCAN</text>
	</g>
	<g>
		<text transform="matrix(1 0 0 1 1712.8 883.6602)" class="st6 st11 st14 st15">-SCAN MENU-</text>
	</g>
</g>
<path class="st16" d="M1977.1,1244.2c0,0-67.1,5.6-69.4,23.4s2.8,49.2,66.1,55.3h65.6c0,0-19.6-54.4-18.7-56.3
	S1977.1,1244.2,1977.1,1244.2z"/>
<path class="st1" d="M1869.5,1510c-9.1,4.8-12.2,16.3-7.1,25.2c30.9,53.2,153.6,264.7,164.6,281.9c12.7,19.7,43.6,66.1,146.3,90
	s144.9,92.8,144.9,92.8h316.5c0,0-74.6-118.2-136.5-424.8c0,0-47.8-254.6-137.9-246.2c0,0-54.9-57.7-108.3-46.4
	c0,0-101.3-60.5-159-60.5l-138.5-163.7c-13.7-16.2-37.9-19.4-54.7-6.5c-5.4,4.1-9.6,9.6-10.7,16.9c-4.2,26.7,30.9,94.3,87.2,175.8
	c56.3,81.6,195.5,340.4,135,454.4c0,0-61.9-46.4-115.4-121C1951.3,1515.5,1898.7,1494.5,1869.5,1510z"/>
<path class="st4" d="M2093.7,1222.1c18.4,15.7,35.6,32.8,51.9,50.7c16.2,17.6,31.7,36.9,45.8,56.4c13,18,28.2,42.1,37.8,62.2
	c13.1,26.6,19,46.3,22.9,68.9l-0.4,0.1c-5-23.6-14.3-46-25.4-67.5c-7.7-15.1-22.8-40.1-38.3-61.3c-14-19.6-29.1-38.5-44.9-56.7
	c-14.9-17.1-33.6-37.2-49.7-52.6L2093.7,1222.1z"/>
<path class="st4" d="M2251.2,1282.1c15,7.7,28.3,18.3,40.1,30.4c22.2,22.3,40.3,53,49.4,87.4c3.6,15.3,6,25.7,6.4,49.9h-0.4
	c-1.4-16.6-4.4-33-9.1-49c-10.2-33.1-26.2-61.4-48.7-86.1c-10.6-11.6-24.4-24.1-37.8-32.3L2251.2,1282.1z"/>
<path class="st4" d="M2359.3,1327.9c13.2,10,26.6,27.7,33.1,39.6c15,25.8,22.1,53.1,23.3,82.4l-0.4,0.1
	c-5.6-32.6-11.2-51.1-26.4-80.5c-5-9.9-17.8-29.3-29.8-41.3L2359.3,1327.9z"/>
<path class="st4" d="M1933.4,1575.5c2.8-14.2-13.8-36.8-28.9-53.9c-9.4-10.6-24.2-14.6-37.3-10.2c-7.3,5.4-9.5,15.6-4.8,23.7
	c8.3,14.3,23.2,40,40.8,70.4C1916.4,1598.8,1930.8,1588.7,1933.4,1575.5z"/>
<path class="st4" d="M1946.7,1122.6c8-1.6,44.3-13.7,42.1-20.3l0,0L1953,1060c-7.1-8.4-17-13.3-27.3-14.3l0,0l0,0
	c-0.1,0-0.1,0-0.2,0c-0.3,0-0.9-0.1-1.9-0.1c-4.8,0-16.6,1.4-19.2,14.4c-2.6,12.8,18.7,44,28.1,57
	C1935.7,1121.5,1941.3,1123.7,1946.7,1122.6z"/>
<path class="st17" d="M1311.1,1778.8c39.7,24.4,167.4,97.2,299.4,112.8c7.7,0.9,13.2,8,10.9,14.1l-23.1,61.8
	c-1.5,4.1-6.1,6.5-11.3,5.8c-38.9-4.7-199.5-28.9-312.5-116.3c-3.8-3-5.5-7.5-4-11.3l23.5-63.1
	C1296.3,1776.7,1304.6,1774.8,1311.1,1778.8z"/>
<path class="st18" d="M1300.4,1838.2l-2.2-0.8c-1.8-0.7-2.8-2.7-2.1-4.6l7.8-20.8c0.7-1.8,2.7-2.8,4.6-2.1l2.2,0.8
	c1.8,0.7,2.8,2.7,2.1,4.6l-7.8,20.8C1304.2,1838,1302.2,1838.9,1300.4,1838.2z"/>
<path class="st18" d="M1324.1,1852.8l-2.2-0.8c-1.8-0.7-2.8-2.7-2.1-4.6l7.8-20.8c0.7-1.8,2.7-2.8,4.6-2.1l2.2,0.8
	c1.8,0.7,2.8,2.7,2.1,4.5l-7.8,20.8C1328,1852.6,1326,1853.5,1324.1,1852.8z"/>
<path class="st18" d="M1347.9,1867.4l-2.2-0.8c-1.8-0.7-2.8-2.7-2.1-4.6l7.8-20.8c0.7-1.8,2.7-2.8,4.6-2.1l2.2,0.8
	c1.8,0.7,2.8,2.7,2.1,4.6l-7.8,20.8C1351.8,1867.1,1349.7,1868.1,1347.9,1867.4z"/>
<path class="st18" d="M1372.4,1879.2l-2.2-0.8c-1.8-0.7-2.8-2.7-2.1-4.6l7.8-20.8c0.7-1.8,2.7-2.8,4.6-2.1l2.2,0.8
	c1.8,0.7,2.8,2.7,2.1,4.6l-7.8,20.8C1376.3,1879,1374.2,1879.9,1372.4,1879.2z"/>
<path class="st18" d="M1396.5,1893l-2.2-0.8c-1.8-0.7-2.8-2.7-2.1-4.6l7.8-20.8c0.7-1.8,2.7-2.8,4.6-2.1l2.2,0.8
	c1.8,0.7,2.8,2.7,2.1,4.6l-7.8,20.8C1400.4,1892.7,1398.3,1893.6,1396.5,1893z"/>
<path class="st18" d="M1421.6,1903.9l-2.2-0.8c-1.8-0.7-2.8-2.7-2.1-4.5l7.8-20.8c0.7-1.8,2.7-2.8,4.6-2.1l2.2,0.8
	c1.8,0.7,2.8,2.7,2.1,4.5l-7.8,20.8C1425.5,1903.6,1423.5,1904.5,1421.6,1903.9z"/>
<path class="st18" d="M1447.3,1913.4l-2.2-0.8c-1.8-0.7-2.8-2.7-2.1-4.6l7.8-20.8c0.7-1.8,2.7-2.8,4.6-2.1l2.2,0.8
	c1.8,0.7,2.8,2.7,2.1,4.6l-7.8,20.8C1451.1,1913.2,1449.1,1914.1,1447.3,1913.4z"/>
<path class="st18" d="M1473.4,1921.7l-2.2-0.8c-1.8-0.7-2.8-2.7-2.1-4.6l7.8-20.8c0.7-1.8,2.7-2.8,4.6-2.1l2.2,0.8
	c1.8,0.7,2.8,2.7,2.1,4.6l-7.8,20.8C1477.3,1921.4,1475.2,1922.4,1473.4,1921.7z"/>
<path class="st18" d="M1500.6,1927.1l-2.2-0.8c-1.8-0.7-2.8-2.7-2.1-4.6l7.8-20.8c0.7-1.8,2.7-2.8,4.6-2.1l2.2,0.8
	c1.8,0.7,2.8,2.7,2.1,4.5l-7.8,20.8C1504.5,1926.8,1502.4,1927.8,1500.6,1927.1z"/>
<path class="st18" d="M1527.1,1934.4l-2.2-0.8c-1.8-0.7-2.8-2.7-2.1-4.6l7.8-20.8c0.7-1.8,2.7-2.8,4.6-2.1l2.2,0.8
	c1.8,0.7,2.8,2.7,2.1,4.6l-7.8,20.8C1531,1934.2,1528.9,1935.1,1527.1,1934.4z"/>
<path class="st18" d="M1554.6,1939l-2.2-0.8c-1.8-0.7-2.8-2.7-2.1-4.6l7.8-20.8c0.7-1.8,2.7-2.8,4.6-2.1l2.2,0.8
	c1.8,0.7,2.8,2.7,2.1,4.6l-7.8,20.8C1558.5,1938.8,1556.4,1939.7,1554.6,1939z"/>
<path class="st18" d="M1582.1,1943.5l-2.2-0.8c-1.8-0.7-2.8-2.7-2.1-4.6l7.8-20.8c0.7-1.8,2.7-2.8,4.6-2.1l2.2,0.8
	c1.8,0.7,2.8,2.7,2.1,4.5l-7.8,20.8C1586,1943.3,1584,1944.2,1582.1,1943.5z"/>
<path class="st3" d="M1389.5,1921.9l0.1-0.3c-0.4-0.1-0.8-0.2-1.2-0.3l-31.3-11.7c-3.1-1.2-4.6-4.8-3.3-8.1l28.2-75.5
	c1.2-3.3,4.8-5.1,7.9-4l31.2,11.7c1.8,0.7,3.1,2.2,3.6,4.1c2.5,1.1,4.9,2.1,7.4,3.2c0.8-6.3-2.4-12.5-8.2-14.7l-31.3-11.7
	c-6.8-2.6-14.7,1.4-17.4,8.8l-28.2,75.5c-2.8,7.4,0.6,15.5,7.4,18.1l31.2,11.7c4.7,1.8,9.8,0.5,13.5-2.9
	C1395.9,1924.5,1392.7,1923.2,1389.5,1921.9z"/>
<path class="st19" d="M1382.6,1862l-13.6-5.1c-2.4-0.9-5.2,0.5-6.2,3.1s0.2,5.5,2.6,6.4l13.6,5.1L1382.6,1862z"/>
<path class="st2" d="M2318.3,2000h316.5c0,0-48.9-77.5-100.3-269.8c-22.6,141.6-147.2,133.4-196.6,141.3
	c-56.9,9-277.9-37-308.9-51.6c13.8,21,46.4,64.4,144.5,87.2C2276.1,1931.1,2318.3,2000,2318.3,2000z"/>
<path class="st2" d="M1993.1,1270.2c62.1,99.7,173.4,328.8,118.3,428.7l36.6,36.1c0,0,92.4-102.3-54.6-328
	C2059.2,1354.5,2025.2,1309.1,1993.1,1270.2z"/>
<linearGradient id="SVGID_5_" gradientUnits="userSpaceOnUse" x1="2176.7705" y1="2093.4482" x2="859.6742" y2="629.602" gradientTransform="matrix(1 0 0 -1 0 1997.8899)">
	<stop  offset="0" style="stop-color:#53CD9F"/>
	<stop  offset="1" style="stop-color:#0D7A5C"/>
</linearGradient>
<path class="st20" d="M1136.4,980.1c-12.9-65.2,84.3-87.1,100-22.5c1.4,5.8,2.3,12.4,2.6,19.6c3,77.6-43.9,162-93.9,147.8
	s-21.2-67.2-6.1-99C1146.1,1011.2,1139.7,996.9,1136.4,980.1z"/>
<linearGradient id="SVGID_6_" gradientUnits="userSpaceOnUse" x1="2925.1768" y1="1420.3003" x2="1608.0817" y2="-43.5455" gradientTransform="matrix(1 0 0 -1 0 1997.8899)">
	<stop  offset="0" style="stop-color:#53CD9F"/>
	<stop  offset="1" style="stop-color:#0D7A5C"/>
</linearGradient>
<path class="st21" d="M2550.1,838c-28.5-9.9-59.7,5.2-70.4,33.4c-8.3,21.9-17.9,52.5-18.7,79.4c-1.6,48.5,17.7,152.6,91.5,178.3
	c73.8,25.7,117.8-42.1,68.7-120.6C2600.2,975.1,2610.7,859.2,2550.1,838z"/>
<path class="st3" d="M2185,827.8c2.7-11.9,13.4-20.7,26.1-20.7c2.3,0,4.6,0.3,6.8,0.9c6.3-13.4,19.9-22.7,35.7-22.7
	c4.1,0,8,0.6,11.7,1.8c8.5-14.1,23.9-23.5,41.6-23.5c21,0,38.8,13.3,45.6,31.9c4.8-2.7,10.3-4.2,16.2-4.2
	c18.4,0,33.3,14.9,33.3,33.3c0,1.1-0.1,2.2-0.2,3.2H2185z"/>
<path class="st3" d="M1471.7,459.6c2-8.5,9.6-14.8,18.6-14.8c1.7,0,3.3,0.2,4.8,0.6c4.5-9.6,14.2-16.2,25.5-16.2
	c2.9,0,5.7,0.4,8.4,1.3c6.1-10.1,17.1-16.8,29.7-16.8c15,0,27.8,9.5,32.6,22.9c3.4-1.9,7.4-3,11.6-3c13.2,0,23.8,10.7,23.8,23.8
	c0,0.8,0,1.6-0.1,2.3L1471.7,459.6L1471.7,459.6z"/>
<path class="st3" d="M2292,1163.3c0,0-3.3,32.2-28.6,34.4c25.4,2.2,28.6,34.4,28.6,34.4s3.3-32.2,28.6-34.4
	C2295.2,1195.5,2292,1163.3,2292,1163.3z"/>
<path class="st3" d="M2247.3,654.1c0,0-2.3,23.1-20.5,24.7c18.2,1.6,20.5,24.7,20.5,24.7s2.3-23.1,20.5-24.7
	C2249.7,677.2,2247.3,654.1,2247.3,654.1z"/>
<path class="st3" d="M1458.3,530.5c0,0-1.5,14.5-12.9,15.5c11.4,1,12.9,15.5,12.9,15.5s1.5-14.5,12.9-15.5
	C1459.8,545,1458.3,530.5,1458.3,530.5z"/>
<path class="st3" d="M1365.1,925.7c0,0-3.3,32.2-28.6,34.4c25.4,2.2,28.6,34.4,28.6,34.4s3.3-32.2,28.6-34.4
	C1368.3,957.8,1365.1,925.7,1365.1,925.7z"/>
<path class="st3" d="M2359.1,1074.4c0,0-2.2,21.3-18.9,22.7c16.8,1.5,18.9,22.7,18.9,22.7s2.2-21.3,18.9-22.7
	C2361.3,1095.6,2359.1,1074.4,2359.1,1074.4z"/>
<path class="st3" d="M2305.5,592.6c0,0-1.2,11.6-10.3,12.4c9.2,0.8,10.3,12.4,10.3,12.4s1.2-11.6,10.3-12.4
	C2306.7,604.2,2305.5,592.6,2305.5,592.6z"/>
<path class="st3" d="M1418.4,850.5c0,0-2.2,21.3-18.9,22.7c16.8,1.5,18.9,22.7,18.9,22.7s2.2-21.3,18.9-22.7
	C1420.6,871.7,1418.4,850.5,1418.4,850.5z"/>
<path class="st6" d="M1540.1,499.7c0,0-1.1,11.1-9.9,11.9c8.8,0.8,9.9,11.9,9.9,11.9s1.1-11.1,9.9-11.9
	C1541.2,510.9,1540.1,499.7,1540.1,499.7z"/>
<path class="st3" d="M2261,1010.5c0,0-1,9.5-8.5,10.2c7.5,0.7,8.5,10.2,8.5,10.2s1-9.5,8.5-10.2C2262,1020,2261,1010.5,2261,1010.5z
	"/>
<path class="st6" d="M1387.6,1051.2c0,0-1,9.5-8.5,10.2c7.5,0.7,8.5,10.2,8.5,10.2s1-9.5,8.5-10.2
	C1388.6,1060.8,1387.6,1051.2,1387.6,1051.2z"/>
<path class="st3" d="M1475.8,608.3c0,0-1.9,18.8-16.7,20.1c14.8,1.3,16.7,20.1,16.7,20.1s1.9-18.8,16.7-20.1
	C1477.7,627.1,1475.8,608.3,1475.8,608.3z"/>
</svg>
