<svg height='20px' width='30px'  fill="#252b32" xmlns="http://www.w3.org/2000/svg" xmlns:xlink="http://www.w3.org/1999/xlink" version="1.1" x="0px" y="0px" viewBox="0 0 512 512" style="enable-background:new 0 0 512 512;" xml:space="preserve"><g><path d="M399,59c0-28.7-23.3-52-52-52H165c-28.7,0-52,23.3-52,52v394c0,28.7,23.3,52,52,52h182   c28.7,0,52-23.3,52-52V59z M137,97h238v291H137V97z M347.1,481H164.9c-15.4,0-27.9-12.8-27.9-28.2V412h238v40.8   C375,468.2,362.5,481,347.1,481z M375,59.2V73H137V59.2c0-15.4,12.5-28.2,27.9-28.2h182.2C362.5,31,375,43.8,375,59.2z"></path><path d="M280.4,435h-48.8c-6.6,0-12,5.4-12,12s5.4,12,12,12h48.8c6.6,0,12-5.4,12-12S287,435,280.4,435z"></path></g></svg>