<?xml version="1.0" encoding="UTF-8"?>
<svg width="240px" height="110px" viewBox="0 0 240 110" version="1.1" xmlns="http://www.w3.org/2000/svg" xmlns:xlink="http://www.w3.org/1999/xlink">
    <!-- Generator: Sketch 61 (89581) - https://sketch.com -->
    <title>Group</title>
    <desc>Created with Sketch.</desc>
    <g id="Page-2" stroke="none" stroke-width="1" fill="none" fill-rule="evenodd">
        <g id="NutricalLogo" transform="translate(-93.000000, -160.000000)">
            <g id="Group" transform="translate(93.000000, 160.000000)">
                <path d="M216.5223,80.8935673 C225.3443,71.5335673 230.4393,58.7085673 229.5323,44.8615673 C227.7983,18.4085673 204.9493,-1.62943273 178.4973,0.104567267 C152.0443,1.83756727 132.0063,24.6875673 133.7393,51.1395673 C135.4733,77.5915673 158.3233,97.6305673 184.7753,95.8965673 C194.5463,95.2565673 203.4303,91.7215673 210.6763,86.2015673 C212.0103,86.3765673 212.7213,87.0615673 213.1603,87.5915673 C211.3303,90.1415673 210.3353,93.2995673 210.5553,96.6575673 C211.0653,104.430567 217.8663,110.313567 225.7463,109.797567 C233.6263,109.280567 239.6003,102.560567 239.0913,94.7865673 C238.5823,87.0135673 231.7803,81.1305673 223.9013,81.6475673 C221.7213,81.7895673 219.6973,82.4205673 217.9063,83.4035673 C217.3573,83.0185673 216.6803,82.1495673 216.5223,80.8935673" id="Fill-23" fill="#EC9243"></path>
                <path d="M168.2333,56.9928673 C163.9753,59.0368673 160.9093,59.8318673 156.7073,59.8318673 C151.0863,59.8318673 147.5663,55.6868673 147.5093,49.2138673 C147.5093,42.0598673 150.9163,38.4268673 157.2753,38.4268673 C160.2273,38.4268673 163.3503,39.0508673 167.2683,40.2998673 L169.6523,34.3388673 C165.8483,32.3508673 161.2493,31.2728673 156.9343,31.2728673 C145.9193,31.2728673 139.5033,37.7448673 139.5033,49.2138673 C139.5033,60.6268673 145.9193,66.9858673 156.3663,66.9858673 C161.8173,66.9858673 166.3033,65.7368673 170.9023,62.9548673 L168.2333,56.9928673 Z M179.9293,46.2048673 C183.8473,45.2968673 186.7993,44.8988673 188.9573,44.8988673 C192.6473,44.8988673 193.5563,46.2048673 193.5563,50.0088673 L187.5373,50.0088673 C179.8723,50.0088673 176.0683,52.7348673 176.0683,58.5258673 C176.0683,64.7718673 179.2483,66.9858673 185.1523,66.9858673 C188.7303,66.9858673 191.2853,65.3388673 193.5563,63.2388673 L193.5563,66.4748673 L201.1643,66.4748673 L201.1643,50.0088673 C201.1643,42.1168673 198.2113,38.7098673 190.3763,38.7098673 C187.5373,38.7098673 184.6983,39.1648673 178.7933,40.6978673 L179.9293,46.2048673 Z M193.5563,54.4378673 L193.5563,58.4688673 C191.9663,60.1728673 189.9793,61.3648673 187.5943,61.3648673 C184.8123,61.3648673 183.2223,60.0018673 183.2223,57.6178673 C183.2223,54.9488673 185.0393,54.4378673 188.5593,54.4378673 L193.5563,54.4378673 Z M209.2823,66.4748673 L217.0613,66.4748673 L217.0613,29.6828673 L209.2823,29.6828673 L209.2823,66.4748673 Z" id="Fill-25" fill="#1D2646"></path>
                <path d="M31.398,66.4747673 L31.398,31.8397673 L23.506,31.8397673 L23.506,53.6427673 L7.154,31.8397673 L1.42108547e-14,31.8397673 L1.42108547e-14,66.4747673 L7.892,66.4747673 L7.892,44.8987673 L24.187,66.4747673 L31.398,66.4747673 Z M58.197,66.4747673 L65.976,66.4747673 L65.976,39.2777673 L58.197,39.2777673 L58.197,56.1407673 C56.494,58.2987673 54.223,59.9457673 51.725,59.9457673 C48.715,59.9457673 47.864,58.2987673 47.864,54.4377673 L47.864,39.2777673 L40.142,39.2777673 L40.142,56.4247673 C40.142,63.7497673 43.094,66.9857673 48.943,66.9857673 C52.52,66.9857673 54.904,65.3387673 58.197,63.0117673 L58.197,66.4747673 Z M91.186,60.2857673 C89.482,60.4567673 88.63,60.4567673 87.438,60.4567673 C84.542,60.4567673 83.577,59.3777673 83.577,56.5387673 L83.577,45.6367673 L90.731,45.6367673 L90.731,39.2777673 L83.577,39.2777673 L83.577,32.9757673 L75.855,32.9757673 L75.855,39.2777673 L71.938,39.2777673 L71.938,45.6367673 L75.855,45.6367673 L75.855,56.8797673 C75.855,63.9767673 78.41,66.8157673 84.542,66.8157673 C87.041,66.8157673 89.823,66.1907673 91.924,65.1687673 L91.186,60.2857673 Z M106.459,39.2777673 L98.68,39.2777673 L98.68,66.4747673 L106.459,66.4747673 L106.459,52.2237673 C107.651,48.1357673 110.206,46.6027673 113.613,46.6027673 C114.578,46.6027673 115.486,46.6027673 116.849,46.7157673 L117.417,38.9377673 C115.884,38.7667673 114.975,38.7667673 114.01,38.7667673 C110.66,38.7667673 108.162,40.8677673 106.459,44.3877673 L106.459,39.2777673 Z M123.038,31.3287673 C123.038,33.9977673 125.139,35.3607673 127.467,35.3607673 C129.795,35.3607673 131.896,33.9977673 131.896,31.3287673 C131.896,28.6607673 129.795,27.2977673 127.467,27.2977673 C125.139,27.2977673 123.038,28.6607673 123.038,31.3287673 L123.038,31.3287673 Z M123.606,66.4747673 L131.385,66.4747673 L131.385,39.2777673 L123.606,39.2777673 L123.606,66.4747673 Z" id="Fill-27" fill="#1D2646"></path>
            </g>
        </g>
    </g>
</svg>