<svg xmlns="http://www.w3.org/2000/svg" xmlns:xlink="http://www.w3.org/1999/xlink" width="30" height="28" viewBox="0 0 100 100"><g><g transform="translate(50 50) scale(0.69 0.69) rotate(0) translate(-50 -50)" style="fill:#252b32"><svg fill="#252b32" xmlns="http://www.w3.org/2000/svg" xmlns:xlink="http://www.w3.org/1999/xlink" version="1.1" x="0px" y="0px" viewBox="0 0 44 44" style="enable-background:new 0 0 44 44;" xml:space="preserve"><style type="text/css">
	.st0{fill:none;}
	.st1{clip-path:url(#SVGID_2_);}
	.st2{fill:none;stroke:#333333;stroke-width:3;stroke-linecap:round;stroke-linejoin:round;stroke-miterlimit:10;}
	.st3{display:none;opacity:0.3;}
	.st4{display:inline;fill-rule:evenodd;clip-rule:evenodd;fill:#333333;}
	.st5{fill-rule:evenodd;clip-rule:evenodd;}
	.st6{clip-path:url(#SVGID_4_);fill-rule:evenodd;clip-rule:evenodd;}
	.st7{fill:none;stroke:#333333;stroke-width:3.2;stroke-linecap:round;stroke-linejoin:round;stroke-miterlimit:10;}
	.st8{fill:none;stroke:#333333;stroke-width:3;stroke-miterlimit:10;}
	.st9{fill:none;stroke:#333333;stroke-width:3;stroke-linejoin:round;stroke-miterlimit:10;}
	.st10{fill:none;stroke:#333333;stroke-width:3;stroke-linecap:round;stroke-miterlimit:10;}
	.st11{display:none;fill:none;stroke:#333333;stroke-width:3;stroke-linecap:round;stroke-linejoin:round;stroke-miterlimit:10;}
	
		.st12{display:none;opacity:0.6;fill:#333333;stroke:#333333;stroke-width:3;stroke-linecap:round;stroke-linejoin:round;stroke-miterlimit:10;}
	.st13{display:none;}
	
		.st14{display:inline;fill:#333333;stroke:#333333;stroke-width:3;stroke-linecap:round;stroke-linejoin:round;stroke-miterlimit:10;}
	.st15{clip-path:url(#SVGID_6_);}
	.st16{display:inline;fill:none;stroke:#333333;stroke-width:3;stroke-linecap:round;stroke-linejoin:round;stroke-miterlimit:10;}
	.st17{display:inline;fill:#333333;}
	.st18{display:inline;}
	.st19{display:none;opacity:0.2;fill:#333333;}
	.st20{fill:none;stroke:#333333;stroke-width:3.0015;stroke-linecap:round;stroke-linejoin:round;stroke-miterlimit:10;}
	.st21{opacity:0.4;}
	.st22{display:inline;fill:none;}
	.st23{display:inline;fill:#333333;}
	.st24{display:none;opacity:0.4;fill:#333333;}
	.st25{display:inline;fill:none;stroke:#333333;stroke-width:3;stroke-linecap:round;stroke-miterlimit:10;}
	.st26{display:none;fill:none;stroke:#333333;stroke-width:2.4749;stroke-miterlimit:10;}
	.st27{display:none;fill:#333333;}
	.st28{fill:none;stroke:#333333;stroke-width:2.9481;stroke-linecap:round;stroke-linejoin:round;stroke-miterlimit:10;}
	.st29{display:none;fill:none;stroke:#333333;stroke-width:2.3735;stroke-linecap:round;stroke-miterlimit:10;}
	
		.st30{display:none;fill:none;stroke:#333333;stroke-width:2.4713;stroke-linecap:round;stroke-linejoin:round;stroke-miterlimit:10;}
	
		.st31{display:none;fill:none;stroke:#333333;stroke-width:2.9417;stroke-linecap:round;stroke-linejoin:round;stroke-miterlimit:10;}
	.st32{display:none;fill:none;stroke:#333333;stroke-width:2.6;stroke-miterlimit:10;}
	.st33{display:none;fill:#333333;}
	.st34{display:none;opacity:0.3;fill:none;stroke:#333333;stroke-width:2.8;stroke-miterlimit:10;}
	
		.st35{display:none;fill:none;stroke:#333333;stroke-width:2.8909;stroke-linecap:round;stroke-linejoin:round;stroke-miterlimit:10;}
	.st36{fill:none;stroke:#333333;stroke-width:2.6;stroke-linecap:round;stroke-miterlimit:10;}
	.st37{fill:none;stroke:#333333;stroke-width:2.8;stroke-linecap:round;stroke-linejoin:round;stroke-miterlimit:10;}
	.st38{display:none;opacity:0.5;fill:#333333;}
	.st39{fill:none;stroke:#333333;stroke-width:2.8;stroke-miterlimit:10;}
	.st40{fill:none;stroke:#333333;stroke-width:2.8;stroke-linecap:round;stroke-miterlimit:10;}
	.st41{display:inline;opacity:0.1;fill:#333333;}
	.st42{opacity:0.1;fill:#333333;}
	.st43{fill:#333333;}
</style><g><rect class="st0" width="44" height="44"></rect><g><path class="st11" d="M31.3,23.2c0,5.1-4.2,9.3-9.3,9.3s-9.3-4.2-9.3-9.3v-7.4c0-5.1,4.2-9.3,9.3-9.3c2.6,0,4.9,1,6.6,2.7    c0.6,0.6,1.1,1.2,1.5,1.9"></path><path class="st2" d="M31,37H13c-2.2,0-4-1.8-4-4V19c0-2.2,1.8-4,4-4h18c2.2,0,4,1.8,4,4v14C35,35.2,33.2,37,31,37z"></path><path class="st2" d="M31,15c-0.3-4.7-4.2-8.4-9-8.4s-8.6,3.7-9,8.4"></path><path d="M22,30L22,30c-1.1,0-2-0.9-2-2v-4c0-1.1,0.9-2,2-2h0c1.1,0,2,0.9,2,2v4C24,29.1,23.1,30,22,30z"></path></g></g></svg></g></g></svg>