<svg xmlns="http://www.w3.org/2000/svg" width="499" height="557" viewBox="0 0 499 557">
  <defs>
    <style>
      .cls-1 {
        fill: #f8f8f8;
      }

      .cls-2 {
        fill-rule: evenodd;
        opacity: 0.04;
      }
    </style>
  </defs>
  <rect id="Rectangle_6_copy" data-name="Rectangle 6 copy" class="cls-1" width="499" height="557" rx="13" ry="13"/>
  <path id="Ellipse_1_copy_10" data-name="Ellipse 1 copy 10" class="cls-2" d="M-278.109,339a7.9,7.9,0,0,1,7.89,7.906,7.9,7.9,0,0,1-7.89,7.906A7.9,7.9,0,0,1-286,346.906,7.9,7.9,0,0,1-278.109,339Zm41.359,0a7.906,7.906,0,0,1,7.906,7.906,7.905,7.905,0,0,1-7.906,7.906,7.905,7.905,0,0,1-7.906-7.906A7.906,7.906,0,0,1-236.75,339Zm44.359,0a7.9,7.9,0,0,1,7.891,7.906,7.9,7.9,0,0,1-7.891,7.906,7.9,7.9,0,0,1-7.89-7.906A7.9,7.9,0,0,1-192.391,339Zm41.344,0a7.9,7.9,0,0,1,7.891,7.906,7.9,7.9,0,0,1-7.891,7.906,7.9,7.9,0,0,1-7.891-7.906A7.9,7.9,0,0,1-151.047,339Zm43.5,0a7.9,7.9,0,0,1,7.891,7.906,7.9,7.9,0,0,1-7.891,7.906,7.9,7.9,0,0,1-7.891-7.906A7.9,7.9,0,0,1-107.547,339Zm41.375,0a7.9,7.9,0,0,1,7.891,7.906,7.9,7.9,0,0,1-7.891,7.906,7.9,7.9,0,0,1-7.891-7.906A7.9,7.9,0,0,1-66.172,339Zm44.344,0a7.9,7.9,0,0,1,7.891,7.906,7.9,7.9,0,0,1-7.891,7.906,7.9,7.9,0,0,1-7.891-7.906A7.9,7.9,0,0,1-21.828,339Zm41.375,0a7.906,7.906,0,1,1-7.891,7.906A7.9,7.9,0,0,1,19.547,339Zm43.5,0a7.906,7.906,0,1,1-7.891,7.906A7.9,7.9,0,0,1,63.047,339Zm41.344,0a7.906,7.906,0,1,1-7.891,7.906A7.9,7.9,0,0,1,104.391,339Zm44.359,0a7.906,7.906,0,1,1-7.906,7.906A7.906,7.906,0,0,1,148.75,339Zm41.359,0a7.906,7.906,0,1,1-7.89,7.906A7.9,7.9,0,0,1,190.109,339Zm-468.218,42.25a7.9,7.9,0,0,1,7.89,7.906,7.9,7.9,0,0,1-7.89,7.906A7.9,7.9,0,0,1-286,389.156,7.9,7.9,0,0,1-278.109,381.25Zm41.359,0a7.906,7.906,0,0,1,7.906,7.906,7.905,7.905,0,0,1-7.906,7.906,7.905,7.905,0,0,1-7.906-7.906A7.906,7.906,0,0,1-236.75,381.25Zm44.359,0a7.9,7.9,0,0,1,7.891,7.906,7.9,7.9,0,0,1-7.891,7.906,7.9,7.9,0,0,1-7.89-7.906A7.9,7.9,0,0,1-192.391,381.25Zm41.344,0a7.9,7.9,0,0,1,7.891,7.906,7.9,7.9,0,0,1-7.891,7.906,7.9,7.9,0,0,1-7.891-7.906A7.9,7.9,0,0,1-151.047,381.25Zm43.5,0a7.9,7.9,0,0,1,7.891,7.906,7.9,7.9,0,0,1-7.891,7.906,7.9,7.9,0,0,1-7.891-7.906A7.9,7.9,0,0,1-107.547,381.25Zm41.375,0a7.9,7.9,0,0,1,7.891,7.906,7.9,7.9,0,0,1-7.891,7.906,7.9,7.9,0,0,1-7.891-7.906A7.9,7.9,0,0,1-66.172,381.25Zm44.344,0a7.9,7.9,0,0,1,7.891,7.906,7.9,7.9,0,0,1-7.891,7.906,7.9,7.9,0,0,1-7.891-7.906A7.9,7.9,0,0,1-21.828,381.25Zm41.375,0a7.906,7.906,0,1,1-7.891,7.906A7.9,7.9,0,0,1,19.547,381.25Zm43.5,0a7.906,7.906,0,1,1-7.891,7.906A7.9,7.9,0,0,1,63.047,381.25Zm41.344,0a7.906,7.906,0,1,1-7.891,7.906A7.9,7.9,0,0,1,104.391,381.25Zm44.359,0a7.906,7.906,0,1,1-7.906,7.906A7.906,7.906,0,0,1,148.75,381.25Zm41.359,0a7.906,7.906,0,1,1-7.89,7.906A7.9,7.9,0,0,1,190.109,381.25Zm-468.218,47.406a7.891,7.891,0,0,1,7.89,7.891,7.891,7.891,0,0,1-7.89,7.891A7.891,7.891,0,0,1-286,436.547,7.891,7.891,0,0,1-278.109,428.656Zm41.359,0a7.9,7.9,0,0,1,7.906,7.891,7.9,7.9,0,0,1-7.906,7.891,7.9,7.9,0,0,1-7.906-7.891A7.9,7.9,0,0,1-236.75,428.656Zm44.359,0a7.891,7.891,0,0,1,7.891,7.891,7.891,7.891,0,0,1-7.891,7.891,7.891,7.891,0,0,1-7.89-7.891A7.891,7.891,0,0,1-192.391,428.656Zm41.344,0a7.891,7.891,0,0,1,7.891,7.891,7.891,7.891,0,0,1-7.891,7.891,7.891,7.891,0,0,1-7.891-7.891A7.891,7.891,0,0,1-151.047,428.656Zm43.5,0a7.891,7.891,0,0,1,7.891,7.891,7.891,7.891,0,0,1-7.891,7.891,7.891,7.891,0,0,1-7.891-7.891A7.891,7.891,0,0,1-107.547,428.656Zm41.375,0a7.891,7.891,0,0,1,7.891,7.891,7.891,7.891,0,0,1-7.891,7.891,7.891,7.891,0,0,1-7.891-7.891A7.891,7.891,0,0,1-66.172,428.656Zm44.344,0a7.891,7.891,0,0,1,7.891,7.891,7.891,7.891,0,0,1-7.891,7.891,7.891,7.891,0,0,1-7.891-7.891A7.891,7.891,0,0,1-21.828,428.656Zm41.375,0a7.891,7.891,0,1,1-7.891,7.891A7.891,7.891,0,0,1,19.547,428.656Zm43.5,0a7.891,7.891,0,1,1-7.891,7.891A7.891,7.891,0,0,1,63.047,428.656Zm41.344,0a7.891,7.891,0,1,1-7.891,7.891A7.891,7.891,0,0,1,104.391,428.656Zm44.359,0a7.891,7.891,0,1,1-7.906,7.891A7.9,7.9,0,0,1,148.75,428.656Zm41.359,0a7.891,7.891,0,1,1-7.89,7.891A7.891,7.891,0,0,1,190.109,428.656Zm-468.218,47.375a7.891,7.891,0,0,1,7.89,7.891,7.89,7.89,0,0,1-7.89,7.89,7.89,7.89,0,0,1-7.891-7.89A7.891,7.891,0,0,1-278.109,476.031Zm41.359,0a7.9,7.9,0,0,1,7.906,7.891,7.9,7.9,0,0,1-7.906,7.89,7.9,7.9,0,0,1-7.906-7.89A7.9,7.9,0,0,1-236.75,476.031Zm44.359,0a7.891,7.891,0,0,1,7.891,7.891,7.89,7.89,0,0,1-7.891,7.89,7.89,7.89,0,0,1-7.89-7.89A7.891,7.891,0,0,1-192.391,476.031Zm41.344,0a7.891,7.891,0,0,1,7.891,7.891,7.89,7.89,0,0,1-7.891,7.89,7.89,7.89,0,0,1-7.891-7.89A7.891,7.891,0,0,1-151.047,476.031Zm43.5,0a7.891,7.891,0,0,1,7.891,7.891,7.89,7.89,0,0,1-7.891,7.89,7.89,7.89,0,0,1-7.891-7.89A7.891,7.891,0,0,1-107.547,476.031Zm41.375,0a7.891,7.891,0,0,1,7.891,7.891,7.89,7.89,0,0,1-7.891,7.89,7.89,7.89,0,0,1-7.891-7.89A7.891,7.891,0,0,1-66.172,476.031Zm44.344,0a7.891,7.891,0,0,1,7.891,7.891,7.89,7.89,0,0,1-7.891,7.89,7.89,7.89,0,0,1-7.891-7.89A7.891,7.891,0,0,1-21.828,476.031Zm41.375,0a7.891,7.891,0,1,1-7.891,7.891A7.891,7.891,0,0,1,19.547,476.031Zm43.5,0a7.891,7.891,0,1,1-7.891,7.891A7.891,7.891,0,0,1,63.047,476.031Zm41.344,0a7.891,7.891,0,1,1-7.891,7.891A7.891,7.891,0,0,1,104.391,476.031Zm44.359,0a7.891,7.891,0,1,1-7.906,7.891A7.9,7.9,0,0,1,148.75,476.031Zm41.359,0a7.891,7.891,0,1,1-7.89,7.891A7.891,7.891,0,0,1,190.109,476.031Zm-468.218,52.938a7.891,7.891,0,0,1,7.89,7.89,7.891,7.891,0,0,1-7.89,7.891A7.891,7.891,0,0,1-286,536.859,7.891,7.891,0,0,1-278.109,528.969Zm41.359,0a7.9,7.9,0,0,1,7.906,7.89,7.9,7.9,0,0,1-7.906,7.891,7.9,7.9,0,0,1-7.906-7.891A7.9,7.9,0,0,1-236.75,528.969Zm44.359,0a7.891,7.891,0,0,1,7.891,7.89,7.891,7.891,0,0,1-7.891,7.891,7.891,7.891,0,0,1-7.89-7.891A7.891,7.891,0,0,1-192.391,528.969Zm41.344,0a7.891,7.891,0,0,1,7.891,7.89,7.891,7.891,0,0,1-7.891,7.891,7.891,7.891,0,0,1-7.891-7.891A7.891,7.891,0,0,1-151.047,528.969Zm43.5,0a7.891,7.891,0,0,1,7.891,7.89,7.891,7.891,0,0,1-7.891,7.891,7.891,7.891,0,0,1-7.891-7.891A7.891,7.891,0,0,1-107.547,528.969Zm41.375,0a7.891,7.891,0,0,1,7.891,7.89,7.891,7.891,0,0,1-7.891,7.891,7.891,7.891,0,0,1-7.891-7.891A7.891,7.891,0,0,1-66.172,528.969Zm44.344,0a7.891,7.891,0,0,1,7.891,7.89,7.891,7.891,0,0,1-7.891,7.891,7.891,7.891,0,0,1-7.891-7.891A7.891,7.891,0,0,1-21.828,528.969Zm41.375,0a7.891,7.891,0,1,1-7.891,7.89A7.891,7.891,0,0,1,19.547,528.969Zm43.5,0a7.891,7.891,0,1,1-7.891,7.89A7.891,7.891,0,0,1,63.047,528.969Zm41.344,0a7.891,7.891,0,1,1-7.891,7.89A7.891,7.891,0,0,1,104.391,528.969Zm44.359,0a7.891,7.891,0,1,1-7.906,7.89A7.9,7.9,0,0,1,148.75,528.969Zm41.359,0a7.891,7.891,0,1,1-7.89,7.89A7.891,7.891,0,0,1,190.109,528.969Zm-468.218,52.937a7.891,7.891,0,0,1,7.89,7.891,7.891,7.891,0,0,1-7.89,7.891A7.891,7.891,0,0,1-286,589.8,7.891,7.891,0,0,1-278.109,581.906Zm41.359,0a7.9,7.9,0,0,1,7.906,7.891,7.9,7.9,0,0,1-7.906,7.891,7.9,7.9,0,0,1-7.906-7.891A7.9,7.9,0,0,1-236.75,581.906Zm44.359,0A7.891,7.891,0,0,1-184.5,589.8a7.891,7.891,0,0,1-7.891,7.891,7.891,7.891,0,0,1-7.89-7.891A7.891,7.891,0,0,1-192.391,581.906Zm41.344,0a7.891,7.891,0,0,1,7.891,7.891,7.891,7.891,0,0,1-7.891,7.891,7.891,7.891,0,0,1-7.891-7.891A7.891,7.891,0,0,1-151.047,581.906Zm43.5,0a7.891,7.891,0,0,1,7.891,7.891,7.891,7.891,0,0,1-7.891,7.891,7.891,7.891,0,0,1-7.891-7.891A7.891,7.891,0,0,1-107.547,581.906Zm41.375,0a7.891,7.891,0,0,1,7.891,7.891,7.891,7.891,0,0,1-7.891,7.891,7.891,7.891,0,0,1-7.891-7.891A7.891,7.891,0,0,1-66.172,581.906Zm44.344,0a7.891,7.891,0,0,1,7.891,7.891,7.891,7.891,0,0,1-7.891,7.891,7.891,7.891,0,0,1-7.891-7.891A7.891,7.891,0,0,1-21.828,581.906Zm41.375,0a7.891,7.891,0,1,1-7.891,7.891A7.891,7.891,0,0,1,19.547,581.906Zm43.5,0a7.891,7.891,0,1,1-7.891,7.891A7.891,7.891,0,0,1,63.047,581.906Zm41.344,0A7.891,7.891,0,1,1,96.5,589.8,7.891,7.891,0,0,1,104.391,581.906Zm44.359,0a7.891,7.891,0,1,1-7.906,7.891A7.9,7.9,0,0,1,148.75,581.906Zm41.359,0a7.891,7.891,0,1,1-7.89,7.891A7.891,7.891,0,0,1,190.109,581.906Zm-468.218,52.906a7.9,7.9,0,0,1,7.89,7.907,7.9,7.9,0,0,1-7.89,7.906A7.9,7.9,0,0,1-286,642.719,7.9,7.9,0,0,1-278.109,634.812Zm41.359,0a7.906,7.906,0,0,1,7.906,7.907,7.906,7.906,0,0,1-7.906,7.906,7.906,7.906,0,0,1-7.906-7.906A7.906,7.906,0,0,1-236.75,634.812Zm44.359,0a7.9,7.9,0,0,1,7.891,7.907,7.9,7.9,0,0,1-7.891,7.906,7.9,7.9,0,0,1-7.89-7.906A7.9,7.9,0,0,1-192.391,634.812Zm41.344,0a7.9,7.9,0,0,1,7.891,7.907,7.9,7.9,0,0,1-7.891,7.906,7.9,7.9,0,0,1-7.891-7.906A7.9,7.9,0,0,1-151.047,634.812Zm43.5,0a7.9,7.9,0,0,1,7.891,7.907,7.9,7.9,0,0,1-7.891,7.906,7.9,7.9,0,0,1-7.891-7.906A7.9,7.9,0,0,1-107.547,634.812Zm41.375,0a7.9,7.9,0,0,1,7.891,7.907,7.9,7.9,0,0,1-7.891,7.906,7.9,7.9,0,0,1-7.891-7.906A7.9,7.9,0,0,1-66.172,634.812Zm44.344,0a7.9,7.9,0,0,1,7.891,7.907,7.9,7.9,0,0,1-7.891,7.906,7.9,7.9,0,0,1-7.891-7.906A7.9,7.9,0,0,1-21.828,634.812Zm41.375,0a7.907,7.907,0,1,1-7.891,7.907A7.9,7.9,0,0,1,19.547,634.812Zm43.5,0a7.907,7.907,0,1,1-7.891,7.907A7.9,7.9,0,0,1,63.047,634.812Zm41.344,0a7.907,7.907,0,1,1-7.891,7.907A7.9,7.9,0,0,1,104.391,634.812Zm44.359,0a7.907,7.907,0,1,1-7.906,7.907A7.906,7.906,0,0,1,148.75,634.812Zm41.359,0a7.907,7.907,0,1,1-7.89,7.907A7.9,7.9,0,0,1,190.109,634.812Zm-468.218,47.376a7.9,7.9,0,0,1,7.89,7.906,7.9,7.9,0,0,1-7.89,7.906A7.9,7.9,0,0,1-286,690.094,7.9,7.9,0,0,1-278.109,682.188Zm41.359,0a7.905,7.905,0,0,1,7.906,7.906A7.906,7.906,0,0,1-236.75,698a7.906,7.906,0,0,1-7.906-7.906A7.905,7.905,0,0,1-236.75,682.188Zm44.359,0a7.9,7.9,0,0,1,7.891,7.906A7.9,7.9,0,0,1-192.391,698a7.9,7.9,0,0,1-7.89-7.906A7.9,7.9,0,0,1-192.391,682.188Zm41.344,0a7.9,7.9,0,0,1,7.891,7.906A7.9,7.9,0,0,1-151.047,698a7.9,7.9,0,0,1-7.891-7.906A7.9,7.9,0,0,1-151.047,682.188Zm43.5,0a7.9,7.9,0,0,1,7.891,7.906A7.9,7.9,0,0,1-107.547,698a7.9,7.9,0,0,1-7.891-7.906A7.9,7.9,0,0,1-107.547,682.188Zm41.375,0a7.9,7.9,0,0,1,7.891,7.906A7.9,7.9,0,0,1-66.172,698a7.9,7.9,0,0,1-7.891-7.906A7.9,7.9,0,0,1-66.172,682.188Zm44.344,0a7.9,7.9,0,0,1,7.891,7.906A7.9,7.9,0,0,1-21.828,698a7.9,7.9,0,0,1-7.891-7.906A7.9,7.9,0,0,1-21.828,682.188Zm41.375,0a7.906,7.906,0,1,1-7.891,7.906A7.9,7.9,0,0,1,19.547,682.188Zm43.5,0a7.906,7.906,0,1,1-7.891,7.906A7.9,7.9,0,0,1,63.047,682.188Zm41.344,0a7.906,7.906,0,1,1-7.891,7.906A7.9,7.9,0,0,1,104.391,682.188Zm44.359,0a7.906,7.906,0,1,1-7.906,7.906A7.905,7.905,0,0,1,148.75,682.188Zm41.359,0a7.906,7.906,0,1,1-7.89,7.906A7.9,7.9,0,0,1,190.109,682.188Z"/>
  <path id="Ellipse_1_copy_11" data-name="Ellipse 1 copy 11" class="cls-2" d="M306.891-124a7.9,7.9,0,0,1,7.89,7.906,7.9,7.9,0,0,1-7.89,7.906A7.9,7.9,0,0,1,299-116.094,7.9,7.9,0,0,1,306.891-124Zm41.359,0a7.906,7.906,0,0,1,7.906,7.906,7.905,7.905,0,0,1-7.906,7.906,7.905,7.905,0,0,1-7.906-7.906A7.906,7.906,0,0,1,348.25-124Zm44.359,0a7.9,7.9,0,0,1,7.891,7.906,7.9,7.9,0,0,1-7.891,7.906,7.9,7.9,0,0,1-7.89-7.906A7.9,7.9,0,0,1,392.609-124Zm41.344,0a7.9,7.9,0,0,1,7.891,7.906,7.9,7.9,0,0,1-7.891,7.906,7.9,7.9,0,0,1-7.891-7.906A7.9,7.9,0,0,1,433.953-124Zm43.5,0a7.9,7.9,0,0,1,7.891,7.906,7.9,7.9,0,0,1-7.891,7.906,7.9,7.9,0,0,1-7.891-7.906A7.9,7.9,0,0,1,477.453-124Zm41.375,0a7.9,7.9,0,0,1,7.891,7.906,7.9,7.9,0,0,1-7.891,7.906,7.9,7.9,0,0,1-7.89-7.906A7.9,7.9,0,0,1,518.828-124Zm44.344,0a7.9,7.9,0,0,1,7.89,7.906,7.9,7.9,0,0,1-7.89,7.906,7.9,7.9,0,0,1-7.891-7.906A7.9,7.9,0,0,1,563.172-124Zm41.375,0a7.9,7.9,0,0,1,7.891,7.906,7.9,7.9,0,0,1-7.891,7.906,7.9,7.9,0,0,1-7.891-7.906A7.9,7.9,0,0,1,604.547-124Zm43.5,0a7.9,7.9,0,0,1,7.891,7.906,7.9,7.9,0,0,1-7.891,7.906,7.9,7.9,0,0,1-7.891-7.906A7.9,7.9,0,0,1,648.047-124Zm41.344,0a7.9,7.9,0,0,1,7.89,7.906,7.9,7.9,0,0,1-7.89,7.906,7.9,7.9,0,0,1-7.891-7.906A7.9,7.9,0,0,1,689.391-124Zm44.359,0a7.906,7.906,0,0,1,7.906,7.906,7.905,7.905,0,0,1-7.906,7.906,7.905,7.905,0,0,1-7.906-7.906A7.906,7.906,0,0,1,733.75-124Zm41.359,0A7.9,7.9,0,0,1,783-116.094a7.9,7.9,0,0,1-7.891,7.906,7.9,7.9,0,0,1-7.89-7.906A7.9,7.9,0,0,1,775.109-124ZM306.891-81.75a7.9,7.9,0,0,1,7.89,7.906,7.9,7.9,0,0,1-7.89,7.906A7.9,7.9,0,0,1,299-73.844,7.9,7.9,0,0,1,306.891-81.75Zm41.359,0a7.906,7.906,0,0,1,7.906,7.906,7.906,7.906,0,0,1-7.906,7.906,7.906,7.906,0,0,1-7.906-7.906A7.906,7.906,0,0,1,348.25-81.75Zm44.359,0a7.9,7.9,0,0,1,7.891,7.906,7.9,7.9,0,0,1-7.891,7.906,7.9,7.9,0,0,1-7.89-7.906A7.9,7.9,0,0,1,392.609-81.75Zm41.344,0a7.9,7.9,0,0,1,7.891,7.906,7.9,7.9,0,0,1-7.891,7.906,7.9,7.9,0,0,1-7.891-7.906A7.9,7.9,0,0,1,433.953-81.75Zm43.5,0a7.9,7.9,0,0,1,7.891,7.906,7.9,7.9,0,0,1-7.891,7.906,7.9,7.9,0,0,1-7.891-7.906A7.9,7.9,0,0,1,477.453-81.75Zm41.375,0a7.9,7.9,0,0,1,7.891,7.906,7.9,7.9,0,0,1-7.891,7.906,7.9,7.9,0,0,1-7.89-7.906A7.9,7.9,0,0,1,518.828-81.75Zm44.344,0a7.9,7.9,0,0,1,7.89,7.906,7.9,7.9,0,0,1-7.89,7.906,7.9,7.9,0,0,1-7.891-7.906A7.9,7.9,0,0,1,563.172-81.75Zm41.375,0a7.9,7.9,0,0,1,7.891,7.906,7.9,7.9,0,0,1-7.891,7.906,7.9,7.9,0,0,1-7.891-7.906A7.9,7.9,0,0,1,604.547-81.75Zm43.5,0a7.9,7.9,0,0,1,7.891,7.906,7.9,7.9,0,0,1-7.891,7.906,7.9,7.9,0,0,1-7.891-7.906A7.9,7.9,0,0,1,648.047-81.75Zm41.344,0a7.9,7.9,0,0,1,7.89,7.906,7.9,7.9,0,0,1-7.89,7.906,7.9,7.9,0,0,1-7.891-7.906A7.9,7.9,0,0,1,689.391-81.75Zm44.359,0a7.906,7.906,0,0,1,7.906,7.906,7.906,7.906,0,0,1-7.906,7.906,7.906,7.906,0,0,1-7.906-7.906A7.906,7.906,0,0,1,733.75-81.75Zm41.359,0A7.9,7.9,0,0,1,783-73.844a7.9,7.9,0,0,1-7.891,7.906,7.9,7.9,0,0,1-7.89-7.906A7.9,7.9,0,0,1,775.109-81.75ZM306.891-34.344a7.891,7.891,0,0,1,7.89,7.891,7.891,7.891,0,0,1-7.89,7.891A7.891,7.891,0,0,1,299-26.453,7.891,7.891,0,0,1,306.891-34.344Zm41.359,0a7.9,7.9,0,0,1,7.906,7.891,7.9,7.9,0,0,1-7.906,7.891,7.9,7.9,0,0,1-7.906-7.891A7.9,7.9,0,0,1,348.25-34.344Zm44.359,0a7.891,7.891,0,0,1,7.891,7.891,7.891,7.891,0,0,1-7.891,7.891,7.891,7.891,0,0,1-7.89-7.891A7.891,7.891,0,0,1,392.609-34.344Zm41.344,0a7.891,7.891,0,0,1,7.891,7.891,7.891,7.891,0,0,1-7.891,7.891,7.891,7.891,0,0,1-7.891-7.891A7.891,7.891,0,0,1,433.953-34.344Zm43.5,0a7.891,7.891,0,0,1,7.891,7.891,7.891,7.891,0,0,1-7.891,7.891,7.891,7.891,0,0,1-7.891-7.891A7.891,7.891,0,0,1,477.453-34.344Zm41.375,0a7.891,7.891,0,0,1,7.891,7.891,7.891,7.891,0,0,1-7.891,7.891,7.89,7.89,0,0,1-7.89-7.891A7.89,7.89,0,0,1,518.828-34.344Zm44.344,0a7.89,7.89,0,0,1,7.89,7.891,7.89,7.89,0,0,1-7.89,7.891,7.891,7.891,0,0,1-7.891-7.891A7.891,7.891,0,0,1,563.172-34.344Zm41.375,0a7.891,7.891,0,0,1,7.891,7.891,7.891,7.891,0,0,1-7.891,7.891,7.891,7.891,0,0,1-7.891-7.891A7.891,7.891,0,0,1,604.547-34.344Zm43.5,0a7.891,7.891,0,0,1,7.891,7.891,7.891,7.891,0,0,1-7.891,7.891,7.891,7.891,0,0,1-7.891-7.891A7.891,7.891,0,0,1,648.047-34.344Zm41.344,0a7.891,7.891,0,0,1,7.89,7.891,7.891,7.891,0,0,1-7.89,7.891,7.891,7.891,0,0,1-7.891-7.891A7.891,7.891,0,0,1,689.391-34.344Zm44.359,0a7.9,7.9,0,0,1,7.906,7.891,7.9,7.9,0,0,1-7.906,7.891,7.9,7.9,0,0,1-7.906-7.891A7.9,7.9,0,0,1,733.75-34.344Zm41.359,0A7.891,7.891,0,0,1,783-26.453a7.891,7.891,0,0,1-7.891,7.891,7.891,7.891,0,0,1-7.89-7.891A7.891,7.891,0,0,1,775.109-34.344ZM306.891,13.031A7.891,7.891,0,1,1,299,20.922,7.891,7.891,0,0,1,306.891,13.031Zm41.359,0a7.891,7.891,0,1,1-7.906,7.891A7.9,7.9,0,0,1,348.25,13.031Zm44.359,0a7.891,7.891,0,1,1-7.89,7.891A7.891,7.891,0,0,1,392.609,13.031Zm41.344,0a7.891,7.891,0,1,1-7.891,7.891A7.891,7.891,0,0,1,433.953,13.031Zm43.5,0a7.891,7.891,0,1,1-7.891,7.891A7.891,7.891,0,0,1,477.453,13.031Zm41.375,0a7.891,7.891,0,1,1-7.89,7.891A7.891,7.891,0,0,1,518.828,13.031Zm44.344,0a7.891,7.891,0,1,1-7.891,7.891A7.89,7.89,0,0,1,563.172,13.031Zm41.375,0a7.891,7.891,0,1,1-7.891,7.891A7.891,7.891,0,0,1,604.547,13.031Zm43.5,0a7.891,7.891,0,1,1-7.891,7.891A7.891,7.891,0,0,1,648.047,13.031Zm41.344,0a7.891,7.891,0,1,1-7.891,7.891A7.891,7.891,0,0,1,689.391,13.031Zm44.359,0a7.891,7.891,0,1,1-7.906,7.891A7.9,7.9,0,0,1,733.75,13.031Zm41.359,0a7.891,7.891,0,1,1-7.89,7.891A7.891,7.891,0,0,1,775.109,13.031ZM306.891,65.969A7.891,7.891,0,1,1,299,73.859,7.891,7.891,0,0,1,306.891,65.969Zm41.359,0a7.891,7.891,0,1,1-7.906,7.891A7.9,7.9,0,0,1,348.25,65.969Zm44.359,0a7.891,7.891,0,1,1-7.89,7.891A7.891,7.891,0,0,1,392.609,65.969Zm41.344,0a7.891,7.891,0,1,1-7.891,7.891A7.891,7.891,0,0,1,433.953,65.969Zm43.5,0a7.891,7.891,0,1,1-7.891,7.891A7.891,7.891,0,0,1,477.453,65.969Zm41.375,0a7.891,7.891,0,1,1-7.89,7.891A7.891,7.891,0,0,1,518.828,65.969Zm44.344,0a7.891,7.891,0,1,1-7.891,7.891A7.89,7.89,0,0,1,563.172,65.969Zm41.375,0a7.891,7.891,0,1,1-7.891,7.891A7.891,7.891,0,0,1,604.547,65.969Zm43.5,0a7.891,7.891,0,1,1-7.891,7.891A7.891,7.891,0,0,1,648.047,65.969Zm41.344,0a7.891,7.891,0,1,1-7.891,7.891A7.891,7.891,0,0,1,689.391,65.969Zm44.359,0a7.891,7.891,0,1,1-7.906,7.891A7.9,7.9,0,0,1,733.75,65.969Zm41.359,0a7.891,7.891,0,1,1-7.89,7.891A7.891,7.891,0,0,1,775.109,65.969ZM306.891,118.906A7.891,7.891,0,1,1,299,126.8,7.891,7.891,0,0,1,306.891,118.906Zm41.359,0a7.891,7.891,0,1,1-7.906,7.891A7.9,7.9,0,0,1,348.25,118.906Zm44.359,0a7.891,7.891,0,1,1-7.89,7.891A7.891,7.891,0,0,1,392.609,118.906Zm41.344,0a7.891,7.891,0,1,1-7.891,7.891A7.891,7.891,0,0,1,433.953,118.906Zm43.5,0a7.891,7.891,0,1,1-7.891,7.891A7.891,7.891,0,0,1,477.453,118.906Zm41.375,0a7.891,7.891,0,1,1-7.89,7.891A7.891,7.891,0,0,1,518.828,118.906Zm44.344,0a7.891,7.891,0,1,1-7.891,7.891A7.89,7.89,0,0,1,563.172,118.906Zm41.375,0a7.891,7.891,0,1,1-7.891,7.891A7.891,7.891,0,0,1,604.547,118.906Zm43.5,0a7.891,7.891,0,1,1-7.891,7.891A7.891,7.891,0,0,1,648.047,118.906Zm41.344,0A7.891,7.891,0,1,1,681.5,126.8,7.891,7.891,0,0,1,689.391,118.906Zm44.359,0a7.891,7.891,0,1,1-7.906,7.891A7.9,7.9,0,0,1,733.75,118.906Zm41.359,0a7.891,7.891,0,1,1-7.89,7.891A7.891,7.891,0,0,1,775.109,118.906ZM306.891,171.812A7.907,7.907,0,1,1,299,179.719,7.9,7.9,0,0,1,306.891,171.812Zm41.359,0a7.907,7.907,0,1,1-7.906,7.907A7.906,7.906,0,0,1,348.25,171.812Zm44.359,0a7.907,7.907,0,1,1-7.89,7.907A7.9,7.9,0,0,1,392.609,171.812Zm41.344,0a7.907,7.907,0,1,1-7.891,7.907A7.9,7.9,0,0,1,433.953,171.812Zm43.5,0a7.907,7.907,0,1,1-7.891,7.907A7.9,7.9,0,0,1,477.453,171.812Zm41.375,0a7.907,7.907,0,1,1-7.89,7.907A7.9,7.9,0,0,1,518.828,171.812Zm44.344,0a7.907,7.907,0,1,1-7.891,7.907A7.9,7.9,0,0,1,563.172,171.812Zm41.375,0a7.907,7.907,0,1,1-7.891,7.907A7.9,7.9,0,0,1,604.547,171.812Zm43.5,0a7.907,7.907,0,1,1-7.891,7.907A7.9,7.9,0,0,1,648.047,171.812Zm41.344,0a7.907,7.907,0,1,1-7.891,7.907A7.9,7.9,0,0,1,689.391,171.812Zm44.359,0a7.907,7.907,0,1,1-7.906,7.907A7.906,7.906,0,0,1,733.75,171.812Zm41.359,0a7.907,7.907,0,1,1-7.89,7.907A7.9,7.9,0,0,1,775.109,171.812ZM306.891,219.188A7.906,7.906,0,1,1,299,227.094,7.9,7.9,0,0,1,306.891,219.188Zm41.359,0a7.906,7.906,0,1,1-7.906,7.906A7.905,7.905,0,0,1,348.25,219.188Zm44.359,0a7.906,7.906,0,1,1-7.89,7.906A7.9,7.9,0,0,1,392.609,219.188Zm41.344,0a7.906,7.906,0,1,1-7.891,7.906A7.9,7.9,0,0,1,433.953,219.188Zm43.5,0a7.906,7.906,0,1,1-7.891,7.906A7.9,7.9,0,0,1,477.453,219.188Zm41.375,0a7.906,7.906,0,1,1-7.89,7.906A7.9,7.9,0,0,1,518.828,219.188Zm44.344,0a7.906,7.906,0,1,1-7.891,7.906A7.9,7.9,0,0,1,563.172,219.188Zm41.375,0a7.906,7.906,0,1,1-7.891,7.906A7.9,7.9,0,0,1,604.547,219.188Zm43.5,0a7.906,7.906,0,1,1-7.891,7.906A7.9,7.9,0,0,1,648.047,219.188Zm41.344,0a7.906,7.906,0,1,1-7.891,7.906A7.9,7.9,0,0,1,689.391,219.188Zm44.359,0a7.906,7.906,0,1,1-7.906,7.906A7.905,7.905,0,0,1,733.75,219.188Zm41.359,0a7.906,7.906,0,1,1-7.89,7.906A7.9,7.9,0,0,1,775.109,219.188Z"/>
</svg>
