<svg xmlns="http://www.w3.org/2000/svg" xmlns:xlink="http://www.w3.org/1999/xlink" width="20" height="20" viewBox="0 0 100 100"><g><g transform="translate(50 50) scale(0.69 0.69) rotate(0) translate(-50 -50)" style="fill:#32CD32"><svg fill="#32CD32" xmlns="http://www.w3.org/2000/svg" version="1.1" x="0px" y="0px" viewBox="0 0 16 16" enable-background="new 0 0 16 16" xml:space="preserve"><path d="M6.5 0h-6C0.224 0 0 0.224 0 0.5v6C0 6.776 0.224 7 0.5 7h6C6.776 7 7 6.776 7 6.5v-6C7 0.224 6.776 0 6.5 0zM5 5H2V2h3V5z"></path><path d="M6.5 9h-6C0.224 9 0 9.224 0 9.5v6C0 15.776 0.224 16 0.5 16h6C6.776 16 7 15.776 7 15.5v-6C7 9.224 6.776 9 6.5 9zM5 14H2v-3h3V14z"></path><path d="M15.5 0h-6C9.224 0 9 0.224 9 0.5v6C9 6.776 9.224 7 9.5 7h6C15.776 7 16 6.776 16 6.5v-6C16 0.224 15.776 0 15.5 0zM14 5h-3V2h3V5z"></path><path d="M9.5 12C9.224 12 9 11.776 9 11.5v-2C9 9.224 9.224 9 9.5 9h2C11.776 9 12 9.224 12 9.5v2c0 0.276-0.224 0.5-0.5 0.5H9.5z"></path><path d="M15.5 9h-1C14.224 9 14 9.224 14 9.5V12h-1.5c-0.276 0-0.5 0.224-0.5 0.5V14H9.5C9.224 14 9 14.224 9 14.5v1C9 15.776 9.224 16 9.5 16h6c0.276 0 0.5-0.224 0.5-0.5v-6C16 9.224 15.776 9 15.5 9z"></path></svg></g></g></svg>