<svg xmlns="http://www.w3.org/2000/svg" xmlns:xlink="http://www.w3.org/1999/xlink" width="25" height="25" viewBox="0 0 100 100"><g><g transform="translate(50 50) scale(0.69 0.69) rotate(0) translate(-50 -50)" style="fill:#252b32"><svg fill="#252b32" xmlns="http://www.w3.org/2000/svg" viewBox="0 0 32 32" x="0px" y="0px"><title>USER</title><g><path d="M16,16A7,7,0,1,0,9,9,7,7,0,0,0,16,16ZM16,4a5,5,0,1,1-5,5A5,5,0,0,1,16,4Zm4,14H12A10,10,0,0,0,2,28v1a1,1,0,0,0,1,1H29a1,1,0,0,0,1-1V28A10,10,0,0,0,20,18ZM4,28a8,8,0,0,1,8-8h8a8,8,0,0,1,8,8Z"></path></g></svg></g></g></svg>