<?xml version="1.0" encoding="UTF-8"?>
<svg width="39px" height="39px" viewBox="0 0 39 39" version="1.1" xmlns="http://www.w3.org/2000/svg" xmlns:xlink="http://www.w3.org/1999/xlink">
    <!-- Generator: Sketch 63.1 (92452) - https://sketch.com -->
    <title>Instagram logo Copy</title>
    <desc>Created with Sketch.</desc>
    <g id="Page-1" stroke="none" stroke-width="1" fill="none" fill-rule="evenodd">
        <g id="Instagram-logo-Copy">
            <g id="Group-9">
                <path d="M19.03,-6.60804744e-13 C29.541,-6.60804744e-13 38.061,8.52 38.061,19.031 C38.061,29.4279892 29.7232407,37.8775441 19.3683658,38.0580529 L19.03,38.061 C8.52,38.061 -1.32160949e-12,29.541 -1.32160949e-12,19.031 C-1.32160949e-12,8.52 8.52,-6.60804744e-13 19.03,-6.60804744e-13 Z M19.5952002,9 C14.1040001,9 9.62720001,13.3000001 9.38800001,18.6952001 C9.38320001,18.8432001 9.37840001,18.9920001 9.37840001,19.1400002 C9.37840001,21.0584002 9.91360001,22.8472002 10.8416,24.3776002 L9,29.8160003 L14.6584001,28.0176003 C16.1224001,28.8208003 17.8056001,29.2800003 19.5952002,29.2800003 C25.2392002,29.2800003 29.8112003,24.7408002 29.8112003,19.1400002 C29.8112003,19.0536001 29.8112003,18.9680001 29.8064003,18.8816001 C29.6680003,13.4008001 25.1528002,9 19.5952002,9 Z M19.5952002,10.6168 C24.1056002,10.6168 27.8120003,14.0848001 28.1560003,18.4752001 C28.1752003,18.6952001 28.1848003,18.9152001 28.1848003,19.1400002 C28.1848003,23.8416002 24.3296002,27.6632003 19.5952002,27.6632003 C17.8488001,27.6632003 16.2272001,27.1472003 14.8688001,26.2528003 L11.5688,27.3048003 L12.6400001,24.1384002 C11.612,22.7320002 11.0048,21.0056002 11.0048,19.1400002 C11.0048,18.8624001 11.0192,18.5856001 11.0472,18.3128001 C11.4688,13.9984001 15.1416001,10.6168 19.5952002,10.6168 Z M16.1560001,14.5104001 C15.9888001,14.5104001 15.7160001,14.5728001 15.4864001,14.8208001 C15.2568001,15.0696001 14.6112001,15.6728001 14.6112001,16.8968001 C14.6112001,17.1840001 14.6640001,17.4712001 14.7400001,17.7432001 C14.9936001,18.6192001 15.5392001,19.3408002 15.6344001,19.4656002 C15.7584001,19.6280002 17.3656001,22.2200002 19.9104002,23.2200002 C22.4600002,24.2104002 22.4600002,23.8800002 22.9192002,23.8368002 C23.3784002,23.7984002 24.4016002,23.2392002 24.6072002,22.6560002 C24.8176002,22.0768002 24.8176002,21.5792002 24.7552002,21.4744002 C24.6936002,21.3736002 24.5256002,21.3120002 24.2776002,21.1872002 C24.0240002,21.0632002 22.7944002,20.4600002 22.5648002,20.3792002 C22.3352002,20.2928002 22.1680002,20.2544002 22.0008002,20.5032002 C21.8328002,20.7520002 21.3504002,21.3120002 21.2064002,21.4744002 C21.0584002,21.6416002 20.9152002,21.6608002 20.6616002,21.5368002 C20.4128002,21.4120002 19.6048002,21.1536002 18.6480001,20.3024002 C17.9064001,19.6472002 17.3992001,18.8344001 17.2560001,18.5856001 C17.1128001,18.3368001 17.2416001,18.2024001 17.3656001,18.0784001 C17.4808001,17.9640001 17.6144001,17.7864001 17.7440001,17.6432001 C17.7776001,17.6000001 17.8056001,17.5616001 17.8344001,17.5232001 C17.8920001,17.4328001 17.9352001,17.3464001 17.9920001,17.2272001 C18.0784001,17.0600001 18.0360001,16.9160001 17.9736001,16.7920001 C17.9112001,16.6672001 17.4088001,15.4432001 17.1984001,14.9456001 C16.9928001,14.4480001 16.7824001,14.5336001 16.6344001,14.5336001 C16.4904001,14.5336001 16.3232001,14.5104001 16.1560001,14.5104001 Z" id="Combined-Shape" fill="#4FCE5D"></path>
                <g id="Group-13" transform="translate(14.000000, 14.000000)"></g>
            </g>
        </g>
    </g>
</svg>